<svg xmlns="http://www.w3.org/2000/svg" fill="none" viewBox="0 0 93 75">
  <defs/>
  <path fill="#EDF2F4" fill-rule="evenodd" d="M19.3164 0c-5.3065 0-9.233 4.70193-9.0572 9.80106.1688 4.89884-.0505 11.24364-1.62818 16.41774C7.04766 31.4075 4.37173 34.6956 0 35.1176v4.7648c4.37173.4229 7.04766 3.7093 8.63084 8.8987 1.57786 5.1742 1.79696 11.519 1.62826 16.4178C10.0832 70.2973 14.0098 75 19.3171 75h54.3736c5.3064 0 9.2322-4.7019 9.0564-9.8011-.1687-4.8988.0505-11.2436 1.6282-16.4178 1.5834-5.1894 4.2528-8.477 8.6247-8.8987v-4.7648c-4.3717-.4229-7.0411-3.7093-8.6247-8.8988-1.5779-5.1734-1.7969-11.5189-1.6282-16.41774C82.9229 4.70267 78.9971 0 73.6907 0h-54.375.0007zm43.7345 46.1674c0 7.0213-5.1733 11.2795-13.7585 11.2795H34.6779c-.418 0-.819-.1681-1.1146-.4674-.2956-.2992-.4617-.7051-.4617-1.1283V19.149c0-.4232.1661-.8291.4617-1.1283.2956-.2993.6966-.4674 1.1146-.4674h14.5313c7.1586 0 11.8567 3.9255 11.8567 9.9526 0 4.2302-3.1605 8.0173-7.1869 8.6808v.2207c5.4812.6086 9.1719 4.4518 9.1719 9.76zM47.6988 22.6118h-8.3329v11.9157h7.0184c5.4256 0 8.4172-2.2118 8.4172-6.1651-.0005-3.7049-2.5726-5.7506-7.1027-5.7506zm-8.3329 16.6436v13.1314h8.6395c5.6491 0 8.6412-2.2947 8.6412-6.6072s-3.0761-6.525-9.0044-6.525h-8.2763v.0008z" clip-rule="evenodd"/>
</svg>
