<svg xmlns="http://www.w3.org/2000/svg" fill="none" viewBox="0 0 75 75">
  <defs/>
  <path fill="#EDF2F4" d="M0 37.5c0-10.3516 3.66211-19.1895 10.9864-26.5137C18.3105 3.66211 27.1484 0 37.5 0c10.3515 0 19.1894 3.66211 26.5137 10.9863C71.3378 18.3105 75 27.1484 75 37.5c0 10.3515-3.6621 19.1894-10.9863 26.5136C56.6895 71.3378 47.8516 75 37.5 75c-10.3516 0-19.1895-3.6621-26.5136-10.9864C3.66211 56.6895 0 47.8514 0 37.5zm4.10156 0c0 9.1797 3.27148 17.041 9.81444 23.584 6.543 6.5429 14.4043 9.8144 23.584 9.8144s17.041-3.2714 23.584-9.8144c6.543-6.543 9.8144-14.4043 9.8144-23.584S67.627 20.459 61.084 13.916C54.541 7.37304 46.6796 4.10156 37.5 4.10156c-9.1797 0-17.041 3.27148-23.584 9.81444C7.37304 20.459 4.10156 28.3203 4.10156 37.5zm10.54694 8.0566c-.1953-.1953-.1953-.3906 0-.5859.3905-.3907.8789-.5372 1.4648-.4395.5859.0977.9277.1953 1.0254.293.6835.2929 1.4404.9521 2.2704 1.9776.83 1.0253 1.4892 1.7333 1.9776 2.1239 2.3437 1.9532 4.7362 2.0996 7.1777.4395.1953-.6836.5127-1.2695.9521-1.7579.4393-.4883.8545-.83 1.2451-1.0254.3907-.1953 1.0743-.4883 2.0509-.8789-3.2228-.293-5.835-.8545-7.837-1.6846-2.0019-.8301-3.5889-1.8798-4.7608-3.1494-1.5624-1.7578-2.5146-4.0527-2.8564-6.8847-.3419-2.8321-.1221-5.4199.6592-7.7637.5859-1.4648 1.416-2.7831 2.4901-3.9551-.7812-2.4414-.6347-5.2246.4395-8.3496 3.125.1953 5.957 1.2696 8.4961 3.2227 4.8828-1.2695 9.9609-1.3184 15.2343-.1465.6836-.4883 1.7334-1.0986 3.1493-1.8311 1.4161-.7324 3.1983-1.1475 5.3467-1.2451.3907 1.0742.6593 2.3437.8058 3.8085.1464 1.4649.0732 2.8321-.2197 4.1016 2.246 2.3437 3.4179 5.4687 3.5155 9.375 0 3.125-.537 5.7129-1.6112 7.7637-1.0743 2.0507-2.9786 3.7597-5.7129 5.1268-1.8555.879-4.2969 1.416-7.3242 1.6114 1.3672.6835 2.3682 1.3916 3.0029 2.124.6349.7324 1.0499 1.8799 1.2453 3.4424v4.6143l.1464 4.4678c.2929.4883.6348.9033 1.0254 1.2452.3907.3418.7325.5859 1.0254.7324.2929.1465.3906.3662.2929.6592-.0976.293-.4883.4395-1.1718.4395-1.6602 0-2.9785-.586-3.9551-1.7579-.2929-.4883-.4394-1.0742-.4394-1.7578v-7.0313c0-.7812-.1953-1.3428-.586-1.6846-.3906-.3418-.7812-.5615-1.1718-.6592v9.2285c0 1.6602.1953 2.7344.5859 3.2227.3906.4883.6348.9766.7325 1.4648.0977.0977.0244.1709-.2198.2197-.244.0488-.6591-.0244-1.2451-.2197-1.2695-.293-2.1484-.9522-2.6367-1.9776-.4883-1.0253-.7324-2.124-.7324-3.2959v-9.0818h-1.9043v9.082c0 1.1719-.2443 2.295-.7325 3.3692-.6836 1.3672-1.9532 2.0996-3.8086 2.1972-.2929-.0976-.4394-.1953-.4394-.2929.0976-.0977.3906-.5859.8789-1.4648.0977-.1953.2198-.5859.3662-1.1719.1466-.5859.2198-1.2695.2198-2.0508v-9.2285c-.3906.0976-.7569.3173-1.0987.6592-.3418.3418-.5127.9033-.5127 1.6846v7.0312c0 .6835-.1465 1.2696-.4394 1.7578-.8789 1.1719-2.1973 1.7579-3.955 1.7579-.6836 0-1.0743-.1465-1.1719-.4394-.0977-.1953-.0733-.3663.0733-.5128.1465-.1464.3662-.3174.6592-.5127.2929-.1953.4883-.3419.5859-.4394.3906-.293.6835-.6836.8789-1.1719.293-.3906.3662-1.416.2197-3.0762-.1465-1.6601-.1709-2.7344-.0733-3.2226-2.5391.8789-5.1269.4393-7.7637-1.3184-.7813-.7813-1.5625-1.9044-2.3438-3.3691-.5859-1.0743-1.7578-2.3439-3.5155-3.8087z"/>
</svg>
