<svg xmlns="http://www.w3.org/2000/svg" fill="none" viewBox="0 0 67 75">
  <defs/>
  <path fill="#EDF2F4" d="M6.03453 67.5027L0 0h66.3102L60.269 67.492 33.1144 75 6.03453 67.5027z"/>
  <path fill="#EDF2F4" d="M33.1551 69.2613l21.942-6.0671L60.26 5.51953H33.1551V69.2613z"/>
  <path fill="#D80032" d="M33.1551 30.5553H22.1705l-.7588-8.4777h11.7434v-8.279h-20.816l2.2392 25.0355h18.5768v-8.2788zm0 21.5011l-.0365.0099-9.2451-2.4898-.5911-6.6026h-8.3331l1.1632 12.9991 17.0046 4.7078.038-.0107v-8.6137z"/>
  <path fill="#D80032" d="M33.1265 30.5553v8.2788h10.2223l-.9638 10.7373-9.2585 2.4919v8.6131l17.0182-4.7034 2.0755-23.1945.2025-2.2232H33.1265zm0-16.7567v8.279h20.0517l.7431-8.279H33.1265z"/>
</svg>
