<svg xmlns="http://www.w3.org/2000/svg" fill="none" viewBox="0 0 76 75">
  <defs/>
  <path fill="#EDF2F4" d="M35.5112.0201828c-.1634.0146606-.6834.0659727-1.1515.1026242C23.5652 1.08308 13.4542 6.83003 7.05024 15.663 3.48426 20.5743 1.20352 26.1454.34174 32.0463.0371457 34.1061 0 34.7145 0 37.5073c0 2.7929.0371457 3.4013.34174 5.4611C2.40704 57.0499 12.5627 68.881 26.3363 73.2646c2.4664.7843 5.0666 1.3194 8.0234 1.6419 1.1515.1247 6.1291.1247 7.2806 0 5.1038-.5571 9.4275-1.8032 13.6919-3.951.6537-.3299.78-.4178.6909-.4911-.0595-.044-2.8454-3.7311-6.1885-8.188l-6.077-8.0999-7.6149-11.1201c-4.19-6.1135-7.6371-11.1128-7.6668-11.1128-.0298-.0073-.0595 4.9333-.0743 10.9662-.0223 10.5629-.0298 10.9881-.1635 11.2373-.1931.3592-.3417.5058-.6537.6671-.2378.1173-.4458.1393-1.5676.1393h-1.2852l-.3418-.2126c-.2228-.1393-.3863-.3225-.4977-.5351l-.156-.3299.0148-14.6972.0223-14.7046.2303-.2859c.1189-.154.3715-.3519.5498-.4472.3046-.1466.4234-.1612 1.7087-.1612 1.5155 0 1.7681.0586 2.1619.4838.1114.1173 4.2346 6.2454 9.1675 13.627 4.9329 7.3816 11.6786 17.4608 14.992 22.4087l6.0176 8.9943.3046-.1979c2.6968-1.73 5.5495-4.1929 7.808-6.7585 4.8066-5.4465 7.9046-12.0877 8.9447-19.1688.3046-2.0598.3417-2.6682.3417-5.4611 0-2.7928-.0371-3.4012-.3417-5.461C73.593 17.9648 63.4373 6.13365 49.6637 1.75013 47.2344.973122 44.6491.43801 41.7517.115477c-.7132-.0733033-5.6238-.1539366-6.2405-.0952942zM51.0678 22.7001c.3566.176.6464.5132.7504.865.0594.1906.0743 4.2662.0594 13.4511l-.0223 13.1799-2.355-3.5625-2.3625-3.5626v-9.5807c0-6.1941.0297-9.676.0743-9.8446.1189-.4105.3789-.733.7355-.9236.3046-.1539.416-.1686 1.5824-.1686 1.0995 0 1.2927.0147 1.5378.1466z"/>
</svg>
