<svg xmlns="http://www.w3.org/2000/svg" fill="none" viewBox="0 0 85 75">
  <defs/>
  <path fill="#EDF2F4" d="M84.375 37.5086c0-5.5791-6.9997-10.8663-17.7315-14.1451 2.4766-10.9179 1.3759-19.60406-3.474-22.385016-1.1179-.652323-2.425-.9613179-3.8525-.9613179V3.84527c.7912 0 1.4275.1545 1.9606.44633 2.339 1.33898 3.3537 6.4374 2.5626 12.995-.1892 1.6136-.4988 3.3131-.8771 5.0469-3.3709-.824-7.0513-1.4592-10.921-1.8712-2.3217-3.1757-4.7295-6.0597-7.1545-8.5832 5.6067-5.20137 10.8694-8.05099 14.4466-8.05099V0c-4.7295 0-10.9209 3.36462-17.1811 9.20119C35.8929 3.39895 29.7015.0686659 24.972.0686659V3.89677c3.56 0 8.8399 2.83246 14.4466 7.99953-2.4078 2.5235-4.8156 5.3903-7.1029 8.566-3.8869.412-7.5673 1.0472-10.9382 1.8884-.3955-1.7167-.6879-3.3818-.8943-4.9783-.8083-6.5576.1892-11.65599 2.511-13.01213.5159-.309 1.1867-.44633 1.9778-.44633V.085832c-1.4447 0-2.7518.308995-3.8868.961318-4.8328 2.78096-5.9163 11.44995-3.4225 22.33345C6.96532 26.6766 0 31.9467 0 37.5086c0 5.5791 6.99972 10.8663 17.7315 14.1451-2.4766 10.9178-1.3759 19.604 3.474 22.385 1.1179.6523 2.425.9613 3.8697.9613 4.7295 0 10.9209-3.3646 17.1811-9.2012 6.2602 5.8022 12.4516 9.1325 17.1811 9.1325 1.4447 0 2.7518-.309 3.8869-.9613 4.8327-2.7809 5.9162-11.45 3.4224-22.3335 10.663-3.2788 17.6283-8.566 17.6283-14.1279zm-22.3922-11.45c-.6364 2.2145-1.4275 4.4976-2.3218 6.7807-.7051-1.3733-1.4447-2.7466-2.253-4.1199-.7911-1.3733-1.6338-2.7123-2.4765-4.017 2.4421.3605 4.7983.8069 7.0513 1.3562zm-7.8769 18.2822c-1.3414 2.3175-2.7173 4.5148-4.1448 6.5576-2.5625.2231-5.1594.3433-7.7736.3433-2.5969 0-5.1939-.1202-7.7392-.3262-1.4275-2.0428-2.8206-4.2229-4.162-6.5232-1.3071-2.2488-2.4938-4.5319-3.5773-6.8322 1.0663-2.3003 2.2702-4.6006 3.5601-6.8494 1.3414-2.3175 2.7173-4.5148 4.1448-6.5576 2.5625-.2231 5.1595-.3433 7.7736-.3433 2.597 0 5.1939.1202 7.7393.3262 1.4274 2.0428 2.8205 4.2229 4.1619 6.5232 1.3071 2.2488 2.4938 4.5319 3.5773 6.8322-1.0835 2.3003-2.2702 4.6006-3.5601 6.8494zm5.5551-2.2316c.9287 2.3003 1.7198 4.6006 2.3734 6.8322-2.253.5493-4.6264 1.0128-7.0857 1.3733.8427-1.3218 1.6854-2.6779 2.4765-4.0684.7912-1.3733 1.5307-2.7638 2.2358-4.1371zM42.2219 60.4257c-1.5994-1.648-3.1989-3.4848-4.7811-5.4932 1.5478.0686 3.1301.1201 4.7295.1201 1.6166 0 3.2161-.0343 4.7811-.1201-1.5478 2.0084-3.1473 3.8452-4.7295 5.4932zm-12.7956-10.111c-2.4421-.3605-4.7983-.8068-7.0513-1.3561.6364-2.2145 1.4275-4.4976 2.3218-6.7808.7051 1.3734 1.4447 2.7467 2.253 4.12s1.6338 2.7123 2.4765 4.0169zm12.7096-35.7233c1.5995 1.648 3.1989 3.4848 4.7811 5.4933-1.5478-.0687-3.1301-.1202-4.7295-.1202-1.6166 0-3.2161.0344-4.7811.1202 1.5478-2.0085 3.1473-3.8453 4.7295-5.4933zm-12.7268 10.111c-.8427 1.3219-1.6854 2.678-2.4765 4.0685-.7911 1.3733-1.5307 2.7466-2.2358 4.1199-.9287-2.3003-1.7198-4.6006-2.3734-6.8322 2.253-.5322 4.6264-.9957 7.0857-1.3562zM13.8447 46.1948c-6.08825-2.5921-10.02667-5.9911-10.02667-8.6862 0-2.6951 3.93842-6.1113 10.02667-8.6862 1.479-.6352 3.0957-1.2017 4.7639-1.7338.9803 3.3646 2.2702 6.8665 3.8696 10.4543-1.5822 3.5706-2.8549 7.0554-3.818 10.4028-1.7026-.5321-3.3193-1.1158-4.8155-1.7509zm9.2527 24.5308c-2.339-1.339-3.3537-6.4374-2.5626-12.995.1892-1.6136.4988-3.3131.8771-5.0469 3.3709.824 7.0513 1.4591 10.921 1.8711 2.3217 3.1758 4.7295 6.0598 7.1545 8.5832-5.6067 5.2014-10.8694 8.0511-14.4466 8.0511-.774-.0172-1.4275-.1717-1.9434-.4635zm40.7944-13.0808c.8083 6.5575-.1892 11.656-2.511 13.0121-.5159.309-1.1867.4463-1.9778.4463-3.56 0-8.8399-2.8324-14.4466-7.9995 2.4078-2.5235 4.8156-5.3903 7.1029-8.566 3.8869-.412 7.5673-1.0472 10.9382-1.8884.3955 1.7339.7051 3.399.8943 4.9955zm6.6214-11.45c-1.4791.6351-3.0958 1.2016-4.764 1.7338-.9803-3.3646-2.2702-6.8666-3.8696-10.4544 1.5822-3.5706 2.8549-7.0553 3.818-10.4028 1.7027.5322 3.3193 1.1158 4.8327 1.751 6.0883 2.5921 10.0267 5.9911 10.0267 8.6862-.0172 2.6951-3.9556 6.1112-10.0438 8.6862z"/>
  <path fill="#EDF2F4" d="M42.0201 45.2009c4.3455 0 7.8683-3.4479 7.8683-7.7009 0-4.2531-3.5228-7.7009-7.8683-7.7009-4.3456 0-7.8683 3.4478-7.8683 7.7009 0 4.253 3.5227 7.7009 7.8683 7.7009z"/>
</svg>
