<svg xmlns="http://www.w3.org/2000/svg" fill="none" viewBox="0 0 67 75">
  <defs/>
  <path fill="#EDF2F4" d="M6.01655 67.5052L0 0h66.0999l-6.024 67.494L33.0089 75 6.01655 67.5052z"/>
  <path fill="#EDF2F4" d="M33.05 69.2641l21.8715-6.0683 5.1432-57.67651H33.05V69.2641z"/>
  <path fill="#D80032" d="M33.05 29.9754h10.9507l.7539-8.4769H33.05v-8.2752h20.7518l-2.2319 25.0385H33.05v-8.2864zM33.0574 51.4776l-9.2152-2.4908-.5897-6.6023h-8.3007l1.1607 12.9992 16.9524 4.7202h.0485v-8.6263h-.056z"/>
  <path fill="#D80032" d="M43.299 37.8996l-.9965 11.0797-9.2301 2.4908v8.6263l16.9635-4.7053.1232-1.4003 1.4406-16.0949H43.299v.0037zM33.0798 13.2233v8.2789h-19.983l-.1717-1.8596-.5748-6.4193h20.7295zM33.05 29.9754v8.279h-9.1107l-.1605-1.8597-.5748-6.4193h9.846z"/>
</svg>
