<?xml version="1.0" encoding="utf-8"?>
<!-- Generator: Adobe Illustrator 25.2.3, SVG Export Plug-In . SVG Version: 6.00 Build 0)  -->
<svg version="1.1" id="Review" xmlns="http://www.w3.org/2000/svg" xmlns:xlink="http://www.w3.org/1999/xlink" x="0px" y="0px"
	 viewBox="0 0 176.04 50" style="enable-background:new 0 0 176.04 50;" xml:space="preserve">
<style type="text/css">
	.st0{fill:#4989F5;}
	.st1{fill:url(#SVGID_1_);}
	.st2{fill:#3C4BA6;}
	.st3{fill:#7BABF7;}
	.st4{fill:#3F51B5;}
	.st5{fill-rule:evenodd;clip-rule:evenodd;fill:#709BE0;}
	.st6{fill-rule:evenodd;clip-rule:evenodd;fill:#3C4BA6;}
	.st7{fill:#FFFFFF;}
	.st8{fill:#6D6E71;}
	.st9{fill:none;}
</style>
<g>
	<g>
		<g>
			<path class="st0" d="M4.83,12.67h46.09c1.1,0,1.98,0.89,1.98,1.98v33.46c0,1.1-0.89,1.98-1.98,1.98H4.83
				c-1.1,0-1.98-0.89-1.98-1.98V14.66C2.85,13.56,3.73,12.67,4.83,12.67z"/>
			
				<linearGradient id="SVGID_1_" gradientUnits="userSpaceOnUse" x1="-833.675" y1="565.9944" x2="-833.6522" y2="565.9944" gradientTransform="matrix(2185.0801 0 0 -1647.9559 1821649.625 932765.0625)">
				<stop  offset="0.03" style="stop-color:#4079D8"/>
				<stop  offset="1" style="stop-color:#4989F5"/>
			</linearGradient>
			<path class="st1" d="M50.34,12.39H5.35c-1.39,0-2.48,10.79-2.48,12.18L27.51,50.1h22.83c1.4,0,2.53-1.14,2.53-2.53V14.93
				C52.87,13.53,51.74,12.4,50.34,12.39z"/>
			<path class="st2" d="M14.28,18.94h14.3V0.17H16.42L14.28,18.94z"/>
			<path class="st3" d="M42.88,18.94h-14.3V0.17h12.16L42.88,18.94z M52.9,3.73l0.02,0.06C52.92,3.77,52.91,3.75,52.9,3.73z"/>
			<path class="st4" d="M52.92,3.79L52.9,3.73c-0.45-2.08-2.29-3.56-4.42-3.56h-7.75l2.14,18.77h14.3L52.92,3.79z"/>
			<path class="st3" d="M4.25,3.73L4.23,3.79C4.24,3.77,4.25,3.75,4.25,3.73z"/>
			<path class="st3" d="M4.23,3.79l0.02-0.06c0.45-2.08,2.29-3.56,4.42-3.56h7.75l-2.14,18.77h-14.3L4.23,3.79z"/>
		</g>
		<path class="st5" d="M14.3,18.94c0,3.95-3.2,7.15-7.15,7.15s-7.15-3.2-7.15-7.15H14.3z"/>
		<path class="st6" d="M28.59,18.94c0,3.95-3.2,7.15-7.15,7.15s-7.15-3.2-7.15-7.15H28.59z"/>
		<path class="st5" d="M42.89,18.94c0,3.95-3.2,7.15-7.15,7.15s-7.15-3.2-7.15-7.15H42.89z"/>
		<path class="st6" d="M57.18,18.94c0,3.95-3.2,7.15-7.15,7.15s-7.15-3.2-7.15-7.15H57.18z"/>
		<path class="st7" d="M50.03,38.3c-0.03-0.34-0.07-0.65-0.13-1.05h-7.8c0,1.09,0,2.28,0,3.37h4.52c-0.19,1.03-0.79,1.93-1.65,2.52
			c0,0,0-0.02,0-0.02c-0.55,0.36-1.18,0.61-1.83,0.71c-0.65,0.12-1.32,0.12-1.98-0.01c-0.66-0.14-1.29-0.41-1.84-0.8
			c-0.82-0.58-1.45-1.38-1.81-2.32c-0.03-0.07-0.05-0.15-0.08-0.22v-0.01l0.01-0.01c-0.36-1.04-0.36-2.17,0-3.22
			c0.25-0.73,0.66-1.4,1.2-1.95c1.27-1.31,3.16-1.81,4.91-1.28c0.67,0.21,1.28,0.57,1.79,1.05l1.52-1.52
			c0.27-0.27,0.55-0.53,0.81-0.82c-0.77-0.72-1.68-1.28-2.67-1.65c-1.8-0.65-3.77-0.67-5.58-0.05c-0.06,0.02-0.13,0.04-0.19,0.07
			c-1.95,0.73-3.56,2.18-4.51,4.04c-0.33,0.66-0.58,1.36-0.72,2.09c-0.86,4.29,1.75,8.51,5.98,9.65c1.38,0.37,2.85,0.36,4.24,0.04
			c1.26-0.29,2.43-0.89,3.39-1.76c1-0.92,1.72-2.15,2.1-3.46C50.01,40.6,50.13,39.45,50.03,38.3L50.03,38.3z"/>
	</g>
	<g>
		<path class="st0" d="M82.71,20.35h-1.56v4.23h-2.88V12.62h4.7c1.42,0,2.53,0.31,3.33,0.94c0.8,0.63,1.2,1.52,1.2,2.67
			c0,0.83-0.17,1.52-0.5,2.07c-0.34,0.55-0.86,0.99-1.58,1.33l2.5,4.83v0.12h-3.09L82.71,20.35z M81.15,18.13h1.82
			c0.55,0,0.96-0.14,1.24-0.43s0.41-0.69,0.41-1.21c0-0.52-0.14-0.92-0.42-1.21c-0.28-0.29-0.69-0.44-1.23-0.44h-1.82V18.13z"/>
		<path class="st0" d="M93.41,24.74c-1.36,0-2.47-0.41-3.31-1.22c-0.84-0.81-1.26-1.87-1.26-3.17v-0.23c0-0.91,0.17-1.71,0.5-2.41
			c0.34-0.69,0.83-1.23,1.47-1.61c0.65-0.38,1.41-0.57,2.3-0.57c1.25,0,2.23,0.39,2.96,1.16s1.08,1.85,1.08,3.24v1.08h-5.5
			c0.1,0.5,0.31,0.89,0.65,1.17c0.33,0.28,0.77,0.43,1.3,0.43c0.88,0,1.56-0.31,2.05-0.92l1.26,1.49c-0.34,0.48-0.83,0.85-1.47,1.14
			C94.82,24.6,94.14,24.74,93.41,24.74z M93.1,17.66c-0.81,0-1.29,0.54-1.44,1.61h2.79v-0.21c0.01-0.44-0.1-0.79-0.34-1.03
			S93.54,17.66,93.1,17.66z"/>
		<path class="st0" d="M101.7,21.29l1.4-5.59h2.91l-2.9,8.88h-2.82l-2.9-8.88h2.92L101.7,21.29z"/>
		<path class="st0" d="M106.83,13.4c0-0.39,0.14-0.72,0.43-0.97c0.28-0.25,0.65-0.38,1.11-0.38s0.82,0.13,1.11,0.38
			c0.28,0.25,0.43,0.57,0.43,0.97s-0.14,0.72-0.43,0.97s-0.65,0.38-1.11,0.38s-0.82-0.13-1.11-0.38S106.83,13.8,106.83,13.4z
			 M109.77,24.58h-2.77v-8.88h2.77V24.58z"/>
		<path class="st0" d="M115.77,24.74c-1.36,0-2.47-0.41-3.31-1.22c-0.84-0.81-1.26-1.87-1.26-3.17v-0.23c0-0.91,0.17-1.71,0.5-2.41
			c0.34-0.69,0.83-1.23,1.47-1.61c0.65-0.38,1.41-0.57,2.3-0.57c1.25,0,2.23,0.39,2.96,1.16s1.08,1.85,1.08,3.24v1.08h-5.5
			c0.1,0.5,0.31,0.89,0.65,1.17c0.33,0.28,0.77,0.43,1.3,0.43c0.88,0,1.56-0.31,2.05-0.92l1.26,1.49c-0.34,0.48-0.83,0.85-1.47,1.14
			C117.17,24.6,116.49,24.74,115.77,24.74z M115.45,17.66c-0.81,0-1.29,0.54-1.44,1.61h2.79v-0.21c0.01-0.44-0.1-0.79-0.34-1.03
			S115.89,17.66,115.45,17.66z"/>
		<path class="st0" d="M128.29,20.93l0.89-5.24h2.65l-2.09,8.88h-2.34l-1.47-5.27l-1.48,5.27h-2.34l-2.09-8.88h2.65l0.88,5.36
			l1.41-5.36h1.93L128.29,20.93z"/>
		<path class="st0" d="M146.52,12.62v7.82c0,0.89-0.19,1.65-0.57,2.3c-0.38,0.65-0.92,1.14-1.63,1.48s-1.54,0.51-2.5,0.51
			c-1.46,0-2.6-0.38-3.44-1.13c-0.84-0.76-1.26-1.79-1.28-3.1v-7.88h2.9v7.94c0.03,1.31,0.64,1.96,1.82,1.96
			c0.6,0,1.05-0.16,1.35-0.49c0.31-0.33,0.46-0.86,0.46-1.6v-7.81H146.52z"/>
		<path class="st0" d="M152.84,22.08c0-0.23-0.12-0.42-0.37-0.57c-0.25-0.14-0.71-0.29-1.4-0.44c-0.69-0.15-1.26-0.35-1.71-0.6
			c-0.45-0.25-0.79-0.55-1.03-0.91c-0.24-0.36-0.35-0.76-0.35-1.22c0-0.82,0.34-1.49,1.01-2.02c0.67-0.53,1.55-0.79,2.64-0.79
			c1.17,0,2.11,0.27,2.82,0.8c0.71,0.53,1.07,1.23,1.07,2.09h-2.77c0-0.71-0.38-1.07-1.12-1.07c-0.29,0-0.53,0.08-0.73,0.24
			c-0.2,0.16-0.3,0.36-0.3,0.6c0,0.25,0.12,0.45,0.36,0.6c0.24,0.15,0.62,0.28,1.15,0.38s0.99,0.22,1.39,0.35
			c1.34,0.46,2,1.28,2,2.47c0,0.81-0.36,1.47-1.08,1.98c-0.72,0.51-1.65,0.76-2.8,0.76c-0.76,0-1.44-0.14-2.04-0.41
			c-0.6-0.27-1.06-0.65-1.4-1.12s-0.5-0.97-0.5-1.49h2.59c0.01,0.41,0.15,0.71,0.41,0.9c0.26,0.19,0.6,0.28,1.01,0.28
			c0.38,0,0.66-0.08,0.85-0.23S152.84,22.33,152.84,22.08z"/>
	</g>
	<g>
		<path class="st8" d="M83.44,34.18c0,0.67-0.11,1.26-0.34,1.76c-0.23,0.5-0.55,0.88-0.96,1.15c-0.41,0.26-0.9,0.39-1.45,0.39
			c-0.54,0-1.02-0.13-1.44-0.4c-0.42-0.26-0.74-0.64-0.97-1.13s-0.35-1.06-0.36-1.71v-0.5c0-0.66,0.11-1.24,0.34-1.75
			c0.23-0.5,0.55-0.89,0.97-1.16c0.42-0.27,0.9-0.4,1.44-0.4c0.55,0,1.03,0.13,1.45,0.4c0.42,0.26,0.74,0.65,0.97,1.15
			c0.23,0.5,0.34,1.09,0.34,1.76V34.18z M82.54,33.74c0-0.81-0.16-1.44-0.49-1.87c-0.33-0.43-0.78-0.65-1.37-0.65
			c-0.57,0-1.02,0.22-1.35,0.65c-0.33,0.43-0.5,1.04-0.51,1.81v0.5c0,0.79,0.17,1.41,0.5,1.86s0.79,0.68,1.37,0.68
			c0.58,0,1.04-0.21,1.36-0.64c0.32-0.43,0.48-1.04,0.49-1.83V33.74z"/>
		<path class="st8" d="M85.48,32.29l0.03,0.64c0.39-0.49,0.9-0.73,1.52-0.73c1.08,0,1.62,0.61,1.63,1.82v3.37h-0.87v-3.37
			c0-0.37-0.09-0.64-0.25-0.81c-0.16-0.18-0.42-0.26-0.77-0.26c-0.28,0-0.53,0.08-0.74,0.23s-0.38,0.35-0.5,0.59v3.63h-0.87v-5.09
			H85.48z"/>
		<path class="st8" d="M97.55,36.49c-0.23,0.33-0.56,0.58-0.97,0.75c-0.42,0.17-0.9,0.25-1.45,0.25c-0.56,0-1.05-0.13-1.49-0.39
			s-0.77-0.63-1-1.12c-0.24-0.48-0.36-1.04-0.36-1.68v-0.6c0-1.03,0.24-1.83,0.72-2.4c0.48-0.57,1.16-0.85,2.03-0.85
			c0.72,0,1.29,0.18,1.73,0.55c0.44,0.37,0.7,0.88,0.8,1.56h-0.9c-0.17-0.91-0.71-1.37-1.62-1.37c-0.61,0-1.06,0.21-1.38,0.64
			c-0.31,0.42-0.47,1.04-0.47,1.85v0.56c0,0.77,0.18,1.38,0.53,1.83c0.35,0.45,0.83,0.68,1.43,0.68c0.34,0,0.64-0.04,0.89-0.11
			c0.25-0.08,0.46-0.2,0.63-0.38v-1.54h-1.59v-0.74h2.48V36.49z"/>
		<path class="st8" d="M98.69,34.79c0-0.5,0.1-0.95,0.29-1.35c0.2-0.4,0.47-0.71,0.82-0.92c0.35-0.22,0.75-0.32,1.2-0.32
			c0.69,0,1.25,0.24,1.68,0.72c0.43,0.48,0.64,1.12,0.64,1.92v0.06c0,0.5-0.1,0.94-0.28,1.33c-0.19,0.39-0.46,0.7-0.81,0.92
			s-0.76,0.33-1.22,0.33c-0.69,0-1.25-0.24-1.68-0.72s-0.64-1.12-0.64-1.91V34.79z M99.57,34.9c0,0.57,0.13,1.02,0.39,1.36
			c0.26,0.34,0.61,0.51,1.05,0.51c0.44,0,0.79-0.17,1.05-0.52c0.26-0.35,0.39-0.83,0.39-1.46c0-0.56-0.13-1.01-0.4-1.36
			s-0.62-0.52-1.06-0.52c-0.43,0-0.78,0.17-1.04,0.51S99.57,34.26,99.57,34.9z"/>
		<path class="st8" d="M104.19,34.79c0-0.5,0.1-0.95,0.29-1.35c0.2-0.4,0.47-0.71,0.82-0.92c0.35-0.22,0.75-0.32,1.2-0.32
			c0.69,0,1.25,0.24,1.68,0.72c0.43,0.48,0.64,1.12,0.64,1.92v0.06c0,0.5-0.1,0.94-0.28,1.33c-0.19,0.39-0.46,0.7-0.81,0.92
			s-0.76,0.33-1.22,0.33c-0.69,0-1.25-0.24-1.68-0.72s-0.64-1.12-0.64-1.91V34.79z M105.07,34.9c0,0.57,0.13,1.02,0.39,1.36
			c0.26,0.34,0.61,0.51,1.05,0.51c0.44,0,0.79-0.17,1.05-0.52c0.26-0.35,0.39-0.83,0.39-1.46c0-0.56-0.13-1.01-0.4-1.36
			s-0.62-0.52-1.06-0.52c-0.43,0-0.78,0.17-1.04,0.51S105.07,34.26,105.07,34.9z"/>
		<path class="st8" d="M109.71,34.8c0-0.79,0.18-1.42,0.55-1.89c0.37-0.47,0.85-0.7,1.46-0.7c0.62,0,1.11,0.22,1.45,0.66l0.04-0.57
			h0.8v4.97c0,0.66-0.2,1.18-0.59,1.56c-0.39,0.38-0.92,0.57-1.57,0.57c-0.37,0-0.73-0.08-1.08-0.24c-0.35-0.16-0.62-0.37-0.8-0.64
			l0.45-0.52c0.37,0.46,0.83,0.69,1.37,0.69c0.42,0,0.75-0.12,0.99-0.36s0.36-0.57,0.36-1.01v-0.44c-0.35,0.4-0.82,0.6-1.43,0.6
			c-0.6,0-1.08-0.24-1.45-0.72S109.71,35.63,109.71,34.8z M110.59,34.9c0,0.57,0.12,1.03,0.35,1.35s0.56,0.49,0.99,0.49
			c0.55,0,0.95-0.25,1.21-0.75v-2.32c-0.27-0.49-0.67-0.73-1.2-0.73c-0.42,0-0.75,0.16-0.99,0.49
			C110.71,33.76,110.59,34.25,110.59,34.9z"/>
		<path class="st8" d="M116.27,37.39h-0.87v-7.23h0.87V37.39z"/>
		<path class="st8" d="M119.78,37.48c-0.69,0-1.25-0.23-1.68-0.68c-0.43-0.45-0.65-1.06-0.65-1.82v-0.16c0-0.5,0.1-0.96,0.29-1.35
			c0.19-0.4,0.46-0.71,0.81-0.93c0.35-0.22,0.72-0.34,1.13-0.34c0.66,0,1.18,0.22,1.54,0.65c0.37,0.44,0.55,1.06,0.55,1.87v0.36
			h-3.45c0.01,0.5,0.16,0.91,0.44,1.22c0.28,0.31,0.64,0.46,1.07,0.46c0.31,0,0.57-0.06,0.78-0.19c0.21-0.13,0.4-0.29,0.56-0.5
			l0.53,0.41C121.27,37.15,120.63,37.48,119.78,37.48z M119.67,32.92c-0.35,0-0.65,0.13-0.88,0.38c-0.24,0.26-0.39,0.61-0.44,1.08
			h2.55v-0.07c-0.03-0.44-0.14-0.79-0.36-1.03S120.04,32.92,119.67,32.92z"/>
	</g>
	<rect x="-0.03" y="0.17" class="st9" width="176.07" height="49.83"/>
</g>
</svg>
