<svg xmlns="http://www.w3.org/2000/svg" fill="none" viewBox="0 0 600 600">
  <defs/>
  <g filter="url(#filter0_d)">
    <mask id="a" width="750" height="750" x="50" y="25" mask-type="alpha" maskUnits="userSpaceOnUse">
      <path fill="#8D99AD" d="M535 525H65c-8.3 0-15-6.7-15-15V40c0-8.3 6.7-15 15-15h470c8.3 0 15 6.7 15 15v470c0 8.3-6.7 15-15 15z"/>
    </mask>
    <g mask="url(#a)">
      <path fill="#EDF2F4" d="M535 525H65c-8.3 0-15-6.7-15-15V40c0-8.3 6.7-15 15-15h470c8.3 0 15 6.7 15 15v470c0 8.3-6.7 15-15 15z"/>
      <path fill="url(#paint0_linear)" d="M535 525H65c-8.3 0-15-6.7-15-15V40c0-8.3 6.7-15 15-15h470c8.3 0 15 6.7 15 15v470c0 8.3-6.7 15-15 15z" opacity=".25"/>
      <path fill="#EDF2F4" d="M526.628 535.584l-.802-.445-376.682-216.914 2.316-1.336L612.157 51l.802.4452L989.642 268.359l-2.317 1.336-460.697 265.889zM155.38 318.225l371.159 213.708 456.777-263.574L612.157 54.6509 155.38 318.225z"/>
      <path fill="#EDF2F4" d="M324.803 415.513L73.5314 560.392l1.5582 2.7L326.361 418.213l-1.558-2.7zM-3.4309 175.643L-5 178.336l199.799 116.276 1.569-2.693L-3.4309 175.643z"/>
      <path fill="#EDF2F4" d="M332.941 421.072c-4.098 2.315-10.691 2.315-14.789 0-4.098-2.315-4.098-6.144 0-8.548 4.098-2.315 10.691-2.315 14.789 0 4.099 2.404 4.099 6.233 0 8.548z"/>
      <path fill="#8D99AE" d="M377.363 99.868c0 1.745-1.409 3.153-3.155 3.153-1.746 0-3.154-1.408-3.154-3.153 0-1.7453 1.408-3.1528 3.154-3.1528 1.69 0 3.155 1.4075 3.155 3.1528zM385.812 99.868c0 1.745-1.408 3.153-3.154 3.153-1.747 0-3.155-1.408-3.155-3.153 0-1.7453 1.408-3.1528 3.155-3.1528 1.746 0 3.154 1.4075 3.154 3.1528zM394.318 99.868c0 1.745-1.408 3.153-3.155 3.153-1.746 0-3.154-1.408-3.154-3.153 0-1.7453 1.408-3.1528 3.154-3.1528 1.69 0 3.155 1.4075 3.155 3.1528zM402.767 99.868c0 1.745-1.408 3.153-3.154 3.153s-3.155-1.408-3.155-3.153c0-1.7453 1.409-3.1528 3.155-3.1528 1.746 0 3.154 1.4075 3.154 3.1528zM411.273 99.868c0 1.745-1.408 3.153-3.155 3.153-1.746 0-3.154-1.408-3.154-3.153 0-1.7453 1.408-3.1528 3.154-3.1528 1.747 0 3.155 1.4075 3.155 3.1528zM419.779 99.868c0 1.745-1.409 3.153-3.155 3.153-1.746 0-3.154-1.408-3.154-3.153 0-1.7453 1.408-3.1528 3.154-3.1528 1.69 0 3.155 1.4075 3.155 3.1528zM428.228 99.868c0 1.745-1.408 3.153-3.154 3.153-1.747 0-3.155-1.408-3.155-3.153 0-1.7453 1.408-3.1528 3.155-3.1528 1.746 0 3.154 1.4075 3.154 3.1528zM436.734 99.868c0 1.745-1.409 3.153-3.155 3.153-1.746 0-3.154-1.408-3.154-3.153 0-1.7453 1.408-3.1528 3.154-3.1528s3.155 1.4075 3.155 3.1528zM445.183 99.868c0 1.745-1.408 3.153-3.154 3.153-1.747 0-3.155-1.408-3.155-3.153 0-1.7453 1.408-3.1528 3.155-3.1528 1.746 0 3.154 1.4075 3.154 3.1528zM453.689 99.868c0 1.745-1.408 3.153-3.155 3.153-1.746 0-3.154-1.408-3.154-3.153 0-1.7453 1.408-3.1528 3.154-3.1528 1.747 0 3.155 1.4075 3.155 3.1528zM462.195 99.868c0 1.745-1.409 3.153-3.155 3.153-1.746 0-3.154-1.408-3.154-3.153 0-1.7453 1.408-3.1528 3.154-3.1528 1.69 0 3.155 1.4075 3.155 3.1528zM470.644 99.868c0 1.745-1.408 3.153-3.155 3.153-1.746 0-3.154-1.408-3.154-3.153 0-1.7453 1.408-3.1528 3.154-3.1528 1.747 0 3.155 1.4075 3.155 3.1528zM479.15 99.868c0 1.745-1.409 3.153-3.155 3.153-1.746 0-3.154-1.408-3.154-3.153 0-1.7453 1.408-3.1528 3.154-3.1528s3.155 1.4075 3.155 3.1528zM487.655 99.868c0 1.745-1.408 3.153-3.154 3.153s-3.155-1.408-3.155-3.153c0-1.7453 1.409-3.1528 3.155-3.1528 1.69 0 3.154 1.4075 3.154 3.1528zM496.105 99.868c0 1.745-1.409 3.153-3.155 3.153-1.746 0-3.154-1.408-3.154-3.153 0-1.7453 1.408-3.1528 3.154-3.1528s3.155 1.4075 3.155 3.1528zM504.61 99.868c0 1.745-1.408 3.153-3.154 3.153s-3.154-1.408-3.154-3.153c0-1.7453 1.408-3.1528 3.154-3.1528s3.154 1.4075 3.154 3.1528zM513.06 99.868c0 1.745-1.408 3.153-3.155 3.153-1.746 0-3.154-1.408-3.154-3.153 0-1.7453 1.408-3.1528 3.154-3.1528 1.747 0 3.155 1.4075 3.155 3.1528zM555.532 99.868c0 1.745-1.408 3.153-3.154 3.153-1.747 0-3.155-1.408-3.155-3.153 0-1.7453 1.408-3.1528 3.155-3.1528 1.689 0 3.154 1.4075 3.154 3.1528zM317.935 108.369c0 1.745-1.408 3.153-3.154 3.153s-3.154-1.408-3.154-3.153 1.408-3.153 3.154-3.153c1.746-.056 3.154 1.352 3.154 3.153zM326.441 108.369c0 1.745-1.408 3.153-3.154 3.153-1.747 0-3.155-1.408-3.155-3.153s1.408-3.153 3.155-3.153c1.746-.056 3.154 1.352 3.154 3.153zM334.891 108.369c0 1.745-1.409 3.153-3.155 3.153-1.746 0-3.154-1.408-3.154-3.153s1.408-3.153 3.154-3.153c1.746-.056 3.155 1.352 3.155 3.153zM343.396 108.369c0 1.745-1.408 3.153-3.154 3.153s-3.155-1.408-3.155-3.153 1.409-3.153 3.155-3.153c1.746-.056 3.154 1.352 3.154 3.153zM351.902 108.369c0 1.745-1.408 3.153-3.154 3.153-1.747 0-3.155-1.408-3.155-3.153s1.408-3.153 3.155-3.153c1.689-.056 3.154 1.352 3.154 3.153zM360.351 108.369c0 1.745-1.408 3.153-3.154 3.153s-3.155-1.408-3.155-3.153 1.409-3.153 3.155-3.153c1.746-.056 3.154 1.352 3.154 3.153zM368.857 108.369c0 1.745-1.408 3.153-3.154 3.153-1.747 0-3.155-1.408-3.155-3.153s1.408-3.153 3.155-3.153c1.746-.056 3.154 1.352 3.154 3.153zM377.363 108.369c0 1.745-1.409 3.153-3.155 3.153-1.746 0-3.154-1.408-3.154-3.153s1.408-3.153 3.154-3.153c1.69-.056 3.155 1.352 3.155 3.153zM385.812 108.369c0 1.745-1.408 3.153-3.154 3.153-1.747 0-3.155-1.408-3.155-3.153s1.408-3.153 3.155-3.153c1.746-.056 3.154 1.352 3.154 3.153zM419.779 108.369c0 1.745-1.409 3.153-3.155 3.153-1.746 0-3.154-1.408-3.154-3.153s1.408-3.153 3.154-3.153c1.69-.056 3.155 1.352 3.155 3.153zM428.228 108.369c0 1.745-1.408 3.153-3.154 3.153-1.747 0-3.155-1.408-3.155-3.153s1.408-3.153 3.155-3.153c1.746-.056 3.154 1.352 3.154 3.153zM436.734 108.369c0 1.745-1.409 3.153-3.155 3.153-1.746 0-3.154-1.408-3.154-3.153s1.408-3.153 3.154-3.153c1.746-.056 3.155 1.352 3.155 3.153zM445.183 108.369c0 1.745-1.408 3.153-3.154 3.153-1.747 0-3.155-1.408-3.155-3.153s1.408-3.153 3.155-3.153c1.746 0 3.154 1.352 3.154 3.153zM453.689 108.369c0 1.745-1.408 3.153-3.155 3.153-1.746 0-3.154-1.408-3.154-3.153s1.408-3.153 3.154-3.153c1.747-.056 3.155 1.352 3.155 3.153zM462.195 108.369c0 1.745-1.409 3.153-3.155 3.153-1.746 0-3.154-1.408-3.154-3.153s1.408-3.153 3.154-3.153c1.69-.056 3.155 1.352 3.155 3.153zM470.644 108.369c0 1.745-1.408 3.153-3.155 3.153-1.746 0-3.154-1.408-3.154-3.153s1.408-3.153 3.154-3.153c1.747-.056 3.155 1.352 3.155 3.153zM479.15 108.369c0 1.745-1.409 3.153-3.155 3.153-1.746 0-3.154-1.408-3.154-3.153s1.408-3.153 3.154-3.153c1.746-.056 3.155 1.352 3.155 3.153zM487.655 108.369c0 1.745-1.408 3.153-3.154 3.153s-3.155-1.408-3.155-3.153 1.409-3.153 3.155-3.153c1.69-.056 3.154 1.352 3.154 3.153zM496.105 108.369c0 1.745-1.409 3.153-3.155 3.153-1.746 0-3.154-1.408-3.154-3.153s1.408-3.153 3.154-3.153c1.746-.056 3.155 1.352 3.155 3.153zM297.77 119.967c1.742 0 3.154-1.412 3.154-3.153s-1.412-3.153-3.154-3.153c-1.743 0-3.155 1.412-3.155 3.153s1.412 3.153 3.155 3.153zM309.486 116.814c0 1.745-1.408 3.153-3.154 3.153-1.747 0-3.155-1.408-3.155-3.153s1.408-3.153 3.155-3.153c1.69 0 3.154 1.408 3.154 3.153zM314.781 119.967c1.742 0 3.154-1.412 3.154-3.153s-1.412-3.153-3.154-3.153-3.154 1.412-3.154 3.153 1.412 3.153 3.154 3.153zM326.441 116.814c0 1.745-1.408 3.153-3.154 3.153-1.747 0-3.155-1.408-3.155-3.153s1.408-3.153 3.155-3.153c1.746 0 3.154 1.408 3.154 3.153zM334.891 116.814c0 1.745-1.409 3.153-3.155 3.153-1.746 0-3.154-1.408-3.154-3.153s1.408-3.153 3.154-3.153 3.155 1.408 3.155 3.153zM340.242 119.967c1.742 0 3.154-1.412 3.154-3.153s-1.412-3.153-3.154-3.153-3.155 1.412-3.155 3.153 1.413 3.153 3.155 3.153zM351.902 116.814c0 1.745-1.408 3.153-3.154 3.153-1.747 0-3.155-1.408-3.155-3.153s1.408-3.153 3.155-3.153c1.689 0 3.154 1.408 3.154 3.153zM357.197 119.967c1.742 0 3.154-1.412 3.154-3.153s-1.412-3.153-3.154-3.153-3.155 1.412-3.155 3.153 1.413 3.153 3.155 3.153zM368.857 116.814c0 1.745-1.408 3.153-3.154 3.153-1.747 0-3.155-1.408-3.155-3.153s1.408-3.153 3.155-3.153c1.746 0 3.154 1.408 3.154 3.153zM377.363 116.814c0 1.745-1.409 3.153-3.155 3.153-1.746 0-3.154-1.408-3.154-3.153s1.408-3.153 3.154-3.153c1.69 0 3.155 1.408 3.155 3.153zM382.658 119.967c1.742 0 3.154-1.412 3.154-3.153s-1.412-3.153-3.154-3.153-3.155 1.412-3.155 3.153 1.413 3.153 3.155 3.153zM436.734 116.814c0 1.745-1.409 3.153-3.155 3.153-1.746 0-3.154-1.408-3.154-3.153s1.408-3.153 3.154-3.153 3.155 1.408 3.155 3.153zM442.029 119.967c1.742 0 3.154-1.412 3.154-3.153s-1.412-3.153-3.154-3.153-3.155 1.412-3.155 3.153 1.413 3.153 3.155 3.153zM453.689 116.814c0 1.745-1.408 3.153-3.155 3.153-1.746 0-3.154-1.408-3.154-3.153s1.408-3.153 3.154-3.153c1.747 0 3.155 1.408 3.155 3.153zM462.195 116.814c0 1.745-1.409 3.153-3.155 3.153-1.746 0-3.154-1.408-3.154-3.153s1.408-3.153 3.154-3.153c1.69 0 3.155 1.408 3.155 3.153zM470.644 116.814c0 1.745-1.408 3.153-3.155 3.153-1.746 0-3.154-1.408-3.154-3.153s1.408-3.153 3.154-3.153c1.747 0 3.155 1.408 3.155 3.153zM479.15 116.814c0 1.745-1.409 3.153-3.155 3.153-1.746 0-3.154-1.408-3.154-3.153s1.408-3.153 3.154-3.153 3.155 1.408 3.155 3.153zM484.445 119.967c1.742 0 3.154-1.412 3.154-3.153s-1.412-3.153-3.154-3.153c-1.743 0-3.155 1.412-3.155 3.153s1.412 3.153 3.155 3.153zM216.149 125.315c0 1.746-1.409 3.153-3.155 3.153-1.746 0-3.154-1.407-3.154-3.153 0-1.745 1.408-3.152 3.154-3.152s3.155 1.407 3.155 3.152zM224.598 125.315c0 1.746-1.408 3.153-3.155 3.153-1.746 0-3.154-1.407-3.154-3.153 0-1.745 1.408-3.152 3.154-3.152 1.747-.057 3.155 1.407 3.155 3.152zM233.104 125.315c0 1.746-1.409 3.153-3.155 3.153-1.746 0-3.154-1.407-3.154-3.153 0-1.745 1.408-3.152 3.154-3.152 1.746-.057 3.155 1.407 3.155 3.152zM241.609 125.315c0 1.746-1.408 3.153-3.154 3.153s-3.154-1.407-3.154-3.153c0-1.745 1.408-3.152 3.154-3.152 1.69-.057 3.154 1.407 3.154 3.152zM250.059 125.315c0 1.746-1.409 3.153-3.155 3.153-1.746 0-3.154-1.407-3.154-3.153 0-1.745 1.408-3.152 3.154-3.152 1.746-.057 3.155 1.407 3.155 3.152zM258.564 125.315c0 1.746-1.408 3.153-3.154 3.153s-3.154-1.407-3.154-3.153c0-1.745 1.408-3.152 3.154-3.152 1.746-.057 3.154 1.407 3.154 3.152zM267.014 125.315c0 1.746-1.408 3.153-3.155 3.153-1.746 0-3.154-1.407-3.154-3.153 0-1.745 1.408-3.152 3.154-3.152 1.747-.057 3.155 1.407 3.155 3.152zM275.52 125.315c0 1.746-1.409 3.153-3.155 3.153-1.746 0-3.154-1.407-3.154-3.153 0-1.745 1.408-3.152 3.154-3.152 1.746-.057 3.155 1.407 3.155 3.152zM284.025 125.315c0 1.746-1.408 3.153-3.154 3.153s-3.155-1.407-3.155-3.153c0-1.745 1.409-3.152 3.155-3.152 1.69-.057 3.154 1.407 3.154 3.152zM292.475 125.315c0 1.746-1.409 3.153-3.155 3.153-1.746 0-3.154-1.407-3.154-3.153 0-1.745 1.408-3.152 3.154-3.152 1.746-.057 3.155 1.407 3.155 3.152zM300.98 125.315c0 1.746-1.408 3.153-3.154 3.153s-3.155-1.407-3.155-3.153c0-1.745 1.409-3.152 3.155-3.152 1.746-.057 3.154 1.407 3.154 3.152zM309.486 125.315c0 1.746-1.408 3.153-3.154 3.153-1.747 0-3.155-1.407-3.155-3.153 0-1.745 1.408-3.152 3.155-3.152 1.69-.057 3.154 1.407 3.154 3.152zM317.935 125.315c0 1.746-1.408 3.153-3.154 3.153s-3.154-1.407-3.154-3.153c0-1.745 1.408-3.152 3.154-3.152 1.746-.057 3.154 1.407 3.154 3.152zM326.441 125.315c0 1.746-1.408 3.153-3.154 3.153-1.747 0-3.155-1.407-3.155-3.153 0-1.745 1.408-3.152 3.155-3.152 1.746-.057 3.154 1.407 3.154 3.152zM334.891 125.315c0 1.746-1.409 3.153-3.155 3.153-1.746 0-3.154-1.407-3.154-3.153 0-1.745 1.408-3.152 3.154-3.152 1.746-.057 3.155 1.407 3.155 3.152zM343.396 125.315c0 1.746-1.408 3.153-3.154 3.153s-3.155-1.407-3.155-3.153c0-1.745 1.409-3.152 3.155-3.152 1.746-.057 3.154 1.407 3.154 3.152zM351.902 125.315c0 1.746-1.408 3.153-3.154 3.153-1.747 0-3.155-1.407-3.155-3.153 0-1.745 1.408-3.152 3.155-3.152 1.689-.057 3.154 1.407 3.154 3.152zM360.351 125.315c0 1.746-1.408 3.153-3.154 3.153s-3.155-1.407-3.155-3.153c0-1.745 1.409-3.152 3.155-3.152 1.746-.057 3.154 1.407 3.154 3.152zM368.857 125.315c0 1.746-1.408 3.153-3.154 3.153-1.747 0-3.155-1.407-3.155-3.153 0-1.745 1.408-3.152 3.155-3.152 1.746-.057 3.154 1.407 3.154 3.152zM377.363 125.315c0 1.746-1.409 3.153-3.155 3.153-1.746 0-3.154-1.407-3.154-3.153 0-1.745 1.408-3.152 3.154-3.152 1.69-.057 3.155 1.407 3.155 3.152zM385.812 125.315c0 1.746-1.408 3.153-3.154 3.153-1.747 0-3.155-1.407-3.155-3.153 0-1.745 1.408-3.152 3.155-3.152 1.746-.057 3.154 1.407 3.154 3.152zM394.318 125.315c0 1.746-1.408 3.153-3.155 3.153-1.746 0-3.154-1.407-3.154-3.153 0-1.745 1.408-3.152 3.154-3.152 1.69-.057 3.155 1.407 3.155 3.152zM436.734 125.315c0 1.746-1.409 3.153-3.155 3.153-1.746 0-3.154-1.407-3.154-3.153 0-1.745 1.408-3.152 3.154-3.152 1.746-.057 3.155 1.407 3.155 3.152zM445.183 125.315c0 1.746-1.408 3.153-3.154 3.153-1.747 0-3.155-1.407-3.155-3.153 0-1.745 1.408-3.152 3.155-3.152 1.746 0 3.154 1.407 3.154 3.152zM453.689 125.315c0 1.746-1.408 3.153-3.155 3.153-1.746 0-3.154-1.407-3.154-3.153 0-1.745 1.408-3.152 3.154-3.152 1.747-.057 3.155 1.407 3.155 3.152zM462.195 125.315c0 1.746-1.409 3.153-3.155 3.153-1.746 0-3.154-1.407-3.154-3.153 0-1.745 1.408-3.152 3.154-3.152 1.69-.057 3.155 1.407 3.155 3.152zM470.644 125.315c0 1.746-1.408 3.153-3.155 3.153-1.746 0-3.154-1.407-3.154-3.153 0-1.745 1.408-3.152 3.154-3.152 1.747-.057 3.155 1.407 3.155 3.152zM479.15 125.315c0 1.746-1.409 3.153-3.155 3.153-1.746 0-3.154-1.407-3.154-3.153 0-1.745 1.408-3.152 3.154-3.152 1.746-.057 3.155 1.407 3.155 3.152zM487.655 125.315c0 1.746-1.408 3.153-3.154 3.153s-3.155-1.407-3.155-3.153c0-1.745 1.409-3.152 3.155-3.152 1.69-.057 3.154 1.407 3.154 3.152zM195.983 136.969c1.742 0 3.154-1.411 3.154-3.153 0-1.741-1.412-3.152-3.154-3.152s-3.155 1.411-3.155 3.152c0 1.742 1.413 3.153 3.155 3.153zM207.643 133.817c0 1.745-1.408 3.152-3.155 3.152-1.746 0-3.154-1.407-3.154-3.152 0-1.746 1.408-3.153 3.154-3.153 1.747-.057 3.155 1.351 3.155 3.153zM212.938 136.969c1.742 0 3.154-1.411 3.154-3.153 0-1.741-1.412-3.152-3.154-3.152s-3.155 1.411-3.155 3.152c0 1.742 1.413 3.153 3.155 3.153zM224.598 133.817c0 1.745-1.408 3.152-3.155 3.152-1.746 0-3.154-1.407-3.154-3.152 0-1.746 1.408-3.153 3.154-3.153 1.747-.057 3.155 1.351 3.155 3.153zM233.104 133.817c0 1.745-1.409 3.152-3.155 3.152-1.746 0-3.154-1.407-3.154-3.152 0-1.746 1.408-3.153 3.154-3.153 1.746-.057 3.155 1.351 3.155 3.153zM241.609 133.817c0 1.745-1.408 3.152-3.154 3.152s-3.154-1.407-3.154-3.152c0-1.746 1.408-3.153 3.154-3.153 1.69-.057 3.154 1.351 3.154 3.153zM250.059 133.817c0 1.745-1.409 3.152-3.155 3.152-1.746 0-3.154-1.407-3.154-3.152 0-1.746 1.408-3.153 3.154-3.153 1.746-.057 3.155 1.351 3.155 3.153zM255.354 136.969c1.742 0 3.154-1.411 3.154-3.153 0-1.741-1.412-3.152-3.154-3.152s-3.155 1.411-3.155 3.152c0 1.742 1.413 3.153 3.155 3.153zM267.014 133.817c0 1.745-1.408 3.152-3.155 3.152-1.746 0-3.154-1.407-3.154-3.152 0-1.746 1.408-3.153 3.154-3.153 1.747-.057 3.155 1.351 3.155 3.153zM272.365 136.969c1.742 0 3.155-1.411 3.155-3.153 0-1.741-1.413-3.152-3.155-3.152-1.742 0-3.154 1.411-3.154 3.152 0 1.742 1.412 3.153 3.154 3.153zM284.025 133.817c0 1.745-1.408 3.152-3.154 3.152s-3.155-1.407-3.155-3.152c0-1.746 1.409-3.153 3.155-3.153 1.69-.057 3.154 1.351 3.154 3.153zM292.475 133.817c0 1.745-1.409 3.152-3.155 3.152-1.746 0-3.154-1.407-3.154-3.152 0-1.746 1.408-3.153 3.154-3.153 1.746-.057 3.155 1.351 3.155 3.153zM297.77 136.969c1.742 0 3.154-1.411 3.154-3.153 0-1.741-1.412-3.152-3.154-3.152-1.743 0-3.155 1.411-3.155 3.152 0 1.742 1.412 3.153 3.155 3.153zM309.486 133.817c0 1.745-1.408 3.152-3.154 3.152-1.747 0-3.155-1.407-3.155-3.152 0-1.746 1.408-3.153 3.155-3.153 1.69-.057 3.154 1.351 3.154 3.153zM314.781 136.969c1.742 0 3.154-1.411 3.154-3.153 0-1.741-1.412-3.152-3.154-3.152s-3.154 1.411-3.154 3.152c0 1.742 1.412 3.153 3.154 3.153zM326.441 133.817c0 1.745-1.408 3.152-3.154 3.152-1.747 0-3.155-1.407-3.155-3.152 0-1.746 1.408-3.153 3.155-3.153 1.746-.057 3.154 1.351 3.154 3.153zM334.891 133.817c0 1.745-1.409 3.152-3.155 3.152-1.746 0-3.154-1.407-3.154-3.152 0-1.746 1.408-3.153 3.154-3.153 1.746-.057 3.155 1.351 3.155 3.153zM340.242 136.969c1.742 0 3.154-1.411 3.154-3.153 0-1.741-1.412-3.152-3.154-3.152s-3.155 1.411-3.155 3.152c0 1.742 1.413 3.153 3.155 3.153zM351.902 133.817c0 1.745-1.408 3.152-3.154 3.152-1.747 0-3.155-1.407-3.155-3.152 0-1.746 1.408-3.153 3.155-3.153 1.689-.057 3.154 1.351 3.154 3.153zM382.658 136.969c1.742 0 3.154-1.411 3.154-3.153 0-1.741-1.412-3.152-3.154-3.152s-3.155 1.411-3.155 3.152c0 1.742 1.413 3.153 3.155 3.153zM394.318 133.817c0 1.745-1.408 3.152-3.155 3.152-1.746 0-3.154-1.407-3.154-3.152 0-1.746 1.408-3.153 3.154-3.153 1.69-.057 3.155 1.351 3.155 3.153zM399.613 136.969c1.742 0 3.154-1.411 3.154-3.153 0-1.741-1.412-3.152-3.154-3.152s-3.155 1.411-3.155 3.152c0 1.742 1.413 3.153 3.155 3.153zM428.228 133.817c0 1.745-1.408 3.152-3.154 3.152-1.747 0-3.155-1.407-3.155-3.152 0-1.746 1.408-3.153 3.155-3.153 1.746-.057 3.154 1.351 3.154 3.153zM436.734 133.817c0 1.745-1.409 3.152-3.155 3.152-1.746 0-3.154-1.407-3.154-3.152 0-1.746 1.408-3.153 3.154-3.153 1.746-.057 3.155 1.351 3.155 3.153zM442.029 136.969c1.742 0 3.154-1.411 3.154-3.153 0-1.741-1.412-3.152-3.154-3.152s-3.155 1.411-3.155 3.152c0 1.742 1.413 3.153 3.155 3.153zM453.689 133.817c0 1.745-1.408 3.152-3.155 3.152-1.746 0-3.154-1.407-3.154-3.152 0-1.746 1.408-3.153 3.154-3.153 1.747-.057 3.155 1.351 3.155 3.153zM462.195 133.817c0 1.745-1.409 3.152-3.155 3.152-1.746 0-3.154-1.407-3.154-3.152 0-1.746 1.408-3.153 3.154-3.153 1.69-.057 3.155 1.351 3.155 3.153zM484.445 136.969c1.742 0 3.154-1.411 3.154-3.153 0-1.741-1.412-3.152-3.154-3.152-1.743 0-3.155 1.411-3.155 3.152 0 1.742 1.412 3.153 3.155 3.153zM496.105 133.817c0 1.745-1.409 3.152-3.155 3.152-1.746 0-3.154-1.407-3.154-3.152 0-1.746 1.408-3.153 3.154-3.153 1.746-.057 3.155 1.351 3.155 3.153zM501.4 136.969c1.742 0 3.154-1.411 3.154-3.153 0-1.741-1.412-3.152-3.154-3.152s-3.155 1.411-3.155 3.152c0 1.742 1.413 3.153 3.155 3.153zM555.532 133.817c0 1.745-1.408 3.152-3.154 3.152-1.747 0-3.155-1.407-3.155-3.152 0-1.746 1.408-3.153 3.155-3.153 1.689-.057 3.154 1.351 3.154 3.153zM182.182 142.261c0 1.746-1.408 3.153-3.154 3.153-1.747 0-3.155-1.407-3.155-3.153 0-1.745 1.408-3.152 3.155-3.152 1.746 0 3.154 1.407 3.154 3.152zM190.688 142.261c0 1.746-1.408 3.153-3.155 3.153-1.746 0-3.154-1.407-3.154-3.153 0-1.745 1.408-3.152 3.154-3.152 1.747 0 3.155 1.407 3.155 3.152zM199.193 142.261c0 1.746-1.408 3.153-3.154 3.153s-3.154-1.407-3.154-3.153c0-1.745 1.408-3.152 3.154-3.152s3.154 1.407 3.154 3.152zM207.643 142.261c0 1.746-1.408 3.153-3.155 3.153-1.746 0-3.154-1.407-3.154-3.153 0-1.745 1.408-3.152 3.154-3.152 1.747 0 3.155 1.407 3.155 3.152zM216.149 142.261c0 1.746-1.409 3.153-3.155 3.153-1.746 0-3.154-1.407-3.154-3.153 0-1.745 1.408-3.152 3.154-3.152s3.155 1.407 3.155 3.152zM224.598 142.261c0 1.746-1.408 3.153-3.155 3.153-1.746 0-3.154-1.407-3.154-3.153 0-1.745 1.408-3.152 3.154-3.152 1.747 0 3.155 1.407 3.155 3.152zM233.104 142.261c0 1.746-1.409 3.153-3.155 3.153-1.746 0-3.154-1.407-3.154-3.153 0-1.745 1.408-3.152 3.154-3.152s3.155 1.407 3.155 3.152zM241.609 142.261c0 1.746-1.408 3.153-3.154 3.153s-3.154-1.407-3.154-3.153c0-1.745 1.408-3.152 3.154-3.152 1.69 0 3.154 1.407 3.154 3.152zM250.059 142.261c0 1.746-1.409 3.153-3.155 3.153-1.746 0-3.154-1.407-3.154-3.153 0-1.745 1.408-3.152 3.154-3.152s3.155 1.407 3.155 3.152zM258.564 142.261c0 1.746-1.408 3.153-3.154 3.153s-3.154-1.407-3.154-3.153c0-1.745 1.408-3.152 3.154-3.152s3.154 1.407 3.154 3.152zM267.014 142.261c0 1.746-1.408 3.153-3.155 3.153-1.746 0-3.154-1.407-3.154-3.153 0-1.745 1.408-3.152 3.154-3.152 1.747 0 3.155 1.407 3.155 3.152zM275.52 142.261c0 1.746-1.409 3.153-3.155 3.153-1.746 0-3.154-1.407-3.154-3.153 0-1.745 1.408-3.152 3.154-3.152s3.155 1.407 3.155 3.152zM284.025 142.261c0 1.746-1.408 3.153-3.154 3.153s-3.155-1.407-3.155-3.153c0-1.745 1.409-3.152 3.155-3.152 1.69 0 3.154 1.407 3.154 3.152zM292.475 142.261c0 1.746-1.409 3.153-3.155 3.153-1.746 0-3.154-1.407-3.154-3.153 0-1.745 1.408-3.152 3.154-3.152s3.155 1.407 3.155 3.152zM300.98 142.261c0 1.746-1.408 3.153-3.154 3.153s-3.155-1.407-3.155-3.153c0-1.745 1.409-3.152 3.155-3.152 1.746 0 3.154 1.407 3.154 3.152zM309.486 142.261c0 1.746-1.408 3.153-3.154 3.153-1.747 0-3.155-1.407-3.155-3.153 0-1.745 1.408-3.152 3.155-3.152 1.69 0 3.154 1.407 3.154 3.152zM317.935 142.261c0 1.746-1.408 3.153-3.154 3.153s-3.154-1.407-3.154-3.153c0-1.745 1.408-3.152 3.154-3.152s3.154 1.407 3.154 3.152zM326.441 142.261c0 1.746-1.408 3.153-3.154 3.153-1.747 0-3.155-1.407-3.155-3.153 0-1.745 1.408-3.152 3.155-3.152 1.746 0 3.154 1.407 3.154 3.152zM334.891 142.261c0 1.746-1.409 3.153-3.155 3.153-1.746 0-3.154-1.407-3.154-3.153 0-1.745 1.408-3.152 3.154-3.152s3.155 1.407 3.155 3.152zM343.396 142.261c0 1.746-1.408 3.153-3.154 3.153s-3.155-1.407-3.155-3.153c0-1.745 1.409-3.152 3.155-3.152 1.746 0 3.154 1.407 3.154 3.152zM377.363 142.261c0 1.746-1.409 3.153-3.155 3.153-1.746 0-3.154-1.407-3.154-3.153 0-1.745 1.408-3.152 3.154-3.152 1.69 0 3.155 1.407 3.155 3.152zM385.812 142.261c0 1.746-1.408 3.153-3.154 3.153-1.747 0-3.155-1.407-3.155-3.153 0-1.745 1.408-3.152 3.155-3.152 1.746 0 3.154 1.407 3.154 3.152zM394.318 142.261c0 1.746-1.408 3.153-3.155 3.153-1.746 0-3.154-1.407-3.154-3.153 0-1.745 1.408-3.152 3.154-3.152 1.69 0 3.155 1.407 3.155 3.152zM436.734 142.261c0 1.746-1.409 3.153-3.155 3.153-1.746 0-3.154-1.407-3.154-3.153 0-1.745 1.408-3.152 3.154-3.152s3.155 1.407 3.155 3.152zM445.183 142.261c0 1.746-1.408 3.153-3.154 3.153-1.747 0-3.155-1.407-3.155-3.153 0-1.745 1.408-3.152 3.155-3.152 1.746 0 3.154 1.407 3.154 3.152zM487.655 142.261c0 1.746-1.408 3.153-3.154 3.153s-3.155-1.407-3.155-3.153c0-1.745 1.409-3.152 3.155-3.152 1.69 0 3.154 1.407 3.154 3.152zM496.105 142.261c0 1.746-1.409 3.153-3.155 3.153-1.746 0-3.154-1.407-3.154-3.153 0-1.745 1.408-3.152 3.154-3.152s3.155 1.407 3.155 3.152zM547.026 142.261c0 1.746-1.408 3.153-3.154 3.153s-3.155-1.407-3.155-3.153c0-1.745 1.409-3.152 3.155-3.152 1.746 0 3.154 1.407 3.154 3.152zM555.532 142.261c0 1.746-1.408 3.153-3.154 3.153-1.747 0-3.155-1.407-3.155-3.153 0-1.745 1.408-3.152 3.155-3.152 1.689 0 3.154 1.407 3.154 3.152zM179.028 153.915c1.742 0 3.154-1.411 3.154-3.152 0-1.742-1.412-3.153-3.154-3.153-1.743 0-3.155 1.411-3.155 3.153 0 1.741 1.412 3.152 3.155 3.152zM187.477 153.915c1.742 0 3.154-1.411 3.154-3.152 0-1.742-1.412-3.153-3.154-3.153s-3.154 1.411-3.154 3.153c0 1.741 1.412 3.152 3.154 3.152zM195.983 153.915c1.742 0 3.154-1.411 3.154-3.152 0-1.742-1.412-3.153-3.154-3.153s-3.155 1.411-3.155 3.153c0 1.741 1.413 3.152 3.155 3.152zM207.643 150.763c0 1.745-1.408 3.152-3.155 3.152-1.746 0-3.154-1.407-3.154-3.152 0-1.746 1.408-3.153 3.154-3.153 1.747-.056 3.155 1.407 3.155 3.153zM212.938 153.915c1.742 0 3.154-1.411 3.154-3.152 0-1.742-1.412-3.153-3.154-3.153s-3.155 1.411-3.155 3.153c0 1.741 1.413 3.152 3.155 3.152zM224.598 150.763c0 1.745-1.408 3.152-3.155 3.152-1.746 0-3.154-1.407-3.154-3.152 0-1.746 1.408-3.153 3.154-3.153 1.747-.056 3.155 1.407 3.155 3.153zM233.104 150.763c0 1.745-1.409 3.152-3.155 3.152-1.746 0-3.154-1.407-3.154-3.152 0-1.746 1.408-3.153 3.154-3.153 1.746-.056 3.155 1.407 3.155 3.153zM241.609 150.763c0 1.745-1.408 3.152-3.154 3.152s-3.154-1.407-3.154-3.152c0-1.746 1.408-3.153 3.154-3.153 1.69-.056 3.154 1.407 3.154 3.153zM250.059 150.763c0 1.745-1.409 3.152-3.155 3.152-1.746 0-3.154-1.407-3.154-3.152 0-1.746 1.408-3.153 3.154-3.153 1.746-.056 3.155 1.407 3.155 3.153zM255.354 153.915c1.742 0 3.154-1.411 3.154-3.152 0-1.742-1.412-3.153-3.154-3.153s-3.155 1.411-3.155 3.153c0 1.741 1.413 3.152 3.155 3.152zM267.014 150.763c0 1.745-1.408 3.152-3.155 3.152-1.746 0-3.154-1.407-3.154-3.152 0-1.746 1.408-3.153 3.154-3.153 1.747-.056 3.155 1.407 3.155 3.153zM272.365 153.915c1.742 0 3.155-1.411 3.155-3.152 0-1.742-1.413-3.153-3.155-3.153-1.742 0-3.154 1.411-3.154 3.153 0 1.741 1.412 3.152 3.154 3.152zM284.025 150.763c0 1.745-1.408 3.152-3.154 3.152s-3.155-1.407-3.155-3.152c0-1.746 1.409-3.153 3.155-3.153 1.69-.056 3.154 1.407 3.154 3.153zM292.475 150.763c0 1.745-1.409 3.152-3.155 3.152-1.746 0-3.154-1.407-3.154-3.152 0-1.746 1.408-3.153 3.154-3.153 1.746-.056 3.155 1.407 3.155 3.153zM297.77 153.915c1.742 0 3.154-1.411 3.154-3.152 0-1.742-1.412-3.153-3.154-3.153-1.743 0-3.155 1.411-3.155 3.153 0 1.741 1.412 3.152 3.155 3.152zM309.486 150.763c0 1.745-1.408 3.152-3.154 3.152-1.747 0-3.155-1.407-3.155-3.152 0-1.746 1.408-3.153 3.155-3.153 1.69-.056 3.154 1.407 3.154 3.153zM314.781 153.915c1.742 0 3.154-1.411 3.154-3.152 0-1.742-1.412-3.153-3.154-3.153s-3.154 1.411-3.154 3.153c0 1.741 1.412 3.152 3.154 3.152zM326.441 150.763c0 1.745-1.408 3.152-3.154 3.152-1.747 0-3.155-1.407-3.155-3.152 0-1.746 1.408-3.153 3.155-3.153 1.746-.056 3.154 1.407 3.154 3.153zM368.857 150.763c0 1.745-1.408 3.152-3.154 3.152-1.747 0-3.155-1.407-3.155-3.152 0-1.746 1.408-3.153 3.155-3.153 1.746-.056 3.154 1.407 3.154 3.153zM377.363 150.763c0 1.745-1.409 3.152-3.155 3.152-1.746 0-3.154-1.407-3.154-3.152 0-1.746 1.408-3.153 3.154-3.153 1.69-.056 3.155 1.407 3.155 3.153zM382.658 153.915c1.742 0 3.154-1.411 3.154-3.152 0-1.742-1.412-3.153-3.154-3.153s-3.155 1.411-3.155 3.153c0 1.741 1.413 3.152 3.155 3.152zM543.815 153.915c1.743 0 3.155-1.411 3.155-3.152 0-1.742-1.412-3.153-3.155-3.153-1.742 0-3.154 1.411-3.154 3.153 0 1.741 1.412 3.152 3.154 3.152zM555.532 150.763c0 1.745-1.408 3.152-3.154 3.152-1.747 0-3.155-1.407-3.155-3.152 0-1.746 1.408-3.153 3.155-3.153 1.689-.056 3.154 1.407 3.154 3.153zM182.182 159.208c0 1.745-1.408 3.152-3.154 3.152-1.747 0-3.155-1.407-3.155-3.152 0-1.746 1.408-3.153 3.155-3.153 1.746 0 3.154 1.407 3.154 3.153zM190.688 159.208c0 1.745-1.408 3.152-3.155 3.152-1.746 0-3.154-1.407-3.154-3.152 0-1.746 1.408-3.153 3.154-3.153 1.747 0 3.155 1.407 3.155 3.153zM199.193 159.208c0 1.745-1.408 3.152-3.154 3.152s-3.154-1.407-3.154-3.152c0-1.746 1.408-3.153 3.154-3.153s3.154 1.407 3.154 3.153zM233.104 159.208c0 1.745-1.409 3.152-3.155 3.152-1.746 0-3.154-1.407-3.154-3.152 0-1.746 1.408-3.153 3.154-3.153s3.155 1.407 3.155 3.153zM241.609 159.208c0 1.745-1.408 3.152-3.154 3.152s-3.154-1.407-3.154-3.152c0-1.746 1.408-3.153 3.154-3.153 1.69 0 3.154 1.407 3.154 3.153zM250.059 159.208c0 1.745-1.409 3.152-3.155 3.152-1.746 0-3.154-1.407-3.154-3.152 0-1.746 1.408-3.153 3.154-3.153s3.155 1.407 3.155 3.153zM258.564 159.208c0 1.745-1.408 3.152-3.154 3.152s-3.154-1.407-3.154-3.152c0-1.746 1.408-3.153 3.154-3.153s3.154 1.407 3.154 3.153zM267.014 159.208c0 1.745-1.408 3.152-3.155 3.152-1.746 0-3.154-1.407-3.154-3.152 0-1.746 1.408-3.153 3.154-3.153 1.747 0 3.155 1.407 3.155 3.153zM275.52 159.208c0 1.745-1.409 3.152-3.155 3.152-1.746 0-3.154-1.407-3.154-3.152 0-1.746 1.408-3.153 3.154-3.153s3.155 1.407 3.155 3.153zM284.025 159.208c0 1.745-1.408 3.152-3.154 3.152s-3.155-1.407-3.155-3.152c0-1.746 1.409-3.153 3.155-3.153 1.69 0 3.154 1.407 3.154 3.153zM292.475 159.208c0 1.745-1.409 3.152-3.155 3.152-1.746 0-3.154-1.407-3.154-3.152 0-1.746 1.408-3.153 3.154-3.153s3.155 1.407 3.155 3.153zM300.98 159.208c0 1.745-1.408 3.152-3.154 3.152s-3.155-1.407-3.155-3.152c0-1.746 1.409-3.153 3.155-3.153 1.746 0 3.154 1.407 3.154 3.153zM309.486 159.208c0 1.745-1.408 3.152-3.154 3.152-1.747 0-3.155-1.407-3.155-3.152 0-1.746 1.408-3.153 3.155-3.153 1.69 0 3.154 1.407 3.154 3.153zM317.935 159.208c0 1.745-1.408 3.152-3.154 3.152s-3.154-1.407-3.154-3.152c0-1.746 1.408-3.153 3.154-3.153s3.154 1.407 3.154 3.153zM326.441 159.208c0 1.745-1.408 3.152-3.154 3.152-1.747 0-3.155-1.407-3.155-3.152 0-1.746 1.408-3.153 3.155-3.153 1.746 0 3.154 1.407 3.154 3.153zM368.857 159.208c0 1.745-1.408 3.152-3.154 3.152-1.747 0-3.155-1.407-3.155-3.152 0-1.746 1.408-3.153 3.155-3.153 1.746 0 3.154 1.407 3.154 3.153zM377.363 159.208c0 1.745-1.409 3.152-3.155 3.152-1.746 0-3.154-1.407-3.154-3.152 0-1.746 1.408-3.153 3.154-3.153 1.69 0 3.155 1.407 3.155 3.153zM385.812 159.208c0 1.745-1.408 3.152-3.154 3.152-1.747 0-3.155-1.407-3.155-3.152 0-1.746 1.408-3.153 3.155-3.153 1.746 0 3.154 1.407 3.154 3.153zM394.318 159.208c0 1.745-1.408 3.152-3.155 3.152-1.746 0-3.154-1.407-3.154-3.152 0-1.746 1.408-3.153 3.154-3.153 1.69 0 3.155 1.407 3.155 3.153zM513.06 159.208c0 1.745-1.408 3.152-3.155 3.152-1.746 0-3.154-1.407-3.154-3.152 0-1.746 1.408-3.153 3.154-3.153 1.747 0 3.155 1.407 3.155 3.153zM521.565 159.208c0 1.745-1.408 3.152-3.154 3.152s-3.154-1.407-3.154-3.152c0-1.746 1.408-3.153 3.154-3.153s3.154 1.407 3.154 3.153zM555.532 159.208c0 1.745-1.408 3.152-3.154 3.152-1.747 0-3.155-1.407-3.155-3.152 0-1.746 1.408-3.153 3.155-3.153 1.689 0 3.154 1.407 3.154 3.153zM233.104 167.709c0 1.745-1.409 3.153-3.155 3.153-1.746 0-3.154-1.408-3.154-3.153 0-1.746 1.408-3.153 3.154-3.153s3.155 1.407 3.155 3.153zM241.609 167.709c0 1.745-1.408 3.153-3.154 3.153s-3.154-1.408-3.154-3.153c0-1.746 1.408-3.153 3.154-3.153 1.69 0 3.154 1.407 3.154 3.153zM250.059 167.709c0 1.745-1.409 3.153-3.155 3.153-1.746 0-3.154-1.408-3.154-3.153 0-1.746 1.408-3.153 3.154-3.153s3.155 1.407 3.155 3.153zM255.354 170.862c1.742 0 3.154-1.412 3.154-3.153s-1.412-3.153-3.154-3.153-3.155 1.412-3.155 3.153 1.413 3.153 3.155 3.153zM267.014 167.709c0 1.745-1.408 3.153-3.155 3.153-1.746 0-3.154-1.408-3.154-3.153 0-1.746 1.408-3.153 3.154-3.153 1.747 0 3.155 1.407 3.155 3.153zM272.365 170.862c1.742 0 3.155-1.412 3.155-3.153s-1.413-3.153-3.155-3.153c-1.742 0-3.154 1.412-3.154 3.153s1.412 3.153 3.154 3.153zM284.025 167.709c0 1.745-1.408 3.153-3.154 3.153s-3.155-1.408-3.155-3.153c0-1.746 1.409-3.153 3.155-3.153 1.69 0 3.154 1.407 3.154 3.153zM292.475 167.709c0 1.745-1.409 3.153-3.155 3.153-1.746 0-3.154-1.408-3.154-3.153 0-1.746 1.408-3.153 3.154-3.153s3.155 1.407 3.155 3.153zM297.77 170.862c1.742 0 3.154-1.412 3.154-3.153s-1.412-3.153-3.154-3.153c-1.743 0-3.155 1.412-3.155 3.153s1.412 3.153 3.155 3.153zM309.486 167.709c0 1.745-1.408 3.153-3.154 3.153-1.747 0-3.155-1.408-3.155-3.153 0-1.746 1.408-3.153 3.155-3.153 1.69 0 3.154 1.407 3.154 3.153zM314.781 170.862c1.742 0 3.154-1.412 3.154-3.153s-1.412-3.153-3.154-3.153-3.154 1.412-3.154 3.153 1.412 3.153 3.154 3.153zM326.441 167.709c0 1.745-1.408 3.153-3.154 3.153-1.747 0-3.155-1.408-3.155-3.153 0-1.746 1.408-3.153 3.155-3.153 1.746 0 3.154 1.407 3.154 3.153zM334.891 167.709c0 1.745-1.409 3.153-3.155 3.153-1.746 0-3.154-1.408-3.154-3.153 0-1.746 1.408-3.153 3.154-3.153s3.155 1.407 3.155 3.153zM340.242 170.862c1.742 0 3.154-1.412 3.154-3.153s-1.412-3.153-3.154-3.153-3.155 1.412-3.155 3.153 1.413 3.153 3.155 3.153zM351.902 167.709c0 1.745-1.408 3.153-3.154 3.153-1.747 0-3.155-1.408-3.155-3.153 0-1.746 1.408-3.153 3.155-3.153 1.689 0 3.154 1.407 3.154 3.153zM357.197 170.862c1.742 0 3.154-1.412 3.154-3.153s-1.412-3.153-3.154-3.153-3.155 1.412-3.155 3.153 1.413 3.153 3.155 3.153zM368.857 167.709c0 1.745-1.408 3.153-3.154 3.153-1.747 0-3.155-1.408-3.155-3.153 0-1.746 1.408-3.153 3.155-3.153 1.746 0 3.154 1.407 3.154 3.153zM377.363 167.709c0 1.745-1.409 3.153-3.155 3.153-1.746 0-3.154-1.408-3.154-3.153 0-1.746 1.408-3.153 3.154-3.153 1.69 0 3.155 1.407 3.155 3.153zM382.658 170.862c1.742 0 3.154-1.412 3.154-3.153s-1.412-3.153-3.154-3.153-3.155 1.412-3.155 3.153 1.413 3.153 3.155 3.153zM394.318 167.709c0 1.745-1.408 3.153-3.155 3.153-1.746 0-3.154-1.408-3.154-3.153 0-1.746 1.408-3.153 3.154-3.153 1.69 0 3.155 1.407 3.155 3.153zM399.613 170.862c1.742 0 3.154-1.412 3.154-3.153s-1.412-3.153-3.154-3.153-3.155 1.412-3.155 3.153 1.413 3.153 3.155 3.153zM501.4 170.862c1.742 0 3.154-1.412 3.154-3.153s-1.412-3.153-3.154-3.153-3.155 1.412-3.155 3.153 1.413 3.153 3.155 3.153zM513.06 167.709c0 1.745-1.408 3.153-3.155 3.153-1.746 0-3.154-1.408-3.154-3.153 0-1.746 1.408-3.153 3.154-3.153 1.747 0 3.155 1.407 3.155 3.153zM521.565 167.709c0 1.745-1.408 3.153-3.154 3.153s-3.154-1.408-3.154-3.153c0-1.746 1.408-3.153 3.154-3.153s3.154 1.407 3.154 3.153zM543.815 170.862c1.743 0 3.155-1.412 3.155-3.153s-1.412-3.153-3.155-3.153c-1.742 0-3.154 1.412-3.154 3.153s1.412 3.153 3.154 3.153zM555.532 167.709c0 1.745-1.408 3.153-3.154 3.153-1.747 0-3.155-1.408-3.155-3.153 0-1.746 1.408-3.153 3.155-3.153 1.689 0 3.154 1.407 3.154 3.153zM233.104 176.21c0 1.745-1.409 3.153-3.155 3.153-1.746 0-3.154-1.408-3.154-3.153s1.408-3.153 3.154-3.153c1.746-.056 3.155 1.351 3.155 3.153zM241.609 176.21c0 1.745-1.408 3.153-3.154 3.153s-3.154-1.408-3.154-3.153 1.408-3.153 3.154-3.153c1.69-.056 3.154 1.351 3.154 3.153zM250.059 176.21c0 1.745-1.409 3.153-3.155 3.153-1.746 0-3.154-1.408-3.154-3.153s1.408-3.153 3.154-3.153c1.746-.056 3.155 1.351 3.155 3.153zM258.564 176.21c0 1.745-1.408 3.153-3.154 3.153s-3.154-1.408-3.154-3.153 1.408-3.153 3.154-3.153c1.746-.056 3.154 1.351 3.154 3.153zM267.014 176.21c0 1.745-1.408 3.153-3.155 3.153-1.746 0-3.154-1.408-3.154-3.153s1.408-3.153 3.154-3.153c1.747-.056 3.155 1.351 3.155 3.153zM275.52 176.21c0 1.745-1.409 3.153-3.155 3.153-1.746 0-3.154-1.408-3.154-3.153s1.408-3.153 3.154-3.153c1.746-.056 3.155 1.351 3.155 3.153zM284.025 176.21c0 1.745-1.408 3.153-3.154 3.153s-3.155-1.408-3.155-3.153 1.409-3.153 3.155-3.153c1.69-.056 3.154 1.351 3.154 3.153zM292.475 176.21c0 1.745-1.409 3.153-3.155 3.153-1.746 0-3.154-1.408-3.154-3.153s1.408-3.153 3.154-3.153c1.746-.056 3.155 1.351 3.155 3.153zM300.98 176.21c0 1.745-1.408 3.153-3.154 3.153s-3.155-1.408-3.155-3.153 1.409-3.153 3.155-3.153c1.746-.056 3.154 1.351 3.154 3.153zM309.486 176.21c0 1.745-1.408 3.153-3.154 3.153-1.747 0-3.155-1.408-3.155-3.153s1.408-3.153 3.155-3.153c1.69-.056 3.154 1.351 3.154 3.153zM317.935 176.21c0 1.745-1.408 3.153-3.154 3.153s-3.154-1.408-3.154-3.153 1.408-3.153 3.154-3.153c1.746-.056 3.154 1.351 3.154 3.153zM326.441 176.21c0 1.745-1.408 3.153-3.154 3.153-1.747 0-3.155-1.408-3.155-3.153s1.408-3.153 3.155-3.153c1.746-.056 3.154 1.351 3.154 3.153zM334.891 176.21c0 1.745-1.409 3.153-3.155 3.153-1.746 0-3.154-1.408-3.154-3.153s1.408-3.153 3.154-3.153c1.746-.056 3.155 1.351 3.155 3.153zM343.396 176.21c0 1.745-1.408 3.153-3.154 3.153s-3.155-1.408-3.155-3.153 1.409-3.153 3.155-3.153c1.746-.056 3.154 1.351 3.154 3.153zM351.902 176.21c0 1.745-1.408 3.153-3.154 3.153-1.747 0-3.155-1.408-3.155-3.153s1.408-3.153 3.155-3.153c1.689-.056 3.154 1.351 3.154 3.153zM360.351 176.21c0 1.745-1.408 3.153-3.154 3.153s-3.155-1.408-3.155-3.153 1.409-3.153 3.155-3.153c1.746-.056 3.154 1.351 3.154 3.153zM368.857 176.21c0 1.745-1.408 3.153-3.154 3.153-1.747 0-3.155-1.408-3.155-3.153s1.408-3.153 3.155-3.153c1.746-.056 3.154 1.351 3.154 3.153zM377.363 176.21c0 1.745-1.409 3.153-3.155 3.153-1.746 0-3.154-1.408-3.154-3.153s1.408-3.153 3.154-3.153c1.69-.056 3.155 1.351 3.155 3.153zM385.812 176.21c0 1.745-1.408 3.153-3.154 3.153-1.747 0-3.155-1.408-3.155-3.153s1.408-3.153 3.155-3.153c1.746-.056 3.154 1.351 3.154 3.153zM394.318 176.21c0 1.745-1.408 3.153-3.155 3.153-1.746 0-3.154-1.408-3.154-3.153s1.408-3.153 3.154-3.153c1.69-.056 3.155 1.351 3.155 3.153zM402.767 176.21c0 1.745-1.408 3.153-3.154 3.153s-3.155-1.408-3.155-3.153 1.409-3.153 3.155-3.153c1.746-.056 3.154 1.351 3.154 3.153zM504.61 176.21c0 1.745-1.408 3.153-3.154 3.153s-3.154-1.408-3.154-3.153 1.408-3.153 3.154-3.153c1.746-.056 3.154 1.351 3.154 3.153zM521.565 176.21c0 1.745-1.408 3.153-3.154 3.153s-3.154-1.408-3.154-3.153 1.408-3.153 3.154-3.153c1.746-.056 3.154 1.351 3.154 3.153zM530.071 176.21c0 1.745-1.408 3.153-3.154 3.153s-3.155-1.408-3.155-3.153 1.409-3.153 3.155-3.153c1.69-.056 3.154 1.351 3.154 3.153zM538.521 176.21c0 1.745-1.409 3.153-3.155 3.153-1.746 0-3.154-1.408-3.154-3.153s1.408-3.153 3.154-3.153c1.746-.056 3.155 1.351 3.155 3.153zM547.026 176.21c0 1.745-1.408 3.153-3.154 3.153s-3.155-1.408-3.155-3.153 1.409-3.153 3.155-3.153c1.746-.056 3.154 1.351 3.154 3.153zM555.532 176.21c0 1.745-1.408 3.153-3.154 3.153-1.747 0-3.155-1.408-3.155-3.153s1.408-3.153 3.155-3.153c1.689-.056 3.154 1.351 3.154 3.153zM233.104 184.655c0 1.745-1.409 3.153-3.155 3.153-1.746 0-3.154-1.408-3.154-3.153s1.408-3.153 3.154-3.153 3.155 1.408 3.155 3.153zM241.609 184.655c0 1.745-1.408 3.153-3.154 3.153s-3.154-1.408-3.154-3.153 1.408-3.153 3.154-3.153c1.69 0 3.154 1.408 3.154 3.153zM250.059 184.655c0 1.745-1.409 3.153-3.155 3.153-1.746 0-3.154-1.408-3.154-3.153s1.408-3.153 3.154-3.153 3.155 1.408 3.155 3.153zM255.354 187.808c1.742 0 3.154-1.412 3.154-3.153s-1.412-3.153-3.154-3.153-3.155 1.412-3.155 3.153 1.413 3.153 3.155 3.153zM267.014 184.655c0 1.745-1.408 3.153-3.155 3.153-1.746 0-3.154-1.408-3.154-3.153s1.408-3.153 3.154-3.153c1.747 0 3.155 1.408 3.155 3.153zM272.365 187.808c1.742 0 3.155-1.412 3.155-3.153s-1.413-3.153-3.155-3.153c-1.742 0-3.154 1.412-3.154 3.153s1.412 3.153 3.154 3.153zM284.025 184.655c0 1.745-1.408 3.153-3.154 3.153s-3.155-1.408-3.155-3.153 1.409-3.153 3.155-3.153c1.69 0 3.154 1.408 3.154 3.153zM292.475 184.655c0 1.745-1.409 3.153-3.155 3.153-1.746 0-3.154-1.408-3.154-3.153s1.408-3.153 3.154-3.153 3.155 1.408 3.155 3.153zM297.77 187.808c1.742 0 3.154-1.412 3.154-3.153s-1.412-3.153-3.154-3.153c-1.743 0-3.155 1.412-3.155 3.153s1.412 3.153 3.155 3.153zM309.486 184.655c0 1.745-1.408 3.153-3.154 3.153-1.747 0-3.155-1.408-3.155-3.153s1.408-3.153 3.155-3.153c1.69 0 3.154 1.408 3.154 3.153zM314.781 187.808c1.742 0 3.154-1.412 3.154-3.153s-1.412-3.153-3.154-3.153-3.154 1.412-3.154 3.153 1.412 3.153 3.154 3.153zM326.441 184.655c0 1.745-1.408 3.153-3.154 3.153-1.747 0-3.155-1.408-3.155-3.153s1.408-3.153 3.155-3.153c1.746 0 3.154 1.408 3.154 3.153zM334.891 184.655c0 1.745-1.409 3.153-3.155 3.153-1.746 0-3.154-1.408-3.154-3.153s1.408-3.153 3.154-3.153 3.155 1.408 3.155 3.153zM340.242 187.808c1.742 0 3.154-1.412 3.154-3.153s-1.412-3.153-3.154-3.153-3.155 1.412-3.155 3.153 1.413 3.153 3.155 3.153zM351.902 184.655c0 1.745-1.408 3.153-3.154 3.153-1.747 0-3.155-1.408-3.155-3.153s1.408-3.153 3.155-3.153c1.689 0 3.154 1.408 3.154 3.153zM357.197 187.808c1.742 0 3.154-1.412 3.154-3.153s-1.412-3.153-3.154-3.153-3.155 1.412-3.155 3.153 1.413 3.153 3.155 3.153zM368.857 184.655c0 1.745-1.408 3.153-3.154 3.153-1.747 0-3.155-1.408-3.155-3.153s1.408-3.153 3.155-3.153c1.746 0 3.154 1.408 3.154 3.153zM377.363 184.655c0 1.745-1.409 3.153-3.155 3.153-1.746 0-3.154-1.408-3.154-3.153s1.408-3.153 3.154-3.153c1.69 0 3.155 1.408 3.155 3.153zM394.318 184.655c0 1.745-1.408 3.153-3.155 3.153-1.746 0-3.154-1.408-3.154-3.153s1.408-3.153 3.154-3.153c1.69 0 3.155 1.408 3.155 3.153zM399.613 187.808c1.742 0 3.154-1.412 3.154-3.153s-1.412-3.153-3.154-3.153-3.155 1.412-3.155 3.153 1.413 3.153 3.155 3.153zM521.565 184.655c0 1.745-1.408 3.153-3.154 3.153s-3.154-1.408-3.154-3.153 1.408-3.153 3.154-3.153 3.154 1.408 3.154 3.153zM526.86 187.808c1.743 0 3.155-1.412 3.155-3.153s-1.412-3.153-3.155-3.153c-1.742 0-3.154 1.412-3.154 3.153s1.412 3.153 3.154 3.153zM538.521 184.655c0 1.745-1.409 3.153-3.155 3.153-1.746 0-3.154-1.408-3.154-3.153s1.408-3.153 3.154-3.153 3.155 1.408 3.155 3.153zM543.815 187.808c1.743 0 3.155-1.412 3.155-3.153s-1.412-3.153-3.155-3.153c-1.742 0-3.154 1.412-3.154 3.153s1.412 3.153 3.154 3.153zM555.532 184.655c0 1.745-1.408 3.153-3.154 3.153-1.747 0-3.155-1.408-3.155-3.153s1.408-3.153 3.155-3.153c1.689 0 3.154 1.408 3.154 3.153zM233.104 193.156c0 1.745-1.409 3.153-3.155 3.153-1.746 0-3.154-1.408-3.154-3.153s1.408-3.153 3.154-3.153c1.746-.056 3.155 1.408 3.155 3.153zM241.609 193.156c0 1.745-1.408 3.153-3.154 3.153s-3.154-1.408-3.154-3.153 1.408-3.153 3.154-3.153c1.69-.056 3.154 1.408 3.154 3.153zM250.059 193.156c0 1.745-1.409 3.153-3.155 3.153-1.746 0-3.154-1.408-3.154-3.153s1.408-3.153 3.154-3.153c1.746-.056 3.155 1.408 3.155 3.153zM258.564 193.156c0 1.745-1.408 3.153-3.154 3.153s-3.154-1.408-3.154-3.153 1.408-3.153 3.154-3.153c1.746-.056 3.154 1.408 3.154 3.153zM267.014 193.156c0 1.745-1.408 3.153-3.155 3.153-1.746 0-3.154-1.408-3.154-3.153s1.408-3.153 3.154-3.153c1.747-.056 3.155 1.408 3.155 3.153zM275.52 193.156c0 1.745-1.409 3.153-3.155 3.153-1.746 0-3.154-1.408-3.154-3.153s1.408-3.153 3.154-3.153c1.746-.056 3.155 1.408 3.155 3.153zM284.025 193.156c0 1.745-1.408 3.153-3.154 3.153s-3.155-1.408-3.155-3.153 1.409-3.153 3.155-3.153c1.69-.056 3.154 1.408 3.154 3.153zM292.475 193.156c0 1.745-1.409 3.153-3.155 3.153-1.746 0-3.154-1.408-3.154-3.153s1.408-3.153 3.154-3.153c1.746-.056 3.155 1.408 3.155 3.153zM300.98 193.156c0 1.745-1.408 3.153-3.154 3.153s-3.155-1.408-3.155-3.153 1.409-3.153 3.155-3.153c1.746-.056 3.154 1.408 3.154 3.153zM309.486 193.156c0 1.745-1.408 3.153-3.154 3.153-1.747 0-3.155-1.408-3.155-3.153s1.408-3.153 3.155-3.153c1.69-.056 3.154 1.408 3.154 3.153zM317.935 193.156c0 1.745-1.408 3.153-3.154 3.153s-3.154-1.408-3.154-3.153 1.408-3.153 3.154-3.153c1.746-.056 3.154 1.408 3.154 3.153zM326.441 193.156c0 1.745-1.408 3.153-3.154 3.153-1.747 0-3.155-1.408-3.155-3.153s1.408-3.153 3.155-3.153c1.746-.056 3.154 1.408 3.154 3.153zM334.891 193.156c0 1.745-1.409 3.153-3.155 3.153-1.746 0-3.154-1.408-3.154-3.153s1.408-3.153 3.154-3.153c1.746-.056 3.155 1.408 3.155 3.153zM343.396 193.156c0 1.745-1.408 3.153-3.154 3.153s-3.155-1.408-3.155-3.153 1.409-3.153 3.155-3.153c1.746-.056 3.154 1.408 3.154 3.153zM351.902 193.156c0 1.745-1.408 3.153-3.154 3.153-1.747 0-3.155-1.408-3.155-3.153s1.408-3.153 3.155-3.153c1.689-.056 3.154 1.408 3.154 3.153zM360.351 193.156c0 1.745-1.408 3.153-3.154 3.153s-3.155-1.408-3.155-3.153 1.409-3.153 3.155-3.153c1.746-.056 3.154 1.408 3.154 3.153zM368.857 193.156c0 1.745-1.408 3.153-3.154 3.153-1.747 0-3.155-1.408-3.155-3.153s1.408-3.153 3.155-3.153c1.746-.056 3.154 1.408 3.154 3.153zM377.363 193.156c0 1.745-1.409 3.153-3.155 3.153-1.746 0-3.154-1.408-3.154-3.153s1.408-3.153 3.154-3.153c1.69-.056 3.155 1.408 3.155 3.153zM530.071 193.156c0 1.745-1.408 3.153-3.154 3.153s-3.155-1.408-3.155-3.153 1.409-3.153 3.155-3.153c1.69-.056 3.154 1.408 3.154 3.153zM538.521 193.156c0 1.745-1.409 3.153-3.155 3.153-1.746 0-3.154-1.408-3.154-3.153s1.408-3.153 3.154-3.153c1.746-.056 3.155 1.408 3.155 3.153zM547.026 193.156c0 1.745-1.408 3.153-3.154 3.153s-3.155-1.408-3.155-3.153 1.409-3.153 3.155-3.153c1.746-.056 3.154 1.408 3.154 3.153zM555.532 193.156c0 1.745-1.408 3.153-3.154 3.153-1.747 0-3.155-1.408-3.155-3.153s1.408-3.153 3.155-3.153c1.689-.056 3.154 1.408 3.154 3.153zM224.598 201.601c0 1.745-1.408 3.153-3.155 3.153-1.746 0-3.154-1.408-3.154-3.153s1.408-3.153 3.154-3.153c1.747 0 3.155 1.408 3.155 3.153zM233.104 201.601c0 1.745-1.409 3.153-3.155 3.153-1.746 0-3.154-1.408-3.154-3.153s1.408-3.153 3.154-3.153 3.155 1.408 3.155 3.153zM241.609 201.601c0 1.745-1.408 3.153-3.154 3.153s-3.154-1.408-3.154-3.153 1.408-3.153 3.154-3.153c1.69 0 3.154 1.408 3.154 3.153zM250.059 201.601c0 1.745-1.409 3.153-3.155 3.153-1.746 0-3.154-1.408-3.154-3.153s1.408-3.153 3.154-3.153 3.155 1.408 3.155 3.153zM255.354 204.754c1.742 0 3.154-1.412 3.154-3.153s-1.412-3.153-3.154-3.153-3.155 1.412-3.155 3.153 1.413 3.153 3.155 3.153zM267.014 201.601c0 1.745-1.408 3.153-3.155 3.153-1.746 0-3.154-1.408-3.154-3.153s1.408-3.153 3.154-3.153c1.747 0 3.155 1.408 3.155 3.153zM272.365 204.754c1.742 0 3.155-1.412 3.155-3.153s-1.413-3.153-3.155-3.153c-1.742 0-3.154 1.412-3.154 3.153s1.412 3.153 3.154 3.153zM284.025 201.601c0 1.745-1.408 3.153-3.154 3.153s-3.155-1.408-3.155-3.153 1.409-3.153 3.155-3.153c1.69 0 3.154 1.408 3.154 3.153zM292.475 201.601c0 1.745-1.409 3.153-3.155 3.153-1.746 0-3.154-1.408-3.154-3.153s1.408-3.153 3.154-3.153 3.155 1.408 3.155 3.153zM297.77 204.754c1.742 0 3.154-1.412 3.154-3.153s-1.412-3.153-3.154-3.153c-1.743 0-3.155 1.412-3.155 3.153s1.412 3.153 3.155 3.153zM309.486 201.601c0 1.745-1.408 3.153-3.154 3.153-1.747 0-3.155-1.408-3.155-3.153s1.408-3.153 3.155-3.153c1.69 0 3.154 1.408 3.154 3.153zM314.781 204.754c1.742 0 3.154-1.412 3.154-3.153s-1.412-3.153-3.154-3.153-3.154 1.412-3.154 3.153 1.412 3.153 3.154 3.153zM326.441 201.601c0 1.745-1.408 3.153-3.154 3.153-1.747 0-3.155-1.408-3.155-3.153s1.408-3.153 3.155-3.153c1.746 0 3.154 1.408 3.154 3.153zM334.891 201.601c0 1.745-1.409 3.153-3.155 3.153-1.746 0-3.154-1.408-3.154-3.153s1.408-3.153 3.154-3.153 3.155 1.408 3.155 3.153zM340.242 204.754c1.742 0 3.154-1.412 3.154-3.153s-1.412-3.153-3.154-3.153-3.155 1.412-3.155 3.153 1.413 3.153 3.155 3.153zM351.902 201.601c0 1.745-1.408 3.153-3.154 3.153-1.747 0-3.155-1.408-3.155-3.153s1.408-3.153 3.155-3.153c1.689 0 3.154 1.408 3.154 3.153zM501.4 204.754c1.742 0 3.154-1.412 3.154-3.153s-1.412-3.153-3.154-3.153-3.155 1.412-3.155 3.153 1.413 3.153 3.155 3.153zM513.06 201.601c0 1.745-1.408 3.153-3.155 3.153-1.746 0-3.154-1.408-3.154-3.153s1.408-3.153 3.154-3.153c1.747 0 3.155 1.408 3.155 3.153zM521.565 201.601c0 1.745-1.408 3.153-3.154 3.153s-3.154-1.408-3.154-3.153 1.408-3.153 3.154-3.153 3.154 1.408 3.154 3.153zM526.86 204.754c1.743 0 3.155-1.412 3.155-3.153s-1.412-3.153-3.155-3.153c-1.742 0-3.154 1.412-3.154 3.153s1.412 3.153 3.154 3.153zM224.598 210.102c0 1.745-1.408 3.153-3.155 3.153-1.746 0-3.154-1.408-3.154-3.153s1.408-3.153 3.154-3.153c1.747 0 3.155 1.408 3.155 3.153zM233.104 210.102c0 1.745-1.409 3.153-3.155 3.153-1.746 0-3.154-1.408-3.154-3.153s1.408-3.153 3.154-3.153 3.155 1.408 3.155 3.153zM241.609 210.102c0 1.745-1.408 3.153-3.154 3.153s-3.154-1.408-3.154-3.153 1.408-3.153 3.154-3.153c1.69 0 3.154 1.408 3.154 3.153zM250.059 210.102c0 1.745-1.409 3.153-3.155 3.153-1.746 0-3.154-1.408-3.154-3.153s1.408-3.153 3.154-3.153 3.155 1.408 3.155 3.153zM258.564 210.102c0 1.745-1.408 3.153-3.154 3.153s-3.154-1.408-3.154-3.153 1.408-3.153 3.154-3.153 3.154 1.408 3.154 3.153zM267.014 210.102c0 1.745-1.408 3.153-3.155 3.153-1.746 0-3.154-1.408-3.154-3.153s1.408-3.153 3.154-3.153c1.747 0 3.155 1.408 3.155 3.153zM275.52 210.102c0 1.745-1.409 3.153-3.155 3.153-1.746 0-3.154-1.408-3.154-3.153s1.408-3.153 3.154-3.153 3.155 1.408 3.155 3.153zM284.025 210.102c0 1.745-1.408 3.153-3.154 3.153s-3.155-1.408-3.155-3.153 1.409-3.153 3.155-3.153c1.69 0 3.154 1.408 3.154 3.153zM292.475 210.102c0 1.745-1.409 3.153-3.155 3.153-1.746 0-3.154-1.408-3.154-3.153s1.408-3.153 3.154-3.153 3.155 1.408 3.155 3.153zM300.98 210.102c0 1.745-1.408 3.153-3.154 3.153s-3.155-1.408-3.155-3.153 1.409-3.153 3.155-3.153c1.746 0 3.154 1.408 3.154 3.153zM309.486 210.102c0 1.745-1.408 3.153-3.154 3.153-1.747 0-3.155-1.408-3.155-3.153s1.408-3.153 3.155-3.153c1.69 0 3.154 1.408 3.154 3.153zM317.935 210.102c0 1.745-1.408 3.153-3.154 3.153s-3.154-1.408-3.154-3.153 1.408-3.153 3.154-3.153 3.154 1.408 3.154 3.153zM326.441 210.102c0 1.745-1.408 3.153-3.154 3.153-1.747 0-3.155-1.408-3.155-3.153s1.408-3.153 3.155-3.153c1.746 0 3.154 1.408 3.154 3.153zM334.891 210.102c0 1.745-1.409 3.153-3.155 3.153-1.746 0-3.154-1.408-3.154-3.153s1.408-3.153 3.154-3.153 3.155 1.408 3.155 3.153zM343.396 210.102c0 1.745-1.408 3.153-3.154 3.153s-3.155-1.408-3.155-3.153 1.409-3.153 3.155-3.153c1.746 0 3.154 1.408 3.154 3.153zM504.61 210.102c0 1.745-1.408 3.153-3.154 3.153s-3.154-1.408-3.154-3.153 1.408-3.153 3.154-3.153 3.154 1.408 3.154 3.153zM513.06 210.102c0 1.745-1.408 3.153-3.155 3.153-1.746 0-3.154-1.408-3.154-3.153s1.408-3.153 3.154-3.153c1.747 0 3.155 1.408 3.155 3.153zM521.565 210.102c0 1.745-1.408 3.153-3.154 3.153s-3.154-1.408-3.154-3.153 1.408-3.153 3.154-3.153 3.154 1.408 3.154 3.153zM224.598 218.603c0 1.746-1.408 3.153-3.155 3.153-1.746 0-3.154-1.407-3.154-3.153 0-1.745 1.408-3.152 3.154-3.152 1.747-.057 3.155 1.407 3.155 3.152zM233.104 218.603c0 1.746-1.409 3.153-3.155 3.153-1.746 0-3.154-1.407-3.154-3.153 0-1.745 1.408-3.152 3.154-3.152 1.746-.057 3.155 1.407 3.155 3.152zM241.609 218.603c0 1.746-1.408 3.153-3.154 3.153s-3.154-1.407-3.154-3.153c0-1.745 1.408-3.152 3.154-3.152 1.69-.057 3.154 1.407 3.154 3.152zM250.059 218.603c0 1.746-1.409 3.153-3.155 3.153-1.746 0-3.154-1.407-3.154-3.153 0-1.745 1.408-3.152 3.154-3.152 1.746-.057 3.155 1.407 3.155 3.152zM258.564 218.603c0 1.746-1.408 3.153-3.154 3.153s-3.154-1.407-3.154-3.153c0-1.745 1.408-3.152 3.154-3.152 1.746-.057 3.154 1.407 3.154 3.152zM267.014 218.603c0 1.746-1.408 3.153-3.155 3.153-1.746 0-3.154-1.407-3.154-3.153 0-1.745 1.408-3.152 3.154-3.152 1.747-.057 3.155 1.407 3.155 3.152zM275.52 218.603c0 1.746-1.409 3.153-3.155 3.153-1.746 0-3.154-1.407-3.154-3.153 0-1.745 1.408-3.152 3.154-3.152 1.746-.057 3.155 1.407 3.155 3.152zM284.025 218.603c0 1.746-1.408 3.153-3.154 3.153s-3.155-1.407-3.155-3.153c0-1.745 1.409-3.152 3.155-3.152 1.69-.057 3.154 1.407 3.154 3.152zM292.475 218.603c0 1.746-1.409 3.153-3.155 3.153-1.746 0-3.154-1.407-3.154-3.153 0-1.745 1.408-3.152 3.154-3.152 1.746-.057 3.155 1.407 3.155 3.152zM300.98 218.603c0 1.746-1.408 3.153-3.154 3.153s-3.155-1.407-3.155-3.153c0-1.745 1.409-3.152 3.155-3.152 1.746-.057 3.154 1.407 3.154 3.152zM309.486 218.603c0 1.746-1.408 3.153-3.154 3.153-1.747 0-3.155-1.407-3.155-3.153 0-1.745 1.408-3.152 3.155-3.152 1.69-.057 3.154 1.407 3.154 3.152zM317.935 218.603c0 1.746-1.408 3.153-3.154 3.153s-3.154-1.407-3.154-3.153c0-1.745 1.408-3.152 3.154-3.152 1.746-.057 3.154 1.407 3.154 3.152zM326.441 218.603c0 1.746-1.408 3.153-3.154 3.153-1.747 0-3.155-1.407-3.155-3.153 0-1.745 1.408-3.152 3.155-3.152 1.746-.057 3.154 1.407 3.154 3.152zM334.891 218.603c0 1.746-1.409 3.153-3.155 3.153-1.746 0-3.154-1.407-3.154-3.153 0-1.745 1.408-3.152 3.154-3.152 1.746-.057 3.155 1.407 3.155 3.152zM513.06 218.603c0 1.746-1.408 3.153-3.155 3.153-1.746 0-3.154-1.407-3.154-3.153 0-1.745 1.408-3.152 3.154-3.152 1.747-.057 3.155 1.407 3.155 3.152zM521.565 218.603c0 1.746-1.408 3.153-3.154 3.153s-3.154-1.407-3.154-3.153c0-1.745 1.408-3.152 3.154-3.152 1.746-.057 3.154 1.407 3.154 3.152zM530.071 218.603c0 1.746-1.408 3.153-3.154 3.153s-3.155-1.407-3.155-3.153c0-1.745 1.409-3.152 3.155-3.152 1.69-.057 3.154 1.407 3.154 3.152zM538.521 218.603c0 1.746-1.409 3.153-3.155 3.153-1.746 0-3.154-1.407-3.154-3.153 0-1.745 1.408-3.152 3.154-3.152 1.746-.057 3.155 1.407 3.155 3.152zM547.026 218.603c0 1.746-1.408 3.153-3.154 3.153s-3.155-1.407-3.155-3.153c0-1.745 1.409-3.152 3.155-3.152 1.746-.057 3.154 1.407 3.154 3.152zM233.104 227.048c0 1.746-1.409 3.153-3.155 3.153-1.746 0-3.154-1.407-3.154-3.153 0-1.745 1.408-3.152 3.154-3.152s3.155 1.407 3.155 3.152zM241.609 227.048c0 1.746-1.408 3.153-3.154 3.153s-3.154-1.407-3.154-3.153c0-1.745 1.408-3.152 3.154-3.152 1.69 0 3.154 1.407 3.154 3.152zM250.059 227.048c0 1.746-1.409 3.153-3.155 3.153-1.746 0-3.154-1.407-3.154-3.153 0-1.745 1.408-3.152 3.154-3.152s3.155 1.407 3.155 3.152zM258.564 227.048c0 1.746-1.408 3.153-3.154 3.153s-3.154-1.407-3.154-3.153c0-1.745 1.408-3.152 3.154-3.152s3.154 1.407 3.154 3.152zM267.014 227.048c0 1.746-1.408 3.153-3.155 3.153-1.746 0-3.154-1.407-3.154-3.153 0-1.745 1.408-3.152 3.154-3.152 1.747 0 3.155 1.407 3.155 3.152zM275.52 227.048c0 1.746-1.409 3.153-3.155 3.153-1.746 0-3.154-1.407-3.154-3.153 0-1.745 1.408-3.152 3.154-3.152s3.155 1.407 3.155 3.152zM284.025 227.048c0 1.746-1.408 3.153-3.154 3.153s-3.155-1.407-3.155-3.153c0-1.745 1.409-3.152 3.155-3.152 1.69 0 3.154 1.407 3.154 3.152zM292.475 227.048c0 1.746-1.409 3.153-3.155 3.153-1.746 0-3.154-1.407-3.154-3.153 0-1.745 1.408-3.152 3.154-3.152s3.155 1.407 3.155 3.152zM300.98 227.048c0 1.746-1.408 3.153-3.154 3.153s-3.155-1.407-3.155-3.153c0-1.745 1.409-3.152 3.155-3.152 1.746 0 3.154 1.407 3.154 3.152zM309.486 227.048c0 1.746-1.408 3.153-3.154 3.153-1.747 0-3.155-1.407-3.155-3.153 0-1.745 1.408-3.152 3.155-3.152 1.69 0 3.154 1.407 3.154 3.152zM317.935 227.048c0 1.746-1.408 3.153-3.154 3.153s-3.154-1.407-3.154-3.153c0-1.745 1.408-3.152 3.154-3.152s3.154 1.407 3.154 3.152zM326.441 227.048c0 1.746-1.408 3.153-3.154 3.153-1.747 0-3.155-1.407-3.155-3.153 0-1.745 1.408-3.152 3.155-3.152 1.746 0 3.154 1.407 3.154 3.152zM513.06 227.048c0 1.746-1.408 3.153-3.155 3.153-1.746 0-3.154-1.407-3.154-3.153 0-1.745 1.408-3.152 3.154-3.152 1.747 0 3.155 1.407 3.155 3.152zM521.565 227.048c0 1.746-1.408 3.153-3.154 3.153s-3.154-1.407-3.154-3.153c0-1.745 1.408-3.152 3.154-3.152s3.154 1.407 3.154 3.152zM530.071 227.048c0 1.746-1.408 3.153-3.154 3.153s-3.155-1.407-3.155-3.153c0-1.745 1.409-3.152 3.155-3.152 1.69 0 3.154 1.407 3.154 3.152zM538.521 227.048c0 1.746-1.409 3.153-3.155 3.153-1.746 0-3.154-1.407-3.154-3.153 0-1.745 1.408-3.152 3.154-3.152s3.155 1.407 3.155 3.152zM547.026 227.048c0 1.746-1.408 3.153-3.154 3.153s-3.155-1.407-3.155-3.153c0-1.745 1.409-3.152 3.155-3.152 1.746 0 3.154 1.407 3.154 3.152zM555.532 227.048c0 1.746-1.408 3.153-3.154 3.153-1.747 0-3.155-1.407-3.155-3.153 0-1.745 1.408-3.152 3.155-3.152 1.689 0 3.154 1.407 3.154 3.152zM233.104 235.55c0 1.745-1.409 3.152-3.155 3.152-1.746 0-3.154-1.407-3.154-3.152 0-1.746 1.408-3.153 3.154-3.153 1.746-.057 3.155 1.407 3.155 3.153zM241.609 235.55c0 1.745-1.408 3.152-3.154 3.152s-3.154-1.407-3.154-3.152c0-1.746 1.408-3.153 3.154-3.153 1.69-.057 3.154 1.407 3.154 3.153zM250.059 235.55c0 1.745-1.409 3.152-3.155 3.152-1.746 0-3.154-1.407-3.154-3.152 0-1.746 1.408-3.153 3.154-3.153 1.746-.057 3.155 1.407 3.155 3.153zM258.564 235.55c0 1.745-1.408 3.152-3.154 3.152s-3.154-1.407-3.154-3.152c0-1.746 1.408-3.153 3.154-3.153 1.746-.057 3.154 1.407 3.154 3.153zM267.014 235.55c0 1.745-1.408 3.152-3.155 3.152-1.746 0-3.154-1.407-3.154-3.152 0-1.746 1.408-3.153 3.154-3.153 1.747-.057 3.155 1.407 3.155 3.153zM275.52 235.55c0 1.745-1.409 3.152-3.155 3.152-1.746 0-3.154-1.407-3.154-3.152 0-1.746 1.408-3.153 3.154-3.153 1.746-.057 3.155 1.407 3.155 3.153zM284.025 235.55c0 1.745-1.408 3.152-3.154 3.152s-3.155-1.407-3.155-3.152c0-1.746 1.409-3.153 3.155-3.153 1.69-.057 3.154 1.407 3.154 3.153zM292.475 235.55c0 1.745-1.409 3.152-3.155 3.152-1.746 0-3.154-1.407-3.154-3.152 0-1.746 1.408-3.153 3.154-3.153 1.746-.057 3.155 1.407 3.155 3.153zM300.98 235.55c0 1.745-1.408 3.152-3.154 3.152s-3.155-1.407-3.155-3.152c0-1.746 1.409-3.153 3.155-3.153 1.746-.057 3.154 1.407 3.154 3.153zM309.486 235.55c0 1.745-1.408 3.152-3.154 3.152-1.747 0-3.155-1.407-3.155-3.152 0-1.746 1.408-3.153 3.155-3.153 1.69-.057 3.154 1.407 3.154 3.153zM317.935 235.55c0 1.745-1.408 3.152-3.154 3.152s-3.154-1.407-3.154-3.152c0-1.746 1.408-3.153 3.154-3.153 1.746-.057 3.154 1.407 3.154 3.153zM504.61 235.55c0 1.745-1.408 3.152-3.154 3.152s-3.154-1.407-3.154-3.152c0-1.746 1.408-3.153 3.154-3.153 1.746-.057 3.154 1.407 3.154 3.153zM513.06 235.55c0 1.745-1.408 3.152-3.155 3.152-1.746 0-3.154-1.407-3.154-3.152 0-1.746 1.408-3.153 3.154-3.153 1.747-.057 3.155 1.407 3.155 3.153zM521.565 235.55c0 1.745-1.408 3.152-3.154 3.152s-3.154-1.407-3.154-3.152c0-1.746 1.408-3.153 3.154-3.153 1.746-.057 3.154 1.407 3.154 3.153zM530.071 235.55c0 1.745-1.408 3.152-3.154 3.152s-3.155-1.407-3.155-3.152c0-1.746 1.409-3.153 3.155-3.153 1.69-.057 3.154 1.407 3.154 3.153zM538.521 235.55c0 1.745-1.409 3.152-3.155 3.152-1.746 0-3.154-1.407-3.154-3.152 0-1.746 1.408-3.153 3.154-3.153 1.746-.057 3.155 1.407 3.155 3.153zM547.026 235.55c0 1.745-1.408 3.152-3.154 3.152s-3.155-1.407-3.155-3.152c0-1.746 1.409-3.153 3.155-3.153 1.746-.057 3.154 1.407 3.154 3.153zM555.532 235.55c0 1.745-1.408 3.152-3.154 3.152-1.747 0-3.155-1.407-3.155-3.152 0-1.746 1.408-3.153 3.155-3.153 1.689-.057 3.154 1.407 3.154 3.153zM233.104 244.051c0 1.745-1.409 3.153-3.155 3.153-1.746 0-3.154-1.408-3.154-3.153 0-1.746 1.408-3.153 3.154-3.153 1.746-.056 3.155 1.351 3.155 3.153zM241.609 244.051c0 1.745-1.408 3.153-3.154 3.153s-3.154-1.408-3.154-3.153c0-1.746 1.408-3.153 3.154-3.153 1.69-.056 3.154 1.351 3.154 3.153zM250.059 244.051c0 1.745-1.409 3.153-3.155 3.153-1.746 0-3.154-1.408-3.154-3.153 0-1.746 1.408-3.153 3.154-3.153 1.746-.056 3.155 1.351 3.155 3.153zM258.564 244.051c0 1.745-1.408 3.153-3.154 3.153s-3.154-1.408-3.154-3.153c0-1.746 1.408-3.153 3.154-3.153 1.746-.056 3.154 1.351 3.154 3.153zM267.014 244.051c0 1.745-1.408 3.153-3.155 3.153-1.746 0-3.154-1.408-3.154-3.153 0-1.746 1.408-3.153 3.154-3.153 1.747-.056 3.155 1.351 3.155 3.153zM275.52 244.051c0 1.745-1.409 3.153-3.155 3.153-1.746 0-3.154-1.408-3.154-3.153 0-1.746 1.408-3.153 3.154-3.153 1.746-.056 3.155 1.351 3.155 3.153zM317.935 244.051c0 1.745-1.408 3.153-3.154 3.153s-3.154-1.408-3.154-3.153c0-1.746 1.408-3.153 3.154-3.153 1.746-.056 3.154 1.351 3.154 3.153zM496.105 244.051c0 1.745-1.409 3.153-3.155 3.153-1.746 0-3.154-1.408-3.154-3.153 0-1.746 1.408-3.153 3.154-3.153 1.746-.056 3.155 1.351 3.155 3.153zM504.61 244.051c0 1.745-1.408 3.153-3.154 3.153s-3.154-1.408-3.154-3.153c0-1.746 1.408-3.153 3.154-3.153 1.746-.056 3.154 1.351 3.154 3.153zM513.06 244.051c0 1.745-1.408 3.153-3.155 3.153-1.746 0-3.154-1.408-3.154-3.153 0-1.746 1.408-3.153 3.154-3.153 1.747-.056 3.155 1.351 3.155 3.153zM521.565 244.051c0 1.745-1.408 3.153-3.154 3.153s-3.154-1.408-3.154-3.153c0-1.746 1.408-3.153 3.154-3.153 1.746-.056 3.154 1.351 3.154 3.153zM530.071 244.051c0 1.745-1.408 3.153-3.154 3.153s-3.155-1.408-3.155-3.153c0-1.746 1.409-3.153 3.155-3.153 1.69-.056 3.154 1.351 3.154 3.153zM538.521 244.051c0 1.745-1.409 3.153-3.155 3.153-1.746 0-3.154-1.408-3.154-3.153 0-1.746 1.408-3.153 3.154-3.153 1.746-.056 3.155 1.351 3.155 3.153zM547.026 244.051c0 1.745-1.408 3.153-3.154 3.153s-3.155-1.408-3.155-3.153c0-1.746 1.409-3.153 3.155-3.153 1.746-.056 3.154 1.351 3.154 3.153zM555.532 244.051c0 1.745-1.408 3.153-3.154 3.153-1.747 0-3.155-1.408-3.155-3.153 0-1.746 1.408-3.153 3.155-3.153 1.689-.056 3.154 1.351 3.154 3.153zM241.609 252.496c0 1.745-1.408 3.152-3.154 3.152s-3.154-1.407-3.154-3.152c0-1.746 1.408-3.153 3.154-3.153 1.69 0 3.154 1.407 3.154 3.153zM250.059 252.496c0 1.745-1.409 3.152-3.155 3.152-1.746 0-3.154-1.407-3.154-3.152 0-1.746 1.408-3.153 3.154-3.153s3.155 1.407 3.155 3.153zM258.564 252.496c0 1.745-1.408 3.152-3.154 3.152s-3.154-1.407-3.154-3.152c0-1.746 1.408-3.153 3.154-3.153s3.154 1.407 3.154 3.153zM267.014 252.496c0 1.745-1.408 3.152-3.155 3.152-1.746 0-3.154-1.407-3.154-3.152 0-1.746 1.408-3.153 3.154-3.153 1.747 0 3.155 1.407 3.155 3.153zM275.52 252.496c0 1.745-1.409 3.152-3.155 3.152-1.746 0-3.154-1.407-3.154-3.152 0-1.746 1.408-3.153 3.154-3.153s3.155 1.407 3.155 3.153zM317.935 252.496c0 1.745-1.408 3.152-3.154 3.152s-3.154-1.407-3.154-3.152c0-1.746 1.408-3.153 3.154-3.153s3.154 1.407 3.154 3.153zM487.655 252.496c0 1.745-1.408 3.152-3.154 3.152s-3.155-1.407-3.155-3.152c0-1.746 1.409-3.153 3.155-3.153 1.69 0 3.154 1.407 3.154 3.153zM496.105 252.496c0 1.745-1.409 3.152-3.155 3.152-1.746 0-3.154-1.407-3.154-3.152 0-1.746 1.408-3.153 3.154-3.153s3.155 1.407 3.155 3.153zM504.61 252.496c0 1.745-1.408 3.152-3.154 3.152s-3.154-1.407-3.154-3.152c0-1.746 1.408-3.153 3.154-3.153s3.154 1.407 3.154 3.153zM513.06 252.496c0 1.745-1.408 3.152-3.155 3.152-1.746 0-3.154-1.407-3.154-3.152 0-1.746 1.408-3.153 3.154-3.153 1.747 0 3.155 1.407 3.155 3.153zM521.565 252.496c0 1.745-1.408 3.152-3.154 3.152s-3.154-1.407-3.154-3.152c0-1.746 1.408-3.153 3.154-3.153s3.154 1.407 3.154 3.153zM530.071 252.496c0 1.745-1.408 3.152-3.154 3.152s-3.155-1.407-3.155-3.152c0-1.746 1.409-3.153 3.155-3.153 1.69 0 3.154 1.407 3.154 3.153zM538.521 252.496c0 1.745-1.409 3.152-3.155 3.152-1.746 0-3.154-1.407-3.154-3.152 0-1.746 1.408-3.153 3.154-3.153s3.155 1.407 3.155 3.153zM547.026 252.496c0 1.745-1.408 3.152-3.154 3.152s-3.155-1.407-3.155-3.152c0-1.746 1.409-3.153 3.155-3.153 1.746 0 3.154 1.407 3.154 3.153zM555.532 252.496c0 1.745-1.408 3.152-3.154 3.152-1.747 0-3.155-1.407-3.155-3.152 0-1.746 1.408-3.153 3.155-3.153 1.689 0 3.154 1.407 3.154 3.153zM241.609 260.997c0 1.745-1.408 3.153-3.154 3.153s-3.154-1.408-3.154-3.153 1.408-3.153 3.154-3.153c1.69-.056 3.154 1.408 3.154 3.153zM250.059 260.997c0 1.745-1.409 3.153-3.155 3.153-1.746 0-3.154-1.408-3.154-3.153s1.408-3.153 3.154-3.153c1.746-.056 3.155 1.408 3.155 3.153zM255.354 264.15c1.742 0 3.154-1.412 3.154-3.153s-1.412-3.153-3.154-3.153-3.155 1.412-3.155 3.153 1.413 3.153 3.155 3.153zM267.014 260.997c0 1.745-1.408 3.153-3.155 3.153-1.746 0-3.154-1.408-3.154-3.153s1.408-3.153 3.154-3.153c1.747-.056 3.155 1.408 3.155 3.153zM309.486 260.997c0 1.745-1.408 3.153-3.154 3.153-1.747 0-3.155-1.408-3.155-3.153s1.408-3.153 3.155-3.153c1.69-.056 3.154 1.408 3.154 3.153zM314.781 264.15c1.742 0 3.154-1.412 3.154-3.153s-1.412-3.153-3.154-3.153-3.154 1.412-3.154 3.153 1.412 3.153 3.154 3.153zM484.445 264.15c1.742 0 3.154-1.412 3.154-3.153s-1.412-3.153-3.154-3.153c-1.743 0-3.155 1.412-3.155 3.153s1.412 3.153 3.155 3.153zM496.105 260.997c0 1.745-1.409 3.153-3.155 3.153-1.746 0-3.154-1.408-3.154-3.153s1.408-3.153 3.154-3.153c1.746-.056 3.155 1.408 3.155 3.153zM501.4 264.15c1.742 0 3.154-1.412 3.154-3.153s-1.412-3.153-3.154-3.153-3.155 1.412-3.155 3.153 1.413 3.153 3.155 3.153zM513.06 260.997c0 1.745-1.408 3.153-3.155 3.153-1.746 0-3.154-1.408-3.154-3.153s1.408-3.153 3.154-3.153c1.747-.056 3.155 1.408 3.155 3.153zM521.565 260.997c0 1.745-1.408 3.153-3.154 3.153s-3.154-1.408-3.154-3.153 1.408-3.153 3.154-3.153c1.746-.056 3.154 1.408 3.154 3.153zM526.86 264.15c1.743 0 3.155-1.412 3.155-3.153s-1.412-3.153-3.155-3.153c-1.742 0-3.154 1.412-3.154 3.153s1.412 3.153 3.154 3.153zM538.521 260.997c0 1.745-1.409 3.153-3.155 3.153-1.746 0-3.154-1.408-3.154-3.153s1.408-3.153 3.154-3.153c1.746-.056 3.155 1.408 3.155 3.153zM543.815 264.15c1.743 0 3.155-1.412 3.155-3.153s-1.412-3.153-3.155-3.153c-1.742 0-3.154 1.412-3.154 3.153s1.412 3.153 3.154 3.153zM555.532 260.997c0 1.745-1.408 3.153-3.154 3.153-1.747 0-3.155-1.408-3.155-3.153s1.408-3.153 3.155-3.153c1.689-.056 3.154 1.408 3.154 3.153zM250.059 269.442c0 1.745-1.409 3.152-3.155 3.152-1.746 0-3.154-1.407-3.154-3.152 0-1.746 1.408-3.153 3.154-3.153s3.155 1.407 3.155 3.153zM258.564 269.442c0 1.745-1.408 3.152-3.154 3.152s-3.154-1.407-3.154-3.152c0-1.746 1.408-3.153 3.154-3.153s3.154 1.407 3.154 3.153zM267.014 269.442c0 1.745-1.408 3.152-3.155 3.152-1.746 0-3.154-1.407-3.154-3.152 0-1.746 1.408-3.153 3.154-3.153 1.747 0 3.155 1.407 3.155 3.153zM275.52 269.442c0 1.745-1.409 3.152-3.155 3.152-1.746 0-3.154-1.407-3.154-3.152 0-1.746 1.408-3.153 3.154-3.153s3.155 1.407 3.155 3.153zM292.475 269.442c0 1.745-1.409 3.152-3.155 3.152-1.746 0-3.154-1.407-3.154-3.152 0-1.746 1.408-3.153 3.154-3.153s3.155 1.407 3.155 3.153zM326.441 269.442c0 1.745-1.408 3.152-3.154 3.152-1.747 0-3.155-1.407-3.155-3.152 0-1.746 1.408-3.153 3.155-3.153 1.746 0 3.154 1.407 3.154 3.153zM334.891 269.442c0 1.745-1.409 3.152-3.155 3.152-1.746 0-3.154-1.407-3.154-3.152 0-1.746 1.408-3.153 3.154-3.153s3.155 1.407 3.155 3.153zM343.396 269.442c0 1.745-1.408 3.152-3.154 3.152s-3.155-1.407-3.155-3.152c0-1.746 1.409-3.153 3.155-3.153 1.746 0 3.154 1.407 3.154 3.153zM487.655 269.442c0 1.745-1.408 3.152-3.154 3.152s-3.155-1.407-3.155-3.152c0-1.746 1.409-3.153 3.155-3.153 1.69 0 3.154 1.407 3.154 3.153zM496.105 269.442c0 1.745-1.409 3.152-3.155 3.152-1.746 0-3.154-1.407-3.154-3.152 0-1.746 1.408-3.153 3.154-3.153s3.155 1.407 3.155 3.153zM504.61 269.442c0 1.745-1.408 3.152-3.154 3.152s-3.154-1.407-3.154-3.152c0-1.746 1.408-3.153 3.154-3.153s3.154 1.407 3.154 3.153zM513.06 269.442c0 1.745-1.408 3.152-3.155 3.152-1.746 0-3.154-1.407-3.154-3.152 0-1.746 1.408-3.153 3.154-3.153 1.747 0 3.155 1.407 3.155 3.153zM521.565 269.442c0 1.745-1.408 3.152-3.154 3.152s-3.154-1.407-3.154-3.152c0-1.746 1.408-3.153 3.154-3.153s3.154 1.407 3.154 3.153zM530.071 269.442c0 1.745-1.408 3.152-3.154 3.152s-3.155-1.407-3.155-3.152c0-1.746 1.409-3.153 3.155-3.153 1.69 0 3.154 1.407 3.154 3.153zM538.521 269.442c0 1.745-1.409 3.152-3.155 3.152-1.746 0-3.154-1.407-3.154-3.152 0-1.746 1.408-3.153 3.154-3.153s3.155 1.407 3.155 3.153zM547.026 269.442c0 1.745-1.408 3.152-3.154 3.152s-3.155-1.407-3.155-3.152c0-1.746 1.409-3.153 3.155-3.153 1.746 0 3.154 1.407 3.154 3.153zM555.532 269.442c0 1.745-1.408 3.152-3.154 3.152-1.747 0-3.155-1.407-3.155-3.152 0-1.746 1.408-3.153 3.155-3.153 1.689 0 3.154 1.407 3.154 3.153zM255.354 281.096c1.742 0 3.154-1.412 3.154-3.153s-1.412-3.153-3.154-3.153-3.155 1.412-3.155 3.153 1.413 3.153 3.155 3.153zM267.014 277.943c0 1.745-1.408 3.153-3.155 3.153-1.746 0-3.154-1.408-3.154-3.153s1.408-3.153 3.154-3.153c1.747 0 3.155 1.408 3.155 3.153zM272.365 281.096c1.742 0 3.155-1.412 3.155-3.153s-1.413-3.153-3.155-3.153c-1.742 0-3.154 1.412-3.154 3.153s1.412 3.153 3.154 3.153zM284.025 277.943c0 1.745-1.408 3.153-3.154 3.153s-3.155-1.408-3.155-3.153 1.409-3.153 3.155-3.153c1.69 0 3.154 1.408 3.154 3.153zM292.475 277.943c0 1.745-1.409 3.153-3.155 3.153-1.746 0-3.154-1.408-3.154-3.153s1.408-3.153 3.154-3.153 3.155 1.408 3.155 3.153zM484.445 281.096c1.742 0 3.154-1.412 3.154-3.153s-1.412-3.153-3.154-3.153c-1.743 0-3.155 1.412-3.155 3.153s1.412 3.153 3.155 3.153zM496.105 277.943c0 1.745-1.409 3.153-3.155 3.153-1.746 0-3.154-1.408-3.154-3.153s1.408-3.153 3.154-3.153 3.155 1.408 3.155 3.153zM501.4 281.096c1.742 0 3.154-1.412 3.154-3.153s-1.412-3.153-3.154-3.153-3.155 1.412-3.155 3.153 1.413 3.153 3.155 3.153zM513.06 277.943c0 1.745-1.408 3.153-3.155 3.153-1.746 0-3.154-1.408-3.154-3.153s1.408-3.153 3.154-3.153c1.747 0 3.155 1.408 3.155 3.153zM521.565 277.943c0 1.745-1.408 3.153-3.154 3.153s-3.154-1.408-3.154-3.153 1.408-3.153 3.154-3.153 3.154 1.408 3.154 3.153zM526.86 281.096c1.743 0 3.155-1.412 3.155-3.153s-1.412-3.153-3.155-3.153c-1.742 0-3.154 1.412-3.154 3.153s1.412 3.153 3.154 3.153zM538.521 277.943c0 1.745-1.409 3.153-3.155 3.153-1.746 0-3.154-1.408-3.154-3.153s1.408-3.153 3.154-3.153 3.155 1.408 3.155 3.153zM543.815 281.096c1.743 0 3.155-1.412 3.155-3.153s-1.412-3.153-3.155-3.153c-1.742 0-3.154 1.412-3.154 3.153s1.412 3.153 3.154 3.153zM555.532 277.943c0 1.745-1.408 3.153-3.154 3.153-1.747 0-3.155-1.408-3.155-3.153s1.408-3.153 3.155-3.153c1.689 0 3.154 1.408 3.154 3.153zM284.025 286.444c0 1.745-1.408 3.153-3.154 3.153s-3.155-1.408-3.155-3.153 1.409-3.153 3.155-3.153c1.69-.056 3.154 1.352 3.154 3.153zM292.475 286.444c0 1.745-1.409 3.153-3.155 3.153-1.746 0-3.154-1.408-3.154-3.153s1.408-3.153 3.154-3.153c1.746-.056 3.155 1.352 3.155 3.153zM300.98 286.444c0 1.745-1.408 3.153-3.154 3.153s-3.155-1.408-3.155-3.153 1.409-3.153 3.155-3.153c1.746-.056 3.154 1.352 3.154 3.153zM487.655 286.444c0 1.745-1.408 3.153-3.154 3.153s-3.155-1.408-3.155-3.153 1.409-3.153 3.155-3.153c1.69-.056 3.154 1.352 3.154 3.153zM496.105 286.444c0 1.745-1.409 3.153-3.155 3.153-1.746 0-3.154-1.408-3.154-3.153s1.408-3.153 3.154-3.153c1.746-.056 3.155 1.352 3.155 3.153zM504.61 286.444c0 1.745-1.408 3.153-3.154 3.153s-3.154-1.408-3.154-3.153 1.408-3.153 3.154-3.153c1.746-.056 3.154 1.352 3.154 3.153zM513.06 286.444c0 1.745-1.408 3.153-3.155 3.153-1.746 0-3.154-1.408-3.154-3.153s1.408-3.153 3.154-3.153c1.747-.056 3.155 1.352 3.155 3.153zM521.565 286.444c0 1.745-1.408 3.153-3.154 3.153s-3.154-1.408-3.154-3.153 1.408-3.153 3.154-3.153c1.746-.056 3.154 1.352 3.154 3.153zM530.071 286.444c0 1.745-1.408 3.153-3.154 3.153s-3.155-1.408-3.155-3.153 1.409-3.153 3.155-3.153c1.69-.056 3.154 1.352 3.154 3.153zM538.521 286.444c0 1.745-1.409 3.153-3.155 3.153-1.746 0-3.154-1.408-3.154-3.153s1.408-3.153 3.154-3.153c1.746-.056 3.155 1.352 3.155 3.153zM547.026 286.444c0 1.745-1.408 3.153-3.154 3.153s-3.155-1.408-3.155-3.153 1.409-3.153 3.155-3.153c1.746-.056 3.154 1.352 3.154 3.153zM555.532 286.444c0 1.745-1.408 3.153-3.154 3.153-1.747 0-3.155-1.408-3.155-3.153s1.408-3.153 3.155-3.153c1.689-.056 3.154 1.352 3.154 3.153zM297.77 298.042c1.742 0 3.154-1.412 3.154-3.153s-1.412-3.153-3.154-3.153c-1.743 0-3.155 1.412-3.155 3.153s1.412 3.153 3.155 3.153zM334.891 294.889c0 1.745-1.409 3.153-3.155 3.153-1.746 0-3.154-1.408-3.154-3.153s1.408-3.153 3.154-3.153 3.155 1.408 3.155 3.153zM484.445 298.042c1.742 0 3.154-1.412 3.154-3.153s-1.412-3.153-3.154-3.153c-1.743 0-3.155 1.412-3.155 3.153s1.412 3.153 3.155 3.153zM496.105 294.889c0 1.745-1.409 3.153-3.155 3.153-1.746 0-3.154-1.408-3.154-3.153s1.408-3.153 3.154-3.153 3.155 1.408 3.155 3.153zM501.4 298.042c1.742 0 3.154-1.412 3.154-3.153s-1.412-3.153-3.154-3.153-3.155 1.412-3.155 3.153 1.413 3.153 3.155 3.153zM513.06 294.889c0 1.745-1.408 3.153-3.155 3.153-1.746 0-3.154-1.408-3.154-3.153s1.408-3.153 3.154-3.153c1.747 0 3.155 1.408 3.155 3.153zM521.565 294.889c0 1.745-1.408 3.153-3.154 3.153s-3.154-1.408-3.154-3.153 1.408-3.153 3.154-3.153 3.154 1.408 3.154 3.153zM526.86 298.042c1.743 0 3.155-1.412 3.155-3.153s-1.412-3.153-3.155-3.153c-1.742 0-3.154 1.412-3.154 3.153s1.412 3.153 3.154 3.153zM538.521 294.889c0 1.745-1.409 3.153-3.155 3.153-1.746 0-3.154-1.408-3.154-3.153s1.408-3.153 3.154-3.153 3.155 1.408 3.155 3.153zM543.815 298.042c1.743 0 3.155-1.412 3.155-3.153s-1.412-3.153-3.155-3.153c-1.742 0-3.154 1.412-3.154 3.153s1.412 3.153 3.154 3.153zM555.532 294.889c0 1.745-1.408 3.153-3.154 3.153-1.747 0-3.155-1.408-3.155-3.153s1.408-3.153 3.155-3.153c1.689 0 3.154 1.408 3.154 3.153zM309.486 303.39c0 1.746-1.408 3.153-3.154 3.153-1.747 0-3.155-1.407-3.155-3.153 0-1.745 1.408-3.152 3.155-3.152 1.69-.057 3.154 1.407 3.154 3.152zM317.935 303.39c0 1.746-1.408 3.153-3.154 3.153s-3.154-1.407-3.154-3.153c0-1.745 1.408-3.152 3.154-3.152 1.746-.057 3.154 1.407 3.154 3.152zM326.441 303.39c0 1.746-1.408 3.153-3.154 3.153-1.747 0-3.155-1.407-3.155-3.153 0-1.745 1.408-3.152 3.155-3.152 1.746-.057 3.154 1.407 3.154 3.152zM334.891 303.39c0 1.746-1.409 3.153-3.155 3.153-1.746 0-3.154-1.407-3.154-3.153 0-1.745 1.408-3.152 3.154-3.152 1.746-.057 3.155 1.407 3.155 3.152zM343.396 303.39c0 1.746-1.408 3.153-3.154 3.153s-3.155-1.407-3.155-3.153c0-1.745 1.409-3.152 3.155-3.152 1.746-.057 3.154 1.407 3.154 3.152zM351.902 303.39c0 1.746-1.408 3.153-3.154 3.153-1.747 0-3.155-1.407-3.155-3.153 0-1.745 1.408-3.152 3.155-3.152 1.689-.057 3.154 1.407 3.154 3.152zM360.351 303.39c0 1.746-1.408 3.153-3.154 3.153s-3.155-1.407-3.155-3.153c0-1.745 1.409-3.152 3.155-3.152 1.746-.057 3.154 1.407 3.154 3.152zM496.105 303.39c0 1.746-1.409 3.153-3.155 3.153-1.746 0-3.154-1.407-3.154-3.153 0-1.745 1.408-3.152 3.154-3.152 1.746-.057 3.155 1.407 3.155 3.152zM504.61 303.39c0 1.746-1.408 3.153-3.154 3.153s-3.154-1.407-3.154-3.153c0-1.745 1.408-3.152 3.154-3.152 1.746-.057 3.154 1.407 3.154 3.152zM513.06 303.39c0 1.746-1.408 3.153-3.155 3.153-1.746 0-3.154-1.407-3.154-3.153 0-1.745 1.408-3.152 3.154-3.152 1.747-.057 3.155 1.407 3.155 3.152zM521.565 303.39c0 1.746-1.408 3.153-3.154 3.153s-3.154-1.407-3.154-3.153c0-1.745 1.408-3.152 3.154-3.152 1.746-.057 3.154 1.407 3.154 3.152zM530.071 303.39c0 1.746-1.408 3.153-3.154 3.153s-3.155-1.407-3.155-3.153c0-1.745 1.409-3.152 3.155-3.152 1.69-.057 3.154 1.407 3.154 3.152zM538.521 303.39c0 1.746-1.409 3.153-3.155 3.153-1.746 0-3.154-1.407-3.154-3.153 0-1.745 1.408-3.152 3.154-3.152 1.746-.057 3.155 1.407 3.155 3.152zM547.026 303.39c0 1.746-1.408 3.153-3.154 3.153s-3.155-1.407-3.155-3.153c0-1.745 1.409-3.152 3.155-3.152 1.746-.057 3.154 1.407 3.154 3.152zM555.532 303.39c0 1.746-1.408 3.153-3.154 3.153-1.747 0-3.155-1.407-3.155-3.153 0-1.745 1.408-3.152 3.155-3.152 1.689-.057 3.154 1.407 3.154 3.152zM326.441 311.892c0 1.745-1.408 3.152-3.154 3.152-1.747 0-3.155-1.407-3.155-3.152 0-1.746 1.408-3.153 3.155-3.153 1.746-.057 3.154 1.351 3.154 3.153zM334.891 311.892c0 1.745-1.409 3.152-3.155 3.152-1.746 0-3.154-1.407-3.154-3.152 0-1.746 1.408-3.153 3.154-3.153 1.746-.057 3.155 1.351 3.155 3.153zM340.242 315.044c1.742 0 3.154-1.411 3.154-3.153 0-1.741-1.412-3.152-3.154-3.152s-3.155 1.411-3.155 3.152c0 1.742 1.413 3.153 3.155 3.153zM351.902 311.892c0 1.745-1.408 3.152-3.154 3.152-1.747 0-3.155-1.407-3.155-3.152 0-1.746 1.408-3.153 3.155-3.153 1.689-.057 3.154 1.351 3.154 3.153zM357.197 315.044c1.742 0 3.154-1.411 3.154-3.153 0-1.741-1.412-3.152-3.154-3.152s-3.155 1.411-3.155 3.152c0 1.742 1.413 3.153 3.155 3.153zM368.857 311.892c0 1.745-1.408 3.152-3.154 3.152-1.747 0-3.155-1.407-3.155-3.152 0-1.746 1.408-3.153 3.155-3.153 1.746-.057 3.154 1.351 3.154 3.153zM377.363 311.892c0 1.745-1.409 3.152-3.155 3.152-1.746 0-3.154-1.407-3.154-3.152 0-1.746 1.408-3.153 3.154-3.153 1.69-.057 3.155 1.351 3.155 3.153zM496.105 311.892c0 1.745-1.409 3.152-3.155 3.152-1.746 0-3.154-1.407-3.154-3.152 0-1.746 1.408-3.153 3.154-3.153 1.746-.057 3.155 1.351 3.155 3.153zM501.4 315.044c1.742 0 3.154-1.411 3.154-3.153 0-1.741-1.412-3.152-3.154-3.152s-3.155 1.411-3.155 3.152c0 1.742 1.413 3.153 3.155 3.153zM513.06 311.892c0 1.745-1.408 3.152-3.155 3.152-1.746 0-3.154-1.407-3.154-3.152 0-1.746 1.408-3.153 3.154-3.153 1.747-.057 3.155 1.351 3.155 3.153zM538.521 311.892c0 1.745-1.409 3.152-3.155 3.152-1.746 0-3.154-1.407-3.154-3.152 0-1.746 1.408-3.153 3.154-3.153 1.746-.057 3.155 1.351 3.155 3.153zM543.815 315.044c1.743 0 3.155-1.411 3.155-3.153 0-1.741-1.412-3.152-3.155-3.152-1.742 0-3.154 1.411-3.154 3.152 0 1.742 1.412 3.153 3.154 3.153zM555.532 311.892c0 1.745-1.408 3.152-3.154 3.152-1.747 0-3.155-1.407-3.155-3.152 0-1.746 1.408-3.153 3.155-3.153 1.689-.057 3.154 1.351 3.154 3.153zM317.935 320.336c0 1.746-1.408 3.153-3.154 3.153s-3.154-1.407-3.154-3.153c0-1.745 1.408-3.152 3.154-3.152s3.154 1.407 3.154 3.152zM326.441 320.336c0 1.746-1.408 3.153-3.154 3.153-1.747 0-3.155-1.407-3.155-3.153 0-1.745 1.408-3.152 3.155-3.152 1.746 0 3.154 1.407 3.154 3.152zM334.891 320.336c0 1.746-1.409 3.153-3.155 3.153-1.746 0-3.154-1.407-3.154-3.153 0-1.745 1.408-3.152 3.154-3.152s3.155 1.407 3.155 3.152zM343.396 320.336c0 1.746-1.408 3.153-3.154 3.153s-3.155-1.407-3.155-3.153c0-1.745 1.409-3.152 3.155-3.152 1.746 0 3.154 1.407 3.154 3.152zM351.902 320.336c0 1.746-1.408 3.153-3.154 3.153-1.747 0-3.155-1.407-3.155-3.153 0-1.745 1.408-3.152 3.155-3.152 1.689 0 3.154 1.407 3.154 3.152zM360.351 320.336c0 1.746-1.408 3.153-3.154 3.153s-3.155-1.407-3.155-3.153c0-1.745 1.409-3.152 3.155-3.152 1.746 0 3.154 1.407 3.154 3.152zM368.857 320.336c0 1.746-1.408 3.153-3.154 3.153-1.747 0-3.155-1.407-3.155-3.153 0-1.745 1.408-3.152 3.155-3.152 1.746 0 3.154 1.407 3.154 3.152zM377.363 320.336c0 1.746-1.409 3.153-3.155 3.153-1.746 0-3.154-1.407-3.154-3.153 0-1.745 1.408-3.152 3.154-3.152 1.69 0 3.155 1.407 3.155 3.152zM385.812 320.336c0 1.746-1.408 3.153-3.154 3.153-1.747 0-3.155-1.407-3.155-3.153 0-1.745 1.408-3.152 3.155-3.152 1.746 0 3.154 1.407 3.154 3.152zM547.026 320.336c0 1.746-1.408 3.153-3.154 3.153s-3.155-1.407-3.155-3.153c0-1.745 1.409-3.152 3.155-3.152 1.746 0 3.154 1.407 3.154 3.152zM555.532 320.336c0 1.746-1.408 3.153-3.154 3.153-1.747 0-3.155-1.407-3.155-3.153 0-1.745 1.408-3.152 3.155-3.152 1.689 0 3.154 1.407 3.154 3.152zM314.781 331.99c1.742 0 3.154-1.411 3.154-3.152 0-1.742-1.412-3.153-3.154-3.153s-3.154 1.411-3.154 3.153c0 1.741 1.412 3.152 3.154 3.152zM326.441 328.838c0 1.745-1.408 3.152-3.154 3.152-1.747 0-3.155-1.407-3.155-3.152 0-1.746 1.408-3.153 3.155-3.153 1.746-.056 3.154 1.407 3.154 3.153zM334.891 328.838c0 1.745-1.409 3.152-3.155 3.152-1.746 0-3.154-1.407-3.154-3.152 0-1.746 1.408-3.153 3.154-3.153 1.746-.056 3.155 1.407 3.155 3.153zM340.242 331.99c1.742 0 3.154-1.411 3.154-3.152 0-1.742-1.412-3.153-3.154-3.153s-3.155 1.411-3.155 3.153c0 1.741 1.413 3.152 3.155 3.152zM351.902 328.838c0 1.745-1.408 3.152-3.154 3.152-1.747 0-3.155-1.407-3.155-3.152 0-1.746 1.408-3.153 3.155-3.153 1.689-.056 3.154 1.407 3.154 3.153zM357.197 331.99c1.742 0 3.154-1.411 3.154-3.152 0-1.742-1.412-3.153-3.154-3.153s-3.155 1.411-3.155 3.153c0 1.741 1.413 3.152 3.155 3.152zM368.857 328.838c0 1.745-1.408 3.152-3.154 3.152-1.747 0-3.155-1.407-3.155-3.152 0-1.746 1.408-3.153 3.155-3.153 1.746-.056 3.154 1.407 3.154 3.153zM377.363 328.838c0 1.745-1.409 3.152-3.155 3.152-1.746 0-3.154-1.407-3.154-3.152 0-1.746 1.408-3.153 3.154-3.153 1.69-.056 3.155 1.407 3.155 3.153zM382.658 331.99c1.742 0 3.154-1.411 3.154-3.152 0-1.742-1.412-3.153-3.154-3.153s-3.155 1.411-3.155 3.153c0 1.741 1.413 3.152 3.155 3.152zM394.318 328.838c0 1.745-1.408 3.152-3.155 3.152-1.746 0-3.154-1.407-3.154-3.152 0-1.746 1.408-3.153 3.154-3.153 1.69-.056 3.155 1.407 3.155 3.153zM555.532 328.838c0 1.745-1.408 3.152-3.154 3.152-1.747 0-3.155-1.407-3.155-3.152 0-1.746 1.408-3.153 3.155-3.153 1.689-.056 3.154 1.407 3.154 3.153zM317.935 337.283c0 1.745-1.408 3.152-3.154 3.152s-3.154-1.407-3.154-3.152c0-1.746 1.408-3.153 3.154-3.153s3.154 1.407 3.154 3.153zM326.441 337.283c0 1.745-1.408 3.152-3.154 3.152-1.747 0-3.155-1.407-3.155-3.152 0-1.746 1.408-3.153 3.155-3.153 1.746 0 3.154 1.407 3.154 3.153zM334.891 337.283c0 1.745-1.409 3.152-3.155 3.152-1.746 0-3.154-1.407-3.154-3.152 0-1.746 1.408-3.153 3.154-3.153s3.155 1.407 3.155 3.153zM343.396 337.283c0 1.745-1.408 3.152-3.154 3.152s-3.155-1.407-3.155-3.152c0-1.746 1.409-3.153 3.155-3.153 1.746 0 3.154 1.407 3.154 3.153zM351.902 337.283c0 1.745-1.408 3.152-3.154 3.152-1.747 0-3.155-1.407-3.155-3.152 0-1.746 1.408-3.153 3.155-3.153 1.689 0 3.154 1.407 3.154 3.153zM360.351 337.283c0 1.745-1.408 3.152-3.154 3.152s-3.155-1.407-3.155-3.152c0-1.746 1.409-3.153 3.155-3.153 1.746 0 3.154 1.407 3.154 3.153zM368.857 337.283c0 1.745-1.408 3.152-3.154 3.152-1.747 0-3.155-1.407-3.155-3.152 0-1.746 1.408-3.153 3.155-3.153 1.746 0 3.154 1.407 3.154 3.153zM377.363 337.283c0 1.745-1.409 3.152-3.155 3.152-1.746 0-3.154-1.407-3.154-3.152 0-1.746 1.408-3.153 3.154-3.153 1.69 0 3.155 1.407 3.155 3.153zM385.812 337.283c0 1.745-1.408 3.152-3.154 3.152-1.747 0-3.155-1.407-3.155-3.152 0-1.746 1.408-3.153 3.155-3.153 1.746 0 3.154 1.407 3.154 3.153zM394.318 337.283c0 1.745-1.408 3.152-3.155 3.152-1.746 0-3.154-1.407-3.154-3.152 0-1.746 1.408-3.153 3.154-3.153 1.69 0 3.155 1.407 3.155 3.153zM402.767 337.283c0 1.745-1.408 3.152-3.154 3.152s-3.155-1.407-3.155-3.152c0-1.746 1.409-3.153 3.155-3.153 1.746 0 3.154 1.407 3.154 3.153zM411.273 337.283c0 1.745-1.408 3.152-3.155 3.152-1.746 0-3.154-1.407-3.154-3.152 0-1.746 1.408-3.153 3.154-3.153 1.747 0 3.155 1.407 3.155 3.153zM419.779 337.283c0 1.745-1.409 3.152-3.155 3.152-1.746 0-3.154-1.407-3.154-3.152 0-1.746 1.408-3.153 3.154-3.153 1.69 0 3.155 1.407 3.155 3.153zM555.532 337.283c0 1.745-1.408 3.152-3.154 3.152-1.747 0-3.155-1.407-3.155-3.152 0-1.746 1.408-3.153 3.155-3.153 1.689 0 3.154 1.407 3.154 3.153zM314.781 348.937c1.742 0 3.154-1.412 3.154-3.153s-1.412-3.153-3.154-3.153-3.154 1.412-3.154 3.153 1.412 3.153 3.154 3.153zM326.441 345.784c0 1.745-1.408 3.153-3.154 3.153-1.747 0-3.155-1.408-3.155-3.153 0-1.746 1.408-3.153 3.155-3.153 1.746 0 3.154 1.407 3.154 3.153zM334.891 345.784c0 1.745-1.409 3.153-3.155 3.153-1.746 0-3.154-1.408-3.154-3.153 0-1.746 1.408-3.153 3.154-3.153s3.155 1.407 3.155 3.153zM340.242 348.937c1.742 0 3.154-1.412 3.154-3.153s-1.412-3.153-3.154-3.153-3.155 1.412-3.155 3.153 1.413 3.153 3.155 3.153zM351.902 345.784c0 1.745-1.408 3.153-3.154 3.153-1.747 0-3.155-1.408-3.155-3.153 0-1.746 1.408-3.153 3.155-3.153 1.689 0 3.154 1.407 3.154 3.153zM357.197 348.937c1.742 0 3.154-1.412 3.154-3.153s-1.412-3.153-3.154-3.153-3.155 1.412-3.155 3.153 1.413 3.153 3.155 3.153zM368.857 345.784c0 1.745-1.408 3.153-3.154 3.153-1.747 0-3.155-1.408-3.155-3.153 0-1.746 1.408-3.153 3.155-3.153 1.746 0 3.154 1.407 3.154 3.153zM377.363 345.784c0 1.745-1.409 3.153-3.155 3.153-1.746 0-3.154-1.408-3.154-3.153 0-1.746 1.408-3.153 3.154-3.153 1.69 0 3.155 1.407 3.155 3.153zM382.658 348.937c1.742 0 3.154-1.412 3.154-3.153s-1.412-3.153-3.154-3.153-3.155 1.412-3.155 3.153 1.413 3.153 3.155 3.153zM394.318 345.784c0 1.745-1.408 3.153-3.155 3.153-1.746 0-3.154-1.408-3.154-3.153 0-1.746 1.408-3.153 3.154-3.153 1.69 0 3.155 1.407 3.155 3.153zM399.613 348.937c1.742 0 3.154-1.412 3.154-3.153s-1.412-3.153-3.154-3.153-3.155 1.412-3.155 3.153 1.413 3.153 3.155 3.153zM411.273 345.784c0 1.745-1.408 3.153-3.155 3.153-1.746 0-3.154-1.408-3.154-3.153 0-1.746 1.408-3.153 3.154-3.153 1.747 0 3.155 1.407 3.155 3.153zM419.779 345.784c0 1.745-1.409 3.153-3.155 3.153-1.746 0-3.154-1.408-3.154-3.153 0-1.746 1.408-3.153 3.154-3.153 1.69 0 3.155 1.407 3.155 3.153zM428.228 345.784c0 1.745-1.408 3.153-3.154 3.153-1.747 0-3.155-1.408-3.155-3.153 0-1.746 1.408-3.153 3.155-3.153 1.746 0 3.154 1.407 3.154 3.153zM555.532 345.784c0 1.745-1.408 3.153-3.154 3.153-1.747 0-3.155-1.408-3.155-3.153 0-1.746 1.408-3.153 3.155-3.153 1.689 0 3.154 1.407 3.154 3.153zM317.935 354.285c0 1.745-1.408 3.153-3.154 3.153s-3.154-1.408-3.154-3.153 1.408-3.153 3.154-3.153c1.746-.056 3.154 1.351 3.154 3.153zM326.441 354.285c0 1.745-1.408 3.153-3.154 3.153-1.747 0-3.155-1.408-3.155-3.153s1.408-3.153 3.155-3.153c1.746-.056 3.154 1.351 3.154 3.153zM334.891 354.285c0 1.745-1.409 3.153-3.155 3.153-1.746 0-3.154-1.408-3.154-3.153s1.408-3.153 3.154-3.153c1.746-.056 3.155 1.351 3.155 3.153zM343.396 354.285c0 1.745-1.408 3.153-3.154 3.153s-3.155-1.408-3.155-3.153 1.409-3.153 3.155-3.153c1.746-.056 3.154 1.351 3.154 3.153zM351.902 354.285c0 1.745-1.408 3.153-3.154 3.153-1.747 0-3.155-1.408-3.155-3.153s1.408-3.153 3.155-3.153c1.689-.056 3.154 1.351 3.154 3.153zM360.351 354.285c0 1.745-1.408 3.153-3.154 3.153s-3.155-1.408-3.155-3.153 1.409-3.153 3.155-3.153c1.746-.056 3.154 1.351 3.154 3.153zM368.857 354.285c0 1.745-1.408 3.153-3.154 3.153-1.747 0-3.155-1.408-3.155-3.153s1.408-3.153 3.155-3.153c1.746-.056 3.154 1.351 3.154 3.153zM377.363 354.285c0 1.745-1.409 3.153-3.155 3.153-1.746 0-3.154-1.408-3.154-3.153s1.408-3.153 3.154-3.153c1.69-.056 3.155 1.351 3.155 3.153zM385.812 354.285c0 1.745-1.408 3.153-3.154 3.153-1.747 0-3.155-1.408-3.155-3.153s1.408-3.153 3.155-3.153c1.746-.056 3.154 1.351 3.154 3.153zM394.318 354.285c0 1.745-1.408 3.153-3.155 3.153-1.746 0-3.154-1.408-3.154-3.153s1.408-3.153 3.154-3.153c1.69-.056 3.155 1.351 3.155 3.153zM402.767 354.285c0 1.745-1.408 3.153-3.154 3.153s-3.155-1.408-3.155-3.153 1.409-3.153 3.155-3.153c1.746-.056 3.154 1.351 3.154 3.153zM411.273 354.285c0 1.745-1.408 3.153-3.155 3.153-1.746 0-3.154-1.408-3.154-3.153s1.408-3.153 3.154-3.153c1.747-.056 3.155 1.351 3.155 3.153zM419.779 354.285c0 1.745-1.409 3.153-3.155 3.153-1.746 0-3.154-1.408-3.154-3.153s1.408-3.153 3.154-3.153c1.69-.056 3.155 1.351 3.155 3.153zM428.228 354.285c0 1.745-1.408 3.153-3.154 3.153-1.747 0-3.155-1.408-3.155-3.153s1.408-3.153 3.155-3.153c1.746-.056 3.154 1.351 3.154 3.153zM555.532 354.285c0 1.745-1.408 3.153-3.154 3.153-1.747 0-3.155-1.408-3.155-3.153s1.408-3.153 3.155-3.153c1.689-.056 3.154 1.351 3.154 3.153zM326.441 362.73c0 1.745-1.408 3.153-3.154 3.153-1.747 0-3.155-1.408-3.155-3.153s1.408-3.153 3.155-3.153c1.746 0 3.154 1.408 3.154 3.153zM334.891 362.73c0 1.745-1.409 3.153-3.155 3.153-1.746 0-3.154-1.408-3.154-3.153s1.408-3.153 3.154-3.153 3.155 1.408 3.155 3.153zM340.242 365.883c1.742 0 3.154-1.412 3.154-3.153s-1.412-3.153-3.154-3.153-3.155 1.412-3.155 3.153 1.413 3.153 3.155 3.153zM351.902 362.73c0 1.745-1.408 3.153-3.154 3.153-1.747 0-3.155-1.408-3.155-3.153s1.408-3.153 3.155-3.153c1.689 0 3.154 1.408 3.154 3.153zM357.197 365.883c1.742 0 3.154-1.412 3.154-3.153s-1.412-3.153-3.154-3.153-3.155 1.412-3.155 3.153 1.413 3.153 3.155 3.153zM368.857 362.73c0 1.745-1.408 3.153-3.154 3.153-1.747 0-3.155-1.408-3.155-3.153s1.408-3.153 3.155-3.153c1.746 0 3.154 1.408 3.154 3.153zM377.363 362.73c0 1.745-1.409 3.153-3.155 3.153-1.746 0-3.154-1.408-3.154-3.153s1.408-3.153 3.154-3.153c1.69 0 3.155 1.408 3.155 3.153zM382.658 365.883c1.742 0 3.154-1.412 3.154-3.153s-1.412-3.153-3.154-3.153-3.155 1.412-3.155 3.153 1.413 3.153 3.155 3.153zM394.318 362.73c0 1.745-1.408 3.153-3.155 3.153-1.746 0-3.154-1.408-3.154-3.153s1.408-3.153 3.154-3.153c1.69 0 3.155 1.408 3.155 3.153zM399.613 365.883c1.742 0 3.154-1.412 3.154-3.153s-1.412-3.153-3.154-3.153-3.155 1.412-3.155 3.153 1.413 3.153 3.155 3.153zM411.273 362.73c0 1.745-1.408 3.153-3.155 3.153-1.746 0-3.154-1.408-3.154-3.153s1.408-3.153 3.154-3.153c1.747 0 3.155 1.408 3.155 3.153zM419.779 362.73c0 1.745-1.409 3.153-3.155 3.153-1.746 0-3.154-1.408-3.154-3.153s1.408-3.153 3.154-3.153c1.69 0 3.155 1.408 3.155 3.153zM428.228 362.73c0 1.745-1.408 3.153-3.154 3.153-1.747 0-3.155-1.408-3.155-3.153s1.408-3.153 3.155-3.153c1.746 0 3.154 1.408 3.154 3.153zM555.532 362.73c0 1.745-1.408 3.153-3.154 3.153-1.747 0-3.155-1.408-3.155-3.153s1.408-3.153 3.155-3.153c1.689 0 3.154 1.408 3.154 3.153zM326.441 371.231c0 1.745-1.408 3.153-3.154 3.153-1.747 0-3.155-1.408-3.155-3.153s1.408-3.153 3.155-3.153c1.746-.056 3.154 1.408 3.154 3.153zM334.891 371.231c0 1.745-1.409 3.153-3.155 3.153-1.746 0-3.154-1.408-3.154-3.153s1.408-3.153 3.154-3.153c1.746-.056 3.155 1.408 3.155 3.153zM343.396 371.231c0 1.745-1.408 3.153-3.154 3.153s-3.155-1.408-3.155-3.153 1.409-3.153 3.155-3.153c1.746-.056 3.154 1.408 3.154 3.153zM351.902 371.231c0 1.745-1.408 3.153-3.154 3.153-1.747 0-3.155-1.408-3.155-3.153s1.408-3.153 3.155-3.153c1.689-.056 3.154 1.408 3.154 3.153zM360.351 371.231c0 1.745-1.408 3.153-3.154 3.153s-3.155-1.408-3.155-3.153 1.409-3.153 3.155-3.153c1.746-.056 3.154 1.408 3.154 3.153zM368.857 371.231c0 1.745-1.408 3.153-3.154 3.153-1.747 0-3.155-1.408-3.155-3.153s1.408-3.153 3.155-3.153c1.746-.056 3.154 1.408 3.154 3.153zM377.363 371.231c0 1.745-1.409 3.153-3.155 3.153-1.746 0-3.154-1.408-3.154-3.153s1.408-3.153 3.154-3.153c1.69-.056 3.155 1.408 3.155 3.153zM385.812 371.231c0 1.745-1.408 3.153-3.154 3.153-1.747 0-3.155-1.408-3.155-3.153s1.408-3.153 3.155-3.153c1.746-.056 3.154 1.408 3.154 3.153zM394.318 371.231c0 1.745-1.408 3.153-3.155 3.153-1.746 0-3.154-1.408-3.154-3.153s1.408-3.153 3.154-3.153c1.69-.056 3.155 1.408 3.155 3.153zM402.767 371.231c0 1.745-1.408 3.153-3.154 3.153s-3.155-1.408-3.155-3.153 1.409-3.153 3.155-3.153c1.746-.056 3.154 1.408 3.154 3.153zM411.273 371.231c0 1.745-1.408 3.153-3.155 3.153-1.746 0-3.154-1.408-3.154-3.153s1.408-3.153 3.154-3.153c1.747-.056 3.155 1.408 3.155 3.153zM419.779 371.231c0 1.745-1.409 3.153-3.155 3.153-1.746 0-3.154-1.408-3.154-3.153s1.408-3.153 3.154-3.153c1.69-.056 3.155 1.408 3.155 3.153zM555.532 371.231c0 1.745-1.408 3.153-3.154 3.153-1.747 0-3.155-1.408-3.155-3.153s1.408-3.153 3.155-3.153c1.689-.056 3.154 1.408 3.154 3.153zM343.396 379.676c0 1.745-1.408 3.153-3.154 3.153s-3.155-1.408-3.155-3.153 1.409-3.153 3.155-3.153c1.746 0 3.154 1.408 3.154 3.153zM351.902 379.676c0 1.745-1.408 3.153-3.154 3.153-1.747 0-3.155-1.408-3.155-3.153s1.408-3.153 3.155-3.153c1.689 0 3.154 1.408 3.154 3.153zM360.351 379.676c0 1.745-1.408 3.153-3.154 3.153s-3.155-1.408-3.155-3.153 1.409-3.153 3.155-3.153c1.746 0 3.154 1.408 3.154 3.153zM368.857 379.676c0 1.745-1.408 3.153-3.154 3.153-1.747 0-3.155-1.408-3.155-3.153s1.408-3.153 3.155-3.153c1.746 0 3.154 1.408 3.154 3.153zM377.363 379.676c0 1.745-1.409 3.153-3.155 3.153-1.746 0-3.154-1.408-3.154-3.153s1.408-3.153 3.154-3.153c1.69 0 3.155 1.408 3.155 3.153zM385.812 379.676c0 1.745-1.408 3.153-3.154 3.153-1.747 0-3.155-1.408-3.155-3.153s1.408-3.153 3.155-3.153c1.746 0 3.154 1.408 3.154 3.153zM394.318 379.676c0 1.745-1.408 3.153-3.155 3.153-1.746 0-3.154-1.408-3.154-3.153s1.408-3.153 3.154-3.153c1.69 0 3.155 1.408 3.155 3.153zM402.767 379.676c0 1.745-1.408 3.153-3.154 3.153s-3.155-1.408-3.155-3.153 1.409-3.153 3.155-3.153c1.746 0 3.154 1.408 3.154 3.153zM411.273 379.676c0 1.745-1.408 3.153-3.155 3.153-1.746 0-3.154-1.408-3.154-3.153s1.408-3.153 3.154-3.153c1.747 0 3.155 1.408 3.155 3.153zM419.779 379.676c0 1.745-1.409 3.153-3.155 3.153-1.746 0-3.154-1.408-3.154-3.153s1.408-3.153 3.154-3.153c1.69 0 3.155 1.408 3.155 3.153zM555.532 379.676c0 1.745-1.408 3.153-3.154 3.153-1.747 0-3.155-1.408-3.155-3.153s1.408-3.153 3.155-3.153c1.689 0 3.154 1.408 3.154 3.153zM343.396 388.177c0 1.745-1.408 3.153-3.154 3.153s-3.155-1.408-3.155-3.153 1.409-3.153 3.155-3.153c1.746 0 3.154 1.408 3.154 3.153zM351.902 388.177c0 1.745-1.408 3.153-3.154 3.153-1.747 0-3.155-1.408-3.155-3.153s1.408-3.153 3.155-3.153c1.689 0 3.154 1.408 3.154 3.153zM360.351 388.177c0 1.745-1.408 3.153-3.154 3.153s-3.155-1.408-3.155-3.153 1.409-3.153 3.155-3.153c1.746 0 3.154 1.408 3.154 3.153zM368.857 388.177c0 1.745-1.408 3.153-3.154 3.153-1.747 0-3.155-1.408-3.155-3.153s1.408-3.153 3.155-3.153c1.746 0 3.154 1.408 3.154 3.153zM377.363 388.177c0 1.745-1.409 3.153-3.155 3.153-1.746 0-3.154-1.408-3.154-3.153s1.408-3.153 3.154-3.153c1.69 0 3.155 1.408 3.155 3.153zM385.812 388.177c0 1.745-1.408 3.153-3.154 3.153-1.747 0-3.155-1.408-3.155-3.153s1.408-3.153 3.155-3.153c1.746 0 3.154 1.408 3.154 3.153zM394.318 388.177c0 1.745-1.408 3.153-3.155 3.153-1.746 0-3.154-1.408-3.154-3.153s1.408-3.153 3.154-3.153c1.69 0 3.155 1.408 3.155 3.153zM402.767 388.177c0 1.745-1.408 3.153-3.154 3.153s-3.155-1.408-3.155-3.153 1.409-3.153 3.155-3.153c1.746 0 3.154 1.408 3.154 3.153zM411.273 388.177c0 1.745-1.408 3.153-3.155 3.153-1.746 0-3.154-1.408-3.154-3.153s1.408-3.153 3.154-3.153c1.747 0 3.155 1.408 3.155 3.153zM419.779 388.177c0 1.745-1.409 3.153-3.155 3.153-1.746 0-3.154-1.408-3.154-3.153s1.408-3.153 3.154-3.153c1.69 0 3.155 1.408 3.155 3.153zM343.396 396.678c0 1.746-1.408 3.153-3.154 3.153s-3.155-1.407-3.155-3.153c0-1.745 1.409-3.152 3.155-3.152 1.746-.057 3.154 1.407 3.154 3.152zM351.902 396.678c0 1.746-1.408 3.153-3.154 3.153-1.747 0-3.155-1.407-3.155-3.153 0-1.745 1.408-3.152 3.155-3.152 1.689-.057 3.154 1.407 3.154 3.152zM360.351 396.678c0 1.746-1.408 3.153-3.154 3.153s-3.155-1.407-3.155-3.153c0-1.745 1.409-3.152 3.155-3.152 1.746-.057 3.154 1.407 3.154 3.152zM368.857 396.678c0 1.746-1.408 3.153-3.154 3.153-1.747 0-3.155-1.407-3.155-3.153 0-1.745 1.408-3.152 3.155-3.152 1.746-.057 3.154 1.407 3.154 3.152zM377.363 396.678c0 1.746-1.409 3.153-3.155 3.153-1.746 0-3.154-1.407-3.154-3.153 0-1.745 1.408-3.152 3.154-3.152 1.69-.057 3.155 1.407 3.155 3.152zM385.812 396.678c0 1.746-1.408 3.153-3.154 3.153-1.747 0-3.155-1.407-3.155-3.153 0-1.745 1.408-3.152 3.155-3.152 1.746-.057 3.154 1.407 3.154 3.152zM394.318 396.678c0 1.746-1.408 3.153-3.155 3.153-1.746 0-3.154-1.407-3.154-3.153 0-1.745 1.408-3.152 3.154-3.152 1.69-.057 3.155 1.407 3.155 3.152zM402.767 396.678c0 1.746-1.408 3.153-3.154 3.153s-3.155-1.407-3.155-3.153c0-1.745 1.409-3.152 3.155-3.152 1.746-.057 3.154 1.407 3.154 3.152zM411.273 396.678c0 1.746-1.408 3.153-3.155 3.153-1.746 0-3.154-1.407-3.154-3.153 0-1.745 1.408-3.152 3.154-3.152 1.747-.057 3.155 1.407 3.155 3.152zM343.396 405.123c0 1.746-1.408 3.153-3.154 3.153s-3.155-1.407-3.155-3.153c0-1.745 1.409-3.152 3.155-3.152 1.746 0 3.154 1.407 3.154 3.152zM351.902 405.123c0 1.746-1.408 3.153-3.154 3.153-1.747 0-3.155-1.407-3.155-3.153 0-1.745 1.408-3.152 3.155-3.152 1.689 0 3.154 1.407 3.154 3.152zM360.351 405.123c0 1.746-1.408 3.153-3.154 3.153s-3.155-1.407-3.155-3.153c0-1.745 1.409-3.152 3.155-3.152 1.746 0 3.154 1.407 3.154 3.152zM368.857 405.123c0 1.746-1.408 3.153-3.154 3.153-1.747 0-3.155-1.407-3.155-3.153 0-1.745 1.408-3.152 3.155-3.152 1.746 0 3.154 1.407 3.154 3.152zM377.363 405.123c0 1.746-1.409 3.153-3.155 3.153-1.746 0-3.154-1.407-3.154-3.153 0-1.745 1.408-3.152 3.154-3.152 1.69 0 3.155 1.407 3.155 3.152zM385.812 405.123c0 1.746-1.408 3.153-3.154 3.153-1.747 0-3.155-1.407-3.155-3.153 0-1.745 1.408-3.152 3.155-3.152 1.746 0 3.154 1.407 3.154 3.152zM394.318 405.123c0 1.746-1.408 3.153-3.155 3.153-1.746 0-3.154-1.407-3.154-3.153 0-1.745 1.408-3.152 3.154-3.152 1.69 0 3.155 1.407 3.155 3.152zM402.767 405.123c0 1.746-1.408 3.153-3.154 3.153s-3.155-1.407-3.155-3.153c0-1.745 1.409-3.152 3.155-3.152 1.746 0 3.154 1.407 3.154 3.152zM343.396 413.624c0 1.746-1.408 3.153-3.154 3.153s-3.155-1.407-3.155-3.153c0-1.745 1.409-3.152 3.155-3.152 1.746-.057 3.154 1.407 3.154 3.152zM351.902 413.624c0 1.746-1.408 3.153-3.154 3.153-1.747 0-3.155-1.407-3.155-3.153 0-1.745 1.408-3.152 3.155-3.152 1.689-.057 3.154 1.407 3.154 3.152zM360.351 413.624c0 1.746-1.408 3.153-3.154 3.153s-3.155-1.407-3.155-3.153c0-1.745 1.409-3.152 3.155-3.152 1.746-.057 3.154 1.407 3.154 3.152zM368.857 413.624c0 1.746-1.408 3.153-3.154 3.153-1.747 0-3.155-1.407-3.155-3.153 0-1.745 1.408-3.152 3.155-3.152 1.746-.057 3.154 1.407 3.154 3.152zM377.363 413.624c0 1.746-1.409 3.153-3.155 3.153-1.746 0-3.154-1.407-3.154-3.153 0-1.745 1.408-3.152 3.154-3.152 1.69-.057 3.155 1.407 3.155 3.152zM385.812 413.624c0 1.746-1.408 3.153-3.154 3.153-1.747 0-3.155-1.407-3.155-3.153 0-1.745 1.408-3.152 3.155-3.152 1.746-.057 3.154 1.407 3.154 3.152zM394.318 413.624c0 1.746-1.408 3.153-3.155 3.153-1.746 0-3.154-1.407-3.154-3.153 0-1.745 1.408-3.152 3.154-3.152 1.69-.057 3.155 1.407 3.155 3.152zM402.767 413.624c0 1.746-1.408 3.153-3.154 3.153s-3.155-1.407-3.155-3.153c0-1.745 1.409-3.152 3.155-3.152 1.746-.057 3.154 1.407 3.154 3.152zM340.242 425.279c1.742 0 3.154-1.412 3.154-3.153s-1.412-3.153-3.154-3.153-3.155 1.412-3.155 3.153 1.413 3.153 3.155 3.153zM351.902 422.126c0 1.745-1.408 3.152-3.154 3.152-1.747 0-3.155-1.407-3.155-3.152 0-1.746 1.408-3.153 3.155-3.153 1.689-.056 3.154 1.351 3.154 3.153zM357.197 425.279c1.742 0 3.154-1.412 3.154-3.153s-1.412-3.153-3.154-3.153-3.155 1.412-3.155 3.153 1.413 3.153 3.155 3.153zM368.857 422.126c0 1.745-1.408 3.152-3.154 3.152-1.747 0-3.155-1.407-3.155-3.152 0-1.746 1.408-3.153 3.155-3.153 1.746-.056 3.154 1.351 3.154 3.153zM377.363 422.126c0 1.745-1.409 3.152-3.155 3.152-1.746 0-3.154-1.407-3.154-3.152 0-1.746 1.408-3.153 3.154-3.153 1.69-.056 3.155 1.351 3.155 3.153zM382.658 425.279c1.742 0 3.154-1.412 3.154-3.153s-1.412-3.153-3.154-3.153-3.155 1.412-3.155 3.153 1.413 3.153 3.155 3.153zM394.318 422.126c0 1.745-1.408 3.152-3.155 3.152-1.746 0-3.154-1.407-3.154-3.152 0-1.746 1.408-3.153 3.154-3.153 1.69-.056 3.155 1.351 3.155 3.153zM343.396 430.571c0 1.745-1.408 3.152-3.154 3.152s-3.155-1.407-3.155-3.152c0-1.746 1.409-3.153 3.155-3.153 1.746 0 3.154 1.407 3.154 3.153zM351.902 430.571c0 1.745-1.408 3.152-3.154 3.152-1.747 0-3.155-1.407-3.155-3.152 0-1.746 1.408-3.153 3.155-3.153 1.689 0 3.154 1.407 3.154 3.153zM360.351 430.571c0 1.745-1.408 3.152-3.154 3.152s-3.155-1.407-3.155-3.152c0-1.746 1.409-3.153 3.155-3.153 1.746 0 3.154 1.407 3.154 3.153zM368.857 430.571c0 1.745-1.408 3.152-3.154 3.152-1.747 0-3.155-1.407-3.155-3.152 0-1.746 1.408-3.153 3.155-3.153 1.746 0 3.154 1.407 3.154 3.153zM377.363 430.571c0 1.745-1.409 3.152-3.155 3.152-1.746 0-3.154-1.407-3.154-3.152 0-1.746 1.408-3.153 3.154-3.153 1.69 0 3.155 1.407 3.155 3.153zM385.812 430.571c0 1.745-1.408 3.152-3.154 3.152-1.747 0-3.155-1.407-3.155-3.152 0-1.746 1.408-3.153 3.155-3.153 1.746 0 3.154 1.407 3.154 3.153zM340.242 442.225c1.742 0 3.154-1.412 3.154-3.153s-1.412-3.153-3.154-3.153-3.155 1.412-3.155 3.153 1.413 3.153 3.155 3.153zM351.902 439.072c0 1.745-1.408 3.153-3.154 3.153-1.747 0-3.155-1.408-3.155-3.153s1.408-3.153 3.155-3.153c1.689-.056 3.154 1.408 3.154 3.153zM357.197 442.225c1.742 0 3.154-1.412 3.154-3.153s-1.412-3.153-3.154-3.153-3.155 1.412-3.155 3.153 1.413 3.153 3.155 3.153zM368.857 439.072c0 1.745-1.408 3.153-3.154 3.153-1.747 0-3.155-1.408-3.155-3.153s1.408-3.153 3.155-3.153c1.746-.056 3.154 1.408 3.154 3.153zM377.363 439.072c0 1.745-1.409 3.153-3.155 3.153-1.746 0-3.154-1.408-3.154-3.153s1.408-3.153 3.154-3.153c1.69-.056 3.155 1.408 3.155 3.153zM382.658 442.225c1.742 0 3.154-1.412 3.154-3.153s-1.412-3.153-3.154-3.153-3.155 1.412-3.155 3.153 1.413 3.153 3.155 3.153zM351.902 447.517c0 1.745-1.408 3.152-3.154 3.152-1.747 0-3.155-1.407-3.155-3.152 0-1.746 1.408-3.153 3.155-3.153 1.689 0 3.154 1.407 3.154 3.153zM360.351 447.517c0 1.745-1.408 3.152-3.154 3.152s-3.155-1.407-3.155-3.152c0-1.746 1.409-3.153 3.155-3.153 1.746 0 3.154 1.407 3.154 3.153zM368.857 447.517c0 1.745-1.408 3.152-3.154 3.152-1.747 0-3.155-1.407-3.155-3.152 0-1.746 1.408-3.153 3.155-3.153 1.746 0 3.154 1.407 3.154 3.153zM351.902 456.018c0 1.745-1.408 3.153-3.154 3.153-1.747 0-3.155-1.408-3.155-3.153s1.408-3.153 3.155-3.153c1.689 0 3.154 1.408 3.154 3.153zM357.197 459.171c1.742 0 3.154-1.412 3.154-3.153s-1.412-3.153-3.154-3.153-3.155 1.412-3.155 3.153 1.413 3.153 3.155 3.153zM368.857 456.018c0 1.745-1.408 3.153-3.154 3.153-1.747 0-3.155-1.408-3.155-3.153s1.408-3.153 3.155-3.153c1.746 0 3.154 1.408 3.154 3.153zM351.902 464.519c0 1.745-1.408 3.153-3.154 3.153-1.747 0-3.155-1.408-3.155-3.153s1.408-3.153 3.155-3.153c1.689-.056 3.154 1.352 3.154 3.153zM360.351 464.519c0 1.745-1.408 3.153-3.154 3.153s-3.155-1.408-3.155-3.153 1.409-3.153 3.155-3.153c1.746-.056 3.154 1.352 3.154 3.153zM368.857 464.519c0 1.745-1.408 3.153-3.154 3.153-1.747 0-3.155-1.408-3.155-3.153s1.408-3.153 3.155-3.153c1.746-.056 3.154 1.352 3.154 3.153zM351.902 472.964c0 1.745-1.408 3.153-3.154 3.153-1.747 0-3.155-1.408-3.155-3.153s1.408-3.153 3.155-3.153c1.689 0 3.154 1.408 3.154 3.153zM357.197 476.117c1.742 0 3.154-1.412 3.154-3.153s-1.412-3.153-3.154-3.153-3.155 1.412-3.155 3.153 1.413 3.153 3.155 3.153zM368.857 472.964c0 1.745-1.408 3.153-3.154 3.153-1.747 0-3.155-1.408-3.155-3.153s1.408-3.153 3.155-3.153c1.746 0 3.154 1.408 3.154 3.153zM360.351 481.465c0 1.746-1.408 3.153-3.154 3.153s-3.155-1.407-3.155-3.153c0-1.745 1.409-3.152 3.155-3.152 1.746-.057 3.154 1.407 3.154 3.152zM368.857 481.465c0 1.746-1.408 3.153-3.154 3.153-1.747 0-3.155-1.407-3.155-3.153 0-1.745 1.408-3.152 3.155-3.152 1.746-.057 3.154 1.407 3.154 3.152zM368.857 489.966c0 1.746-1.408 3.153-3.154 3.153-1.747 0-3.155-1.407-3.155-3.153 0-1.745 1.408-3.152 3.155-3.152 1.746-.057 3.154 1.351 3.154 3.152zM377.363 489.966c0 1.746-1.409 3.153-3.155 3.153-1.746 0-3.154-1.407-3.154-3.153 0-1.745 1.408-3.152 3.154-3.152 1.69-.057 3.155 1.351 3.155 3.152zM382.658 493.119c1.742 0 3.154-1.411 3.154-3.153 0-1.741-1.412-3.152-3.154-3.152s-3.155 1.411-3.155 3.152c0 1.742 1.413 3.153 3.155 3.153z"/>
      <path fill="#2B2D42" d="M50 25h500v44H50z"/>
      <path fill="#D81F35" d="M529.515 53.44c3.714 0 6.724-3.0086 6.724-6.72s-3.01-6.72-6.724-6.72c-3.713 0-6.723 3.0086-6.723 6.72s3.01 6.72 6.723 6.72z"/>
      <path fill="#8D99AD" d="M502.711 53.44c3.713 0 6.723-3.0086 6.723-6.72s-3.01-6.72-6.723-6.72c-3.714 0-6.724 3.0086-6.724 6.72s3.01 6.72 6.724 6.72z"/>
      <path fill="#EEF2F4" d="M472.724 53.44c3.713 0 6.723-3.0086 6.723-6.72s-3.01-6.72-6.723-6.72C469.01 40 466 43.0086 466 46.72s3.01 6.72 6.724 6.72z"/>
    </g>
  </g>
  <defs>
    <linearGradient id="paint0_linear" x1="300.016" x2="300.016" y1="25" y2="525" gradientUnits="userSpaceOnUse">
      <stop stop-color="#8D99AE"/>
      <stop offset="1" stop-color="#EDF2F4"/>
    </linearGradient>
    <filter id="filter0_d" width="600" height="600" x="0" y="0" color-interpolation-filters="sRGB" filterUnits="userSpaceOnUse">
      <feFlood flood-opacity="0" result="BackgroundImageFix"/>
      <feColorMatrix in="SourceAlpha" type="matrix" values="0 0 0 0 0 0 0 0 0 0 0 0 0 0 0 0 0 0 127 0"/>
      <feOffset dy="25"/>
      <feGaussianBlur stdDeviation="25"/>
      <feColorMatrix type="matrix" values="0 0 0 0 0 0 0 0 0 0 0 0 0 0 0 0 0 0 0.1 0"/>
      <feBlend in2="BackgroundImageFix" mode="normal" result="effect1_dropShadow"/>
      <feBlend in="SourceGraphic" in2="effect1_dropShadow" mode="normal" result="shape"/>
    </filter>
  </defs>
</svg>
