<svg xmlns="http://www.w3.org/2000/svg" fill="none" viewBox="0 0 96 75">
  <defs/>
  <path fill="#2B2D42" d="M48 75l48-27.6145-48-27.6144L0 47.3855 48 75zm44.1408-27.6145L48 72.7713 3.8592 47.3855 48 21.9902l44.1408 25.3953z"/>
  <path fill="#EE243D" d="M5.68322 36.9787V24.3528l28.41598-.0192 9.8208-5.6529c2.256-1.3009 6.192-1.1383 8.7936.3634l9.1584 5.2704 28.4352-.0191v12.9894c.0672.88-.4224 1.7217-1.5072 2.3434L52.0704 60.7576c-2.256 1.3008-6.192 1.1382-8.7936-.3635L7.81442 39.9917c-1.49759-.8608-2.2176-1.98-2.1312-3.013z"/>
  <path fill="#EE243D" d="M48 17.8102c1.6512.0383 3.36.4496 4.7136 1.2339l9.1584 5.2704 28.4352-.0191v12.9894c.0672.88-.4224 1.7217-1.5072 2.3434L52.0704 60.7576c-1.0848.6217-2.5536.9087-4.08.8704V17.8102H48z"/>
  <path fill="#D81F35" d="M87.0912 24.3049h3.216v12.9894c.0672.88-.4224 1.7218-1.5072 2.3435l-1.7088.9852V24.3049zM51.5136 61.0349c-1.9392.8322-4.752.7844-7.0272-.0765V46.209h7.0272v14.8259z"/>
  <path fill="#EE243D" d="M52.08 47.8256L88.8 26.6962c2.256-1.3008 1.968-3.5582-.6336-5.0599L52.7136 1.23392C50.112-.25824 46.1664-.420847 43.92.880008L7.19041 21.9998c-2.25601 1.3008-1.96801 3.5582.6336 5.0599L43.2864 47.4621c2.6016 1.4921 6.5376 1.6547 8.7936.3635z"/>
  <path fill="#D81F35" d="M7.82399 24.5728L43.2864 44.9751c2.6016 1.5018 6.5376 1.6644 8.7936.3635L88.8 24.2093c.4992-.2869.8736-.6313 1.1232-.9948.7776 1.2435.4224 2.5922-1.1232 3.4817L52.08 47.8255c-2.256 1.3009-6.192 1.1383-8.7936-.3634L7.82399 27.0597c-2.0256-1.1669-2.64-2.793-1.75681-4.0652.35521.5644.94081 1.1096 1.75681 1.5783z"/>
  <path fill="#2B2D42" d="M19.1904 40.3074c0 .9469.6624 2.0852 1.488 2.5634.816.4687 1.488.0861 1.488-.8513 0-.9469-.6624-2.0852-1.488-2.5634-.8256-.4783-1.488-.0957-1.488.8513zM14.4193 37.5622c0 .9469.6624 2.0852 1.488 2.5634.816.4687 1.488.0861 1.488-.8513 0-.9469-.6624-2.0852-1.488-2.5634-.8256-.4783-1.488-.0957-1.488.8513zM9.64803 34.817c0 .9469.66237 2.0852 1.48797 2.5634.816.4687 1.488.0861 1.488-.8513 0-.9373-.6624-2.0852-1.488-2.5634-.8256-.4783-1.48797-.0957-1.48797.8513zM49.9104 34.7213l17.184-9.8903c1.056-.6026.9216-1.6643-.2976-2.3626l-16.5984-9.546c-1.2192-.6982-3.0624-.7747-4.1184-.1721l-17.184 9.8903c-1.056.6026-.9216 1.6643.2976 2.3626l16.5984 9.5555c1.2192.6983 3.0624.7748 4.1184.1626z"/>
  <path fill="#EE243D" d="M48.2592 26.4475l2.3808-1.3678c.144-.0861.1248-.2295-.0384-.3252l-2.2944-1.32c-.1728-.0956-.4224-.1052-.5664-.0191L45.36 24.7832c-.144.0861-.1248.2296.0384.3252l2.2944 1.32c.1632.0957.4224.1052.5664.0191z"/>
  <path fill="#D81F35" d="M67.0944 24.8406l-.048.0287c-.0768-.0574-.1536-.1148-.2496-.1722l-16.5984-9.546c-1.2192-.6982-3.0624-.7748-4.1184-.1722l-17.136 9.8617c-.9696-.6887-1.0272-1.6357-.048-2.2l17.184-9.8903c1.056-.6026 2.8992-.5261 4.1184.1721l16.5984 9.546c1.2192.7078 1.3536 1.76.2976 2.3722z"/>
  <path fill="#2B2D42" d="M66.1056 63.3019c2.5056 1.4443 6.576 1.4443 9.0816 0 2.5056-1.4443 2.5056-3.7782 0-5.2226-2.5056-1.4443-6.576-1.4443-9.0816 0-2.5056 1.4348-2.5056 3.7783 0 5.2226z"/>
</svg>
