<svg xmlns="http://www.w3.org/2000/svg" fill="none" viewBox="0 0 600 600">
  <defs/>
  <g filter="url(#filter0_d)">
    <mask id="a" width="500" height="500" x="50" y="25" mask-type="alpha" maskUnits="userSpaceOnUse">
      <path fill="#8D99AD" d="M535 525H65c-8.3 0-15-6.7-15-15V40c0-8.3 6.7-15 15-15h470c8.3 0 15 6.7 15 15v470c0 8.3-6.7 15-15 15z"/>
    </mask>
    <g mask="url(#a)">
      <path fill="#EDF2F4" d="M535 525H65c-8.3 0-15-6.7-15-15V40c0-8.3 6.7-15 15-15h470c8.3 0 15 6.7 15 15v470c0 8.3-6.7 15-15 15z"/>
      <path fill="url(#paint0_linear)" d="M535 525H65c-8.3 0-15-6.7-15-15V40c0-8.3 6.7-15 15-15h470c8.3 0 15 6.7 15 15v470c0 8.3-6.7 15-15 15z" opacity=".25"/>
      <path fill="#EDF2F4" d="M526.628 535.584l-.802-.445-376.682-216.914 2.316-1.336L612.157 51l.802.4452L989.642 268.359l-2.317 1.336-460.697 265.889zM155.38 318.225l371.159 213.708 456.777-263.574L612.157 54.6509 155.38 318.225z"/>
      <path fill="#EDF2F4" d="M324.803 415.513L73.5314 560.392l1.5582 2.7L326.361 418.213l-1.558-2.7zM-3.4309 175.643L-5 178.336l199.799 116.276 1.569-2.693L-3.4309 175.643z"/>
      <path fill="#EDF2F4" d="M332.941 421.072c-4.098 2.315-10.691 2.315-14.789 0-4.098-2.315-4.098-6.144 0-8.548 4.098-2.315 10.691-2.315 14.789 0 4.099 2.404 4.099 6.233 0 8.548z"/>
      <path fill="#2B2D42" d="M50 25h500v44H50z"/>
      <path fill="#D81F35" d="M529.515 53.44c3.714 0 6.724-3.0086 6.724-6.72s-3.01-6.72-6.724-6.72c-3.713 0-6.723 3.0086-6.723 6.72s3.01 6.72 6.723 6.72z"/>
      <path fill="#8D99AD" d="M502.711 53.44c3.713 0 6.723-3.0086 6.723-6.72s-3.01-6.72-6.723-6.72c-3.714 0-6.724 3.0086-6.724 6.72s3.01 6.72 6.724 6.72z"/>
      <path fill="#EEF2F4" d="M472.724 53.44c3.713 0 6.723-3.0086 6.723-6.72s-3.01-6.72-6.723-6.72C469.01 40 466 43.0086 466 46.72s3.01 6.72 6.724 6.72z"/>
      <g clip-path="url(#clip0)">
        <path fill="#2B2D42" d="M300.348 394.001L175 321.629l125.348-72.372 125.348 72.372-125.348 72.372zm-114.443-72.372l114.443 66.08 114.442-66.08-114.442-66.08-114.443 66.08z"/>
        <path fill="#D81F35" d="M382.827 297.814l-82.479 47.63V250.21l82.479-47.605v95.209z"/>
        <path fill="#2B2D42" d="M300.348 250.21l-82.454-47.605L300.348 155l82.454 47.605-82.454 47.605z"/>
        <path fill="#EE243D" d="M300.348 218.022l-26.699-15.417 26.699-15.417 26.699 15.417-26.699 15.417zM300.348 345.444l-82.454-47.63v-95.209l82.454 47.605v95.234z"/>
        <path fill="#D81F35" d="M270.64 294.004l-23.064-13.337v-26.622l23.064 13.311v26.648z"/>
      </g>
    </g>
  </g>
  <defs>
    <linearGradient id="paint0_linear" x1="300.016" x2="300.016" y1="25" y2="525" gradientUnits="userSpaceOnUse">
      <stop stop-color="#8D99AE"/>
      <stop offset="1" stop-color="#EDF2F4"/>
    </linearGradient>
    <clipPath id="clip0">
      <path fill="#fff" d="M0 0h250.696v239.001H0z" transform="translate(175 155)"/>
    </clipPath>
    <filter id="filter0_d" width="600" height="600" x="0" y="0" color-interpolation-filters="sRGB" filterUnits="userSpaceOnUse">
      <feFlood flood-opacity="0" result="BackgroundImageFix"/>
      <feColorMatrix in="SourceAlpha" type="matrix" values="0 0 0 0 0 0 0 0 0 0 0 0 0 0 0 0 0 0 127 0"/>
      <feOffset dy="25"/>
      <feGaussianBlur stdDeviation="25"/>
      <feColorMatrix type="matrix" values="0 0 0 0 0 0 0 0 0 0 0 0 0 0 0 0 0 0 0.1 0"/>
      <feBlend in2="BackgroundImageFix" mode="normal" result="effect1_dropShadow"/>
      <feBlend in="SourceGraphic" in2="effect1_dropShadow" mode="normal" result="shape"/>
    </filter>
  </defs>
</svg>
