<svg xmlns="http://www.w3.org/2000/svg" fill="none" viewBox="0 0 502 625">
  <defs/>
  <path fill="#2B2D42" d="M309.479 624.955l-1.36-.765L20.7396 458.441l87.8884-50.744 1.36.765L397.367 574.21l-87.888 50.745zM31.3644 458.441L309.479 618.835l77.348-44.625-278.114-160.393-77.3486 44.624z"/>
  <path fill="#2B2D42" d="M144.242 481.646c-1.445 0-2.635-1.19-2.635-2.635V330.517c0-1.445 1.19-2.635 2.635-2.635 1.445 0 2.635 1.19 2.635 2.635v148.494c0 1.445-1.19 2.635-2.635 2.635z"/>
  <path fill="#EE243D" d="M157.162 321.167h-25.755v55.675h25.755v-55.675z"/>
  <path fill="#EE243D" d="M153.422 382.112c-5.015 2.89-13.175 2.89-18.275 0-5.1-2.89-5.015-7.65 0-10.54 5.015-2.89 13.175-2.89 18.275 0 5.015 2.89 5.015 7.65 0 10.54z"/>
  <path fill="#2B2D42" d="M165.152 243.648h-41.819v87.294h41.819v-87.294z"/>
  <path fill="#D81F35" d="M131.407 330.347v18.87c7.565 3.485 18.19 3.485 25.755 0v-18.87c-7.565-3.485-18.19-3.485-25.755 0z"/>
  <path fill="#2B2D42" d="M159.032 339.442c-8.16 4.675-21.42 4.675-29.58 0-8.159-4.675-8.159-12.325 0-17.085 8.16-4.675 21.42-4.675 29.58 0 8.16 4.76 8.16 12.41 0 17.085zM289.079 563.076c-1.445 0-2.635-1.19-2.635-2.635V412.032c0-1.445 1.19-2.635 2.635-2.635 1.445 0 2.635 1.19 2.635 2.635v148.494c-.085 1.36-1.19 2.55-2.635 2.55z"/>
  <path fill="#EE243D" d="M301.913 402.682h-25.755v55.674h25.755v-55.674z"/>
  <path fill="#EE243D" d="M298.174 463.626c-5.015 2.89-13.175 2.89-18.275 0-5.014-2.89-5.014-7.65 0-10.54 5.015-2.89 13.175-2.89 18.275 0 5.015 2.89 5.015 7.565 0 10.54z"/>
  <path fill="#2B2D42" d="M309.989 325.077H268.17v87.295h41.819v-87.295z"/>
  <path fill="#D81F35" d="M276.159 411.862v18.869c7.565 3.485 18.19 3.485 25.755 0v-18.869c-7.565-3.485-18.19-3.485-25.755 0z"/>
  <path fill="#2B2D42" d="M303.869 420.957c-8.16 4.675-21.42 4.675-29.579 0-8.16-4.675-8.16-12.325 0-17.085 8.159-4.675 21.419-4.675 29.579 0s8.16 12.325 0 17.085zM429.836 469.916l56.014-32.98-53.379-66.639-14.024 22.95 11.389 76.669zM22.8646 104.334l89.4184-51.4245s-3.4 51.3395-3.4 51.4245c0 .085-51.4241 15.895-51.4241 15.895l-34.5943-15.895z"/>
  <path fill="#2B2D42" d="M445.391 302.467c-6.8-3.91-13.345-6.205-19.379-7.14-9.01-47.429-41.99-97.749-81.344-120.444-11.815-6.799-23.034-10.454-33.234-11.219-5.355-57.545-45.304-122.8244-93.838-150.7892-25.33-14.61991-48.364-16.31989-65.279-7.39497v-.085l-.85.51c-.425.255-.85.51-1.275.76499L97.4081 37.7796l17.5099 13.8549c-15.725 6.8849-25.6698 24.4798-25.6698 50.5745 0 48.11 33.7448 106.589 75.3938 130.644l280.749 200.343c31.28 18.02 56.609 3.4 56.609-32.724 0-36.04-25.329-79.985-56.609-98.005z"/>
  <path fill="#2B2D42" d="M91.9681 81.0443L213.006 10.3248c-23.46-12.23989-44.709-13.25988-60.689-4.84495v-.08499l-.85.50999-1.275.765L97.408 37.7796l17.51 13.8549c-10.88 4.76-19.0399 14.8749-22.9499 29.4098zM315.514 289.123l88.313-51.85c-15.13-26.18-36.039-49.13-59.074-62.39-3.06-1.785-6.035-3.315-9.01-4.675l-112.367 65.705 92.138 53.21z"/>
  <path fill="#EE243D" d="M122.398 43.5596l39.354 22.6948 72.078-42.4147c-5.27-4.0799-10.709-7.8199-16.234-10.9649-8.755-5.01494-17.17-8.49992-25.16-10.5399l-70.038 41.2247zM394.052 221.973l-70.463 41.565 24.479 27.37 64.004-37.825c-5.015-10.795-11.135-21.335-18.02-31.11z"/>
  <path fill="#D81F35" d="M389.972 335.022c-6.8-3.91-13.345-6.205-19.379-7.14-9.01-47.429-41.99-97.749-81.344-120.444-11.815-6.8-23.034-10.455-33.234-11.22-5.355-57.459-45.304-122.7387-93.838-150.7035-52.189-30.0897-94.4334-5.6949-94.4334 54.5695 0 2.04.085 4.08.17 6.205C29.8344 88.4392 0 108.414 0 153.549c0 48.109 33.7443 106.589 75.3935 130.644L389.972 465.836c31.28 18.02 56.609 3.4 56.609-32.725.085-36.124-25.329-79.984-56.609-98.089z"/>
  <path fill="#EE243D" d="M67.9137 106.119c-.085-2.04-.17-4.165-.17-6.2049v-.255c-21.0796-8.1599-39.1843-4.5899-50.574 8.4999 12.4097-10.1148 30.3444-11.4748 50.744-2.04zM394.647 330.602c-6.8-3.91-13.345-6.205-19.379-7.14-9.01-47.429-41.99-97.749-81.344-120.444-11.815-6.8-23.034-10.455-33.234-11.22-5.355-57.544-45.304-122.8236-93.838-150.8734-32.47-18.7849-61.199-16.3199-78.1137 2.72 17.3397-14.7899 43.8587-15.3849 73.5237 1.785 48.534 27.9647 88.483 93.3294 93.838 150.7034 10.2.765 21.42 4.42 33.234 11.22 39.354 22.695 72.334 73.015 81.344 120.444 6.035.935 12.579 3.23 19.379 7.14 31.28 18.02 56.609 61.965 56.609 98.089 0 13.005-3.315 23.205-9.01 30.09 8.5-6.545 13.6-18.36 13.6-34.594 0-35.955-25.329-79.9-56.609-97.92z"/>
  <path fill="#2B2D42" d="M61.2838 120.484l23.6295 10.965-1.1899-26.01c-.085-1.87-.17-3.655-.17-5.4399 0-23.2048 7.0548-40.1197 19.7196-47.4296 12.75-7.31 30.854-5.015 50.999 6.6299 43.264 24.9898 81.088 85.8496 86.018 138.5486l1.275 13.26 13.26 1.02c8.16.595 17.085 3.74 26.604 9.18 34.425 19.89 65.364 65.96 73.694 109.649l2.04 10.965 10.965 1.7c4.42.68 9.095 2.465 13.854 5.27 26.435 15.215 48.704 53.89 48.704 84.404 0 11.39-3.144 19.805-8.669 22.95-5.525 3.145-14.365 1.7-24.225-3.995L83.2984 270.508c-36.5493-21.08-67.4887-74.63-67.4887-116.959 0-16.575 4.9299-29.24 13.4297-34.68 3.485-2.21 7.7349-3.315 12.5798-3.315 5.7799 0 12.4097 1.7 19.4646 4.93z"/>
  <path fill="#D81F35" d="M218.276 317.682l8.329-4.165-8.159-6.205-.17 10.37zM193.371 205.568l8.075-4.08.17 4.25-8.245-.17zM241.99 291.418l8.415-4.165-16.235-15.385 7.82 19.55z"/>
  <path fill="#D81F35" d="M224.141 313.262l-39.27-23.119c-1.955-1.19-3.57-4.165-3.57-6.63l.17-45.475 46.494 27.37-.17 45.474c0 2.465-1.614 3.485-3.654 2.38z"/>
  <path fill="#D81F35" d="M201.361 201.573l-42.414 27.285c-1.785 1.19-.34 5.44 2.38 7.055l43.349 25.5 43.349 25.5c2.72 1.615 4.25-1.02 2.38-4.25l-42.159-77.095c-1.785-3.315-5.1-5.185-6.885-3.995z"/>
  <path fill="#EE243D" d="M215.726 317.512l-39.27-23.119c-1.954-1.19-3.569-4.165-3.569-6.63l.17-45.475 46.494 27.37-.17 45.474c0 2.465-1.615 3.485-3.655 2.38z"/>
  <path fill="#EE243D" d="M192.946 205.738l-42.499 27.37c-1.785 1.19-.34 5.44 2.38 7.055l43.349 25.5 43.349 25.5c2.72 1.615 4.25-1.02 2.38-4.25l-42.159-77.095c-1.7-3.315-5.015-5.185-6.8-4.08z"/>
  <path fill="#D81F35" d="M140.332 367.237c0 2.55-1.785 3.57-3.995 2.295s-3.995-4.42-3.995-6.97 1.785-3.57 3.995-2.295 3.995 4.42 3.995 6.97zM285.424 449.856c0 2.55-1.785 3.57-3.995 2.295s-3.995-4.42-3.995-6.97 1.785-3.57 3.995-2.295 3.995 4.42 3.995 6.97z"/>
  <path fill="#2B2D42" d="M364.473 605.235c-6.885 3.995-18.02 3.995-24.82 0-6.885-3.995-6.885-10.37 0-14.365 6.885-3.995 18.02-3.995 24.82 0 6.8 3.995 6.8 10.37 0 14.365z"/>
</svg>
